<svg width="260" height="97" viewBox="0 0 260 97" fill="none" xmlns="http://www.w3.org/2000/svg">
<mask id="mask0_11_319" style="mask-type:luminance" maskUnits="userSpaceOnUse" x="18" y="0" width="96" height="85">
<path d="M18.4742 0H113.53V84.4938H18.4742V0Z" fill="white"/>
</mask>
<g mask="url(#mask0_11_319)">
<mask id="mask1_11_319" style="mask-type:luminance" maskUnits="userSpaceOnUse" x="3" y="-17" width="125" height="126">
<path d="M47.3451 108.001L3.29474 26.7638L83.3976 -16.6736L127.451 64.5638L47.3451 108.001Z" fill="white"/>
</mask>
<g mask="url(#mask1_11_319)">
<mask id="mask2_11_319" style="mask-type:luminance" maskUnits="userSpaceOnUse" x="3" y="-17" width="125" height="125">
<path d="M3.26819 26.7166L47.3186 107.954L127.424 64.5166L83.374 -16.7208L3.26819 26.7166Z" fill="white"/>
</mask>
<g mask="url(#mask2_11_319)">
<path d="M76.8613 77.822C76.5519 77.9369 75.5441 78.432 73.8555 79.1333C72.1433 79.7964 69.7504 80.6716 66.6326 81.1932C63.5413 81.7531 59.7457 82.0066 55.5905 81.3907C51.4354 80.7777 46.8972 79.3632 42.524 76.6874C40.3315 75.3819 38.2067 73.7199 36.2411 71.7572C34.2756 69.7975 32.4897 67.5785 30.9868 65.1031C29.5045 62.666 28.2874 59.9283 27.3945 57.0109C26.5458 54.0728 26.0242 50.9579 26.0036 47.7841C25.9181 41.4571 27.5625 34.9886 31.0281 29.3394C32.7314 26.5045 34.9209 23.8847 37.417 21.6274C38.6517 20.481 40.0191 19.4732 41.3658 18.5302C42.7361 17.6284 44.189 16.7856 45.7125 16.0665C48.6918 14.6108 51.9806 13.6236 55.3047 13.0961C58.6288 12.5686 62.0119 12.5391 65.2859 12.9929C71.8133 13.8623 77.9812 16.6235 82.8789 20.6608C85.3484 22.6676 87.4731 25.0192 89.2059 27.53C90.9181 30.0025 92.3208 32.5869 93.3316 35.3305C94.3807 38.0534 94.9966 40.853 95.3591 43.5789C95.6803 46.3254 95.6832 48.9776 95.3915 51.4736C94.8286 56.504 93.2638 60.9656 91.2953 64.5815C89.3268 68.1973 86.9339 71.0352 84.8091 73.0892C83.7365 74.1472 82.6992 74.9752 81.8033 75.6737C80.8662 76.3957 80.0911 76.9231 79.4163 77.3416C78.7385 77.7601 78.2287 78.0901 77.8603 78.2905C77.489 78.4909 77.3269 78.5793 77.3269 78.5793C81.4614 79.8435 86.1795 80.4182 91.1597 79.9997C96.1371 79.5842 101.356 78.2404 106.501 75.877C109.59 70.1128 111.555 63.9479 112.392 57.6563C113.226 51.3617 112.887 44.958 111.455 38.8874C110.748 35.8197 109.728 32.8639 108.529 30.0644C107.919 28.6439 107.223 27.2677 106.513 25.9534C105.8 24.6391 104.984 23.3307 104.15 22.0841C100.808 17.098 96.5054 12.6864 91.6077 9.23561C81.8504 2.31332 70.0775 -0.595281 58.7968 0.633579C53.0945 1.28485 47.6133 2.92922 42.745 5.40757C40.3432 6.65706 38.0299 8.07158 35.8905 9.71006C33.754 11.3485 31.7648 13.1668 29.9318 15.1707C26.3042 19.1578 23.4928 23.7609 21.5832 28.5673C19.6736 33.3708 18.7159 38.4601 18.6334 43.4964C18.5892 48.512 19.4673 53.5571 21.1265 58.1808C22.8474 62.8251 25.3022 66.9626 28.4083 70.5342C31.5143 74.1088 35.2922 77.1589 39.3325 79.3219C43.3962 81.5262 47.7665 82.926 52.1515 83.4712C56.5571 84.0547 60.9981 83.8219 65.2476 82.8464C69.4557 81.8916 73.4518 80.15 76.8613 77.822Z" fill="#0059BF"/>
</g>
</g>
</g>
<mask id="mask3_11_319" style="mask-type:luminance" maskUnits="userSpaceOnUse" x="38" y="20" width="55" height="47">
<path d="M38.8433 20.369H92.4063V66.3879H38.8433V20.369Z" fill="white"/>
</mask>
<g mask="url(#mask3_11_319)">
<mask id="mask4_11_319" style="mask-type:luminance" maskUnits="userSpaceOnUse" x="3" y="-17" width="125" height="126">
<path d="M47.3451 108.001L3.29468 26.7638L83.3975 -16.6736L127.451 64.5638L47.3451 108.001Z" fill="white"/>
</mask>
<g mask="url(#mask4_11_319)">
<mask id="mask5_11_319" style="mask-type:luminance" maskUnits="userSpaceOnUse" x="3" y="-17" width="125" height="125">
<path d="M3.26813 26.7166L47.3185 107.954L127.424 64.5166L83.3739 -16.7208L3.26813 26.7166Z" fill="white"/>
</mask>
<g mask="url(#mask5_11_319)">
<path d="M67.0716 59.7662C66.9243 59.7927 66.494 59.9725 65.8339 60.2259C65.1326 60.5 64.1807 60.8035 62.9135 61.0127C61.6464 61.222 60.1434 61.2927 58.4873 61.0746C56.8075 60.8182 55.0129 60.2524 53.2241 59.2033C51.4766 58.1336 49.7733 56.56 48.6004 54.5944C47.3863 52.6494 46.5965 50.2123 46.5317 47.6456C46.4668 45.0788 47.1328 42.4855 48.5179 40.1427C49.8617 37.8206 51.9893 35.8697 54.4353 34.7027C56.8606 33.4945 59.7486 33.0436 62.4126 33.3501C65.0972 33.7008 67.6404 34.7646 69.659 36.4326C70.6875 37.2548 71.5774 38.2066 72.2994 39.2469C73.0244 40.2901 73.602 41.3569 74.0352 42.4472C74.9251 44.6751 75.1491 47.0473 74.9693 49.1632C74.7896 51.2791 74.1413 53.118 73.3338 54.671C72.5293 56.2211 71.5657 57.3822 70.6551 58.2485C70.2101 58.7024 69.7621 59.0501 69.3967 59.3566C69.0313 59.6601 68.6836 59.9018 68.3977 60.0579C67.8437 60.4086 67.5166 60.5884 67.5166 60.5884C70.0922 62.6954 73.3633 64.3192 77.0469 65.1384C80.7276 65.9547 84.7825 65.9871 88.9937 65.1384C92.5742 57.833 93.2195 49.6229 91.1597 42.2969C90.14 38.6546 88.4603 35.2627 86.3415 32.4307C84.1991 29.5574 81.5262 27.0761 78.6029 25.2108C72.6914 21.4593 65.8398 20.1833 59.5423 21.2059C56.3861 21.7481 53.4156 22.8297 50.7929 24.3591C48.2085 25.865 45.9777 27.8188 44.1535 30.135C42.3471 32.3894 40.9915 34.9827 40.1605 37.5583C39.3471 40.1752 39.0406 42.8392 39.1673 45.4236C39.3353 47.9874 39.963 50.5159 41.0209 52.7585C42.0759 54.9981 43.4345 56.9165 45.0965 58.5138C46.7586 60.108 48.68 61.4017 50.7133 62.2121C52.7025 63.0432 54.786 63.4557 56.7722 63.494C58.7554 63.5324 60.7505 63.1935 62.5039 62.5098C64.2367 61.888 65.7927 60.9361 67.0716 59.7662Z" fill="#0059BF"/>
</g>
</g>
</g>
<mask id="mask6_11_319" style="mask-type:luminance" maskUnits="userSpaceOnUse" x="57" y="40" width="16" height="15">
<path d="M57.7034 40.738H72.7916V54.3174H57.7034V40.738Z" fill="white"/>
</mask>
<g mask="url(#mask6_11_319)">
<mask id="mask7_11_319" style="mask-type:luminance" maskUnits="userSpaceOnUse" x="3" y="-17" width="125" height="126">
<path d="M47.3451 108.001L3.29468 26.7638L83.3975 -16.6736L127.451 64.5638L47.3451 108.001Z" fill="white"/>
</mask>
<g mask="url(#mask7_11_319)">
<mask id="mask8_11_319" style="mask-type:luminance" maskUnits="userSpaceOnUse" x="3" y="-17" width="125" height="125">
<path d="M3.26813 26.7166L47.3185 107.954L127.424 64.5166L83.3739 -16.7208L3.26813 26.7166Z" fill="white"/>
</mask>
<g mask="url(#mask8_11_319)">
<path d="M60.3497 47.3744C60.3497 47.3744 60.3497 47.3744 60.3733 47.4157C60.3733 47.4157 60.3733 47.4157 60.3939 47.454C60.3939 47.454 60.4146 47.3921 60.3733 47.4157C60.3733 47.4157 60.332 47.4363 60.4146 47.3921C60.4558 47.3685 60.4146 47.3921 60.3733 47.4157L60.332 47.4363C60.3733 47.4157 60.3939 47.454 60.332 47.4363L60.3527 47.4776C60.3762 47.5188 60.3762 47.5188 60.3527 47.4776C60.3527 47.4776 60.3527 47.4776 60.3939 47.454C60.3939 47.454 60.3939 47.454 60.3527 47.4776C60.3527 47.4776 60.2731 47.5218 60.3144 47.5011L60.3527 47.4776C60.2908 47.4599 60.4175 47.4952 60.3762 47.5188C60.3939 47.454 60.3497 47.3744 60.3497 47.3744L60.3733 47.4157L60.5236 47.5984C60.7446 47.9019 61.0039 48.1878 61.2868 48.5119C61.8055 49.0807 62.3684 49.6259 62.9695 50.1475C65.3565 52.1985 68.2681 53.6484 71.548 54.3114C72.5087 51.1877 72.155 48.0876 70.9055 45.6858C69.6561 43.2841 67.6404 41.7222 65.6158 41.1211C63.5677 40.4786 61.5963 40.8559 60.2672 41.737C58.9175 42.5739 58.2309 43.956 58.2073 45.0847C58.1808 46.2133 58.838 47.1298 59.6189 47.398C59.8104 47.454 60.0403 47.4893 60.2495 47.4805C60.2908 47.4599 60.3527 47.4776 60.3939 47.454C60.4352 47.4334 60.4352 47.4334 60.4352 47.4334L60.4764 47.4098C60.5177 47.3891 60.4352 47.4334 60.4352 47.4334C60.3762 47.5188 60.4558 47.3685 60.4352 47.4334C60.3733 47.4157 60.3998 47.5601 60.3497 47.3744Z" fill="#0059BF"/>
</g>
</g>
</g>
<mask id="mask9_11_319" style="mask-type:luminance" maskUnits="userSpaceOnUse" x="59" y="46" width="2" height="2">
<path d="M59.9666 46.7733H60.721V47.5277H59.9666V46.7733Z" fill="white"/>
</mask>
<g mask="url(#mask9_11_319)">
<mask id="mask10_11_319" style="mask-type:luminance" maskUnits="userSpaceOnUse" x="3" y="-17" width="125" height="126">
<path d="M47.345 108.001L3.29462 26.7638L83.3975 -16.6736L127.451 64.5638L47.345 108.001Z" fill="white"/>
</mask>
<g mask="url(#mask10_11_319)">
<mask id="mask11_11_319" style="mask-type:luminance" maskUnits="userSpaceOnUse" x="3" y="-17" width="125" height="125">
<path d="M3.26807 26.7166L47.3185 107.954L127.424 64.5166L83.3739 -16.7208L3.26807 26.7166Z" fill="white"/>
</mask>
<g mask="url(#mask11_11_319)">
<path d="M60.3497 47.3745C60.3497 47.3745 60.3497 47.3745 60.3732 47.4157C60.3732 47.4157 60.3732 47.4157 60.3939 47.454C60.3939 47.454 60.4145 47.3921 60.3732 47.4157C60.3732 47.4157 60.332 47.4363 60.4145 47.3921C60.4557 47.3686 60.4145 47.3921 60.3732 47.4157L60.332 47.4363C60.3732 47.4157 60.3939 47.454 60.332 47.4363L60.3526 47.4776C60.3762 47.5188 60.3762 47.5188 60.3526 47.4776C60.3526 47.4776 60.3526 47.4776 60.3939 47.454C60.3939 47.454 60.3939 47.454 60.3526 47.4776C60.3526 47.4776 60.273 47.5218 60.3143 47.5012L60.3526 47.4776C60.2907 47.4599 60.4174 47.4953 60.3762 47.5188C60.3939 47.454 60.3497 47.3745 60.3497 47.3745C60.3939 47.454 60.3939 47.454 60.3939 47.454C60.3939 47.454 60.3143 47.5012 60.3526 47.4776C60.4351 47.4334 60.4351 47.4334 60.4351 47.4334C60.3939 47.454 60.4174 47.4953 60.4351 47.4334L60.4587 47.4746C60.4587 47.4746 60.4587 47.4746 60.4351 47.4334C60.4145 47.3921 60.4145 47.3921 60.4145 47.3921C60.4145 47.3921 60.4764 47.4098 60.4351 47.4334L60.4764 47.4098C60.5176 47.3892 60.4351 47.4334 60.4351 47.4334C60.3762 47.5188 60.4557 47.3686 60.4351 47.4334C60.3732 47.4157 60.3998 47.5601 60.3497 47.3745Z" fill="#0059BF"/>
<path d="M60.3497 47.3745C60.3497 47.3745 60.3497 47.3745 60.3732 47.4157C60.3732 47.4157 60.3732 47.4157 60.3939 47.454C60.3939 47.454 60.4145 47.3921 60.3732 47.4157C60.3732 47.4157 60.332 47.4363 60.4145 47.3921C60.4557 47.3686 60.4145 47.3921 60.3732 47.4157L60.332 47.4363C60.3732 47.4157 60.3939 47.454 60.332 47.4363L60.3526 47.4776C60.3762 47.5188 60.3762 47.5188 60.3526 47.4776C60.3526 47.4776 60.3526 47.4776 60.3939 47.454C60.3939 47.454 60.3939 47.454 60.3526 47.4776C60.3526 47.4776 60.273 47.5218 60.3143 47.5012L60.3526 47.4776C60.2907 47.4599 60.4174 47.4953 60.3762 47.5188C60.3939 47.454 60.3497 47.3745 60.3497 47.3745C60.3939 47.454 60.3939 47.454 60.3939 47.454C60.3939 47.454 60.3143 47.5012 60.3526 47.4776C60.4351 47.4334 60.4351 47.4334 60.4351 47.4334C60.3939 47.454 60.4174 47.4953 60.4351 47.4334L60.4587 47.4746C60.4587 47.4746 60.4587 47.4746 60.4351 47.4334C60.4145 47.3921 60.4145 47.3921 60.4145 47.3921C60.4145 47.3921 60.4764 47.4098 60.4351 47.4334L60.4764 47.4098C60.5176 47.3892 60.4351 47.4334 60.4351 47.4334C60.3762 47.5188 60.4557 47.3686 60.4351 47.4334C60.3732 47.4157 60.3998 47.5601 60.3497 47.3745Z" fill="#0059BF"/>
</g>
</g>
</g>
<mask id="mask12_11_319" style="mask-type:luminance" maskUnits="userSpaceOnUse" x="0" y="73" width="134" height="21">
<path d="M0.368408 73.9409H133.899V93.9032H0.368408V73.9409Z" fill="white"/>
</mask>
<g mask="url(#mask12_11_319)">
<path d="M1.51477 93.5673C9.73665 89.3178 19.3259 88.3395 28.4407 88.1155C38.2539 87.865 48.0406 88.5074 57.8007 89.4004C67.6699 90.3257 77.5126 91.472 87.4083 92.1704C92.3297 92.5064 97.2805 92.7009 102.228 92.7274C106.87 92.7569 111.567 92.7834 116.208 92.2264C120.876 91.6665 125.547 90.3522 129.125 87.1371C132.257 84.314 134.523 80.0056 133.654 75.7296C133.292 73.9409 130.495 74.3593 130.495 76.1481C130.525 79.9496 129.042 83.1676 126.107 85.5723C122.807 88.2835 118.389 89.2324 114.278 89.7363C104.939 90.8267 95.4327 90.4642 86.0675 89.8218C67.054 88.478 48.0966 85.3749 29.0006 86.0468C19.2699 86.3532 9.42722 87.4731 0.954859 92.6184C0.341902 92.9808 0.872346 93.9032 1.51477 93.5673Z" fill="#0059BF"/>
</g>
<path d="M5.2072 87.3611C13.5381 84.314 22.149 83.5861 30.9573 83.5301C31.4317 83.5301 31.5997 82.7197 31.0693 82.6637C22.261 81.3494 13.0902 83.4446 5.00976 86.9957C4.84178 87.0811 4.98323 87.4436 5.2072 87.3611Z" fill="#0059BF"/>
<path d="M125.854 92.253C129.069 91.805 132.033 90.2697 134.27 87.9475C135.416 86.7747 136.395 85.4309 137.067 83.9486C137.626 82.7757 138.661 80.6775 137.821 79.4752C137.429 78.9153 136.76 78.8327 136.256 79.2807C135.304 80.0911 135.446 81.9358 135.054 83.1117C134.606 84.4525 133.963 85.7108 133.153 86.8572C131.335 89.3444 128.736 91.1626 125.771 91.973C125.574 92.0025 125.659 92.2824 125.854 92.253Z" fill="#0059BF"/>
<path d="M5.32513 94.8786C8.41644 93.7764 11.6433 93.1311 14.8996 92.8894C15.5715 92.8364 15.5715 91.7608 14.8996 91.8403C11.4842 92.1085 8.23078 92.9425 5.05696 94.2863C4.7328 94.4218 4.97445 95.0141 5.32513 94.8786Z" fill="#0059BF"/>
<mask id="mask13_11_319" style="mask-type:luminance" maskUnits="userSpaceOnUse" x="0" y="86" width="136" height="11">
<path d="M0 86.0026H135.408V96.4169H0V86.0026Z" fill="white"/>
</mask>
<g mask="url(#mask13_11_319)">
<path d="M133.062 86.7039C130.937 89.9307 127.2 91.6252 123.57 92.6213C119.267 93.803 114.803 94.1271 110.365 94.0977C101.167 94.0181 91.917 92.6478 82.7727 91.6782C64.0834 89.7156 45.2851 87.6439 26.4632 87.915C22.2933 87.9946 18.0704 88.1007 13.93 88.6135C4.51758 89.9573 1.07559 92.8364 0.860467 93.022C0.645343 93.2106 0.430218 93.3992 0.241616 93.5878C-3.02345e-05 93.803 0.241616 94.2332 0.565776 94.1271C4.3555 92.8069 8.09513 91.5722 12.0735 90.9268C16.4054 90.2254 20.7875 90.0928 25.1725 90.0103C34.8 89.8217 44.4541 90.2814 54.0522 91.0329C63.5736 91.7873 73.0656 92.8629 82.5311 93.9385C91.8374 94.9876 101.25 96.464 110.633 96.4375C118.81 96.4375 130.023 95.3884 134.918 87.7795C135.67 86.6243 133.816 85.5752 133.062 86.7039Z" fill="#0059BF"/>
</g>
<path d="M161.61 37.2389L162.117 36.8617C162.768 36.4845 163.228 36.2959 163.496 36.2959C164.092 36.2959 164.734 36.8322 165.418 37.899C165.842 38.568 166.054 39.1014 166.054 39.5021C166.054 39.9029 165.925 40.2389 165.665 40.5041C165.406 40.7723 165.102 41.011 164.758 41.2231C164.41 41.4353 164.08 41.6357 163.767 41.8243C163.452 42.0129 162.807 42.2605 161.834 42.5669C160.859 42.8734 159.916 43.0266 159.005 43.0266C158.1 43.0266 157.184 42.9088 156.259 42.673C155.33 42.4373 154.373 42.0365 153.382 41.4707C152.398 40.9049 151.514 40.2182 150.73 39.4078C149.952 38.5915 149.307 37.5513 148.797 36.2841C148.293 35.0111 148.043 33.629 148.043 32.1349C148.043 30.6437 148.29 29.2911 148.785 28.0799C149.28 26.8629 149.911 25.858 150.683 25.0623C151.461 24.2696 152.348 23.6065 153.347 23.0702C155.215 22.0417 157.099 21.526 158.993 21.526C159.895 21.526 160.812 21.6645 161.74 21.9386C162.665 22.2156 163.367 22.4985 163.838 22.7873L164.534 23.1881C164.878 23.3943 165.147 23.5623 165.335 23.6949C165.83 24.1045 166.078 24.5643 166.078 25.0741C166.078 25.578 165.877 26.1055 165.477 26.6536C164.728 27.685 164.062 28.1978 163.473 28.1978C163.125 28.1978 162.639 27.9915 162.011 27.5731C161.209 26.9218 160.137 26.5947 158.793 26.5947C157.549 26.5947 156.329 27.0279 155.127 27.8913C154.552 28.3098 154.072 28.9021 153.689 29.6713C153.303 30.4345 153.111 31.2979 153.111 32.2645C153.111 33.2311 153.303 34.0975 153.689 34.8578C154.072 35.6211 154.561 36.2222 155.151 36.6613C156.321 37.5041 157.535 37.9226 158.793 37.9226C159.388 37.9226 159.948 37.8489 160.467 37.6986C160.991 37.5424 161.374 37.3892 161.61 37.2389Z" fill="#0059BF"/>
<path d="M177.743 29.2351C177.861 28.1684 178.618 27.632 180.018 27.632C180.755 27.632 181.306 27.691 181.668 27.8088C182.037 27.9208 182.293 28.1212 182.434 28.41C182.576 28.6929 182.661 28.9463 182.694 29.1644C182.723 29.3854 182.741 29.7155 182.741 30.1546V40.1859C182.741 40.6279 182.723 40.9579 182.694 41.176C182.661 41.397 182.579 41.6534 182.446 41.9422C182.178 42.4373 181.521 42.6848 180.478 42.6848C179.44 42.6848 178.745 42.5552 178.391 42.2958C178.038 42.0365 177.831 41.6593 177.778 41.1642C177.071 42.178 175.886 42.6848 174.23 42.6848C172.58 42.6848 171.048 41.9304 169.633 40.4216C168.219 38.9128 167.511 37.1623 167.511 35.1643C167.511 33.1604 168.221 31.41 169.645 29.907C171.065 28.4071 172.63 27.6556 174.336 27.6556C174.988 27.6556 175.58 27.7735 176.116 28.0092C176.65 28.2391 177.018 28.4542 177.224 28.6575C177.436 28.855 177.607 29.0465 177.743 29.2351ZM172.533 35.1997C172.533 35.8303 172.78 36.3991 173.275 36.9089C173.771 37.4128 174.372 37.6633 175.079 37.6633C175.786 37.6633 176.37 37.4099 176.835 36.8971C177.307 36.3784 177.543 35.8097 177.543 35.1879C177.543 34.569 177.319 33.9914 176.871 33.4551C176.423 32.9217 175.822 32.6536 175.067 32.6536C174.313 32.6536 173.7 32.9217 173.228 33.4551C172.763 33.9914 172.533 34.572 172.533 35.1997Z" fill="#0059BF"/>
<path d="M195.292 27.8089C195.66 27.9208 195.963 28.1153 196.199 28.3982C196.435 28.6753 196.553 29.1173 196.553 29.7303C196.553 30.3373 196.37 31.0033 196.011 31.7341C195.648 32.4591 195.121 32.8186 194.431 32.8186C194.092 32.8186 193.762 32.7449 193.441 32.5946C193.126 32.4385 192.71 32.3589 192.191 32.3589C191.679 32.3589 191.201 32.5445 190.753 32.9129C190.305 33.2754 190.081 33.7115 190.081 34.2213V40.2448C190.081 40.6869 190.064 41.0169 190.034 41.235C190.002 41.456 189.91 41.7124 189.763 42.0012C189.471 42.4963 188.726 42.7438 187.523 42.7438C186.604 42.7438 185.944 42.5847 185.543 42.2605C185.237 41.9953 185.063 41.5827 185.025 41.0228C185.025 40.8342 185.025 40.5572 185.025 40.1859V30.1192C185.025 29.689 185.039 29.3619 185.072 29.1409C185.101 28.9228 185.184 28.6782 185.319 28.41C185.584 27.8914 186.327 27.6321 187.547 27.6321C188.693 27.6321 189.412 27.8531 189.704 28.2922C189.916 28.5986 190.022 28.914 190.022 29.2352C190.117 29.1026 190.252 28.9405 190.435 28.7519C190.615 28.5574 191.001 28.2981 191.59 27.9739C192.185 27.6527 192.71 27.4906 193.158 27.4906C193.606 27.4906 193.983 27.5142 194.29 27.5613C194.596 27.6085 194.929 27.691 195.292 27.8089Z" fill="#0059BF"/>
<path d="M207.935 29.2351C208.053 28.1684 208.81 27.632 210.21 27.632C210.947 27.632 211.498 27.691 211.86 27.8088C212.229 27.9208 212.485 28.1212 212.627 28.41C212.768 28.6929 212.854 28.9463 212.886 29.1644C212.915 29.3854 212.933 29.7155 212.933 30.1546V40.1859C212.933 40.6279 212.915 40.9579 212.886 41.176C212.854 41.397 212.771 41.6534 212.638 41.9422C212.37 42.4373 211.713 42.6848 210.67 42.6848C209.633 42.6848 208.937 42.5552 208.583 42.2958C208.23 42.0365 208.024 41.6593 207.971 41.1642C207.263 42.178 206.079 42.6848 204.422 42.6848C202.772 42.6848 201.24 41.9304 199.825 40.4216C198.411 38.9128 197.703 37.1623 197.703 35.1643C197.703 33.1604 198.414 31.41 199.837 29.907C201.257 28.4071 202.822 27.6556 204.529 27.6556C205.18 27.6556 205.772 27.7735 206.308 28.0092C206.842 28.2391 207.21 28.4542 207.417 28.6575C207.629 28.855 207.8 29.0465 207.935 29.2351ZM202.725 35.1997C202.725 35.8303 202.973 36.3991 203.468 36.9089C203.963 37.4128 204.564 37.6633 205.271 37.6633C205.978 37.6633 206.562 37.4099 207.028 36.8971C207.499 36.3784 207.735 35.8097 207.735 35.1879C207.735 34.569 207.511 33.9914 207.063 33.4551C206.615 32.9217 206.014 32.6536 205.259 32.6536C204.505 32.6536 203.892 32.9217 203.42 33.4551C202.955 33.9914 202.725 34.572 202.725 35.1997Z" fill="#0059BF"/>
<path d="M219.955 35.1879C219.955 35.9983 220.221 36.6319 220.757 37.0857C221.29 37.5336 221.856 37.7576 222.454 37.7576C223.058 37.7576 223.624 37.5808 224.152 37.2271C224.676 36.8735 225.101 36.6967 225.425 36.6967C225.996 36.6967 226.698 37.2036 227.523 38.2173C227.962 38.7684 228.183 39.2635 228.183 39.7026C228.183 40.4334 227.656 41.1141 226.604 41.7418C225.519 42.5051 224.181 42.8852 222.596 42.8852C220.81 42.8852 219.098 42.2457 217.456 40.9638C216.67 40.3509 216.03 39.5346 215.535 38.512C215.04 37.4924 214.792 36.3637 214.792 35.129C214.792 33.8971 215.04 32.7803 215.535 31.7813C216.03 30.7764 216.67 29.966 217.456 29.353C219.042 28.0888 220.736 27.4552 222.537 27.4552C223.259 27.4552 223.963 27.5583 224.647 27.7617C225.336 27.9591 225.849 28.1566 226.179 28.3511L226.639 28.634C226.975 28.8638 227.243 29.0436 227.44 29.1762C227.936 29.5622 228.183 29.9984 228.183 30.4846C228.183 30.9738 227.983 31.5219 227.582 32.1349C226.889 33.1899 226.229 33.7144 225.602 33.7144C225.239 33.7144 224.723 33.5023 224.057 33.0779C223.71 32.7567 223.215 32.5946 222.572 32.5946C221.936 32.5946 221.337 32.8274 220.78 33.2901C220.229 33.7469 219.955 34.3804 219.955 35.1879Z" fill="#0059BF"/>
<path d="M229.616 35.1997C229.616 32.907 230.418 31.0151 232.021 29.5298C233.63 28.0387 235.466 27.2902 237.526 27.2902C239.591 27.2902 241.418 28.0328 243.007 29.518C244.592 30.9974 245.388 32.8834 245.388 35.1761C245.388 36.7645 244.975 38.176 244.15 39.4078C243.331 40.6338 242.335 41.5414 241.156 42.1308C239.977 42.7143 238.754 43.0031 237.49 43.0031C236.232 43.0031 235.009 42.6937 233.824 42.0719C232.645 41.453 231.646 40.5365 230.83 39.3253C230.02 38.1083 229.616 36.7321 229.616 35.1997ZM235.604 37.2507C236.217 37.7222 236.836 37.958 237.467 37.958C238.103 37.958 238.734 37.7193 239.364 37.2389C239.992 36.7615 240.307 36.0543 240.307 35.1172C240.307 34.183 240.007 33.4875 239.412 33.0307C238.822 32.5681 238.18 32.3353 237.49 32.3353C236.806 32.3353 236.164 32.5769 235.569 33.0543C234.979 33.5258 234.685 34.2272 234.685 35.1525C234.685 36.0808 234.991 36.7792 235.604 37.2507Z" fill="#0059BF"/>
<path d="M247.244 23.0466C247.244 22.6075 247.259 22.2775 247.291 22.0564C247.321 21.8384 247.403 21.582 247.539 21.2903C247.804 20.7716 248.546 20.5123 249.767 20.5123C250.936 20.5123 251.664 20.7716 251.947 21.2903C252.103 21.582 252.195 21.8413 252.218 22.0682C252.248 22.2981 252.265 22.6311 252.265 23.0702V36.3431C252.265 37.0356 252.319 37.4717 252.431 37.6515C252.548 37.8342 252.802 37.9226 253.197 37.9226C253.589 37.9226 253.851 37.9403 253.986 37.9698C254.119 38.0022 254.281 38.0847 254.47 38.2173C254.853 38.4619 255.047 39.1367 255.047 40.2448C255.047 41.4559 254.853 42.1956 254.47 42.4608C253.975 42.7968 252.79 42.8528 250.922 42.6259C249.442 42.4373 248.485 41.951 248.046 41.1642C247.509 40.23 247.244 38.7418 247.244 36.6967V23.0466Z" fill="#0059BF"/>
<path d="M148.467 49.1281C148.467 48.689 148.482 48.3589 148.514 48.1379C148.544 47.9199 148.626 47.6635 148.762 47.3717C149.027 46.8531 149.77 46.5938 150.99 46.5938C152.159 46.5938 152.887 46.8531 153.17 47.3717C153.326 47.6635 153.418 47.9228 153.441 48.1497C153.471 48.3796 153.489 48.7126 153.489 49.1517V62.4245C153.489 63.1171 153.542 63.5532 153.654 63.733C153.771 63.9157 154.025 64.0041 154.42 64.0041C154.812 64.0041 155.074 64.0218 155.21 64.0512C155.342 64.0837 155.504 64.1662 155.693 64.2988C156.076 64.5434 156.27 65.2182 156.27 66.3263C156.27 67.5374 156.076 68.2771 155.693 68.5423C155.198 68.8783 154.013 68.9343 152.145 68.7074C150.665 68.5187 149.708 68.0325 149.269 67.2457C148.732 66.3115 148.467 64.8233 148.467 62.7782V49.1281Z" fill="#0059BF"/>
<path d="M157.419 61.2811C157.419 58.9885 158.22 57.0965 159.823 55.6113C161.432 54.1202 163.268 53.3716 165.328 53.3716C167.394 53.3716 169.221 54.1143 170.809 55.5995C172.395 57.0789 173.19 58.9649 173.19 61.2576C173.19 62.846 172.778 64.2575 171.953 65.4893C171.133 66.7152 170.137 67.6229 168.959 68.2123C167.78 68.7958 166.557 69.0846 165.293 69.0846C164.034 69.0846 162.811 68.7751 161.627 68.1533C160.448 67.5345 159.449 66.618 158.633 65.4068C157.822 64.1897 157.419 62.8135 157.419 61.2811ZM163.407 63.3322C164.02 63.8037 164.639 64.0395 165.269 64.0395C165.906 64.0395 166.536 63.8008 167.167 63.3204C167.795 62.843 168.11 62.1357 168.11 61.1986C168.11 60.2645 167.809 59.569 167.214 59.1122C166.625 58.6496 165.982 58.4168 165.293 58.4168C164.609 58.4168 163.967 58.6584 163.371 59.1358C162.782 59.6073 162.487 60.3087 162.487 61.234C162.487 62.1623 162.794 62.8607 163.407 63.3322Z" fill="#0059BF"/>
<path d="M184.63 66.9274C183.899 67.8881 182.738 68.3655 181.152 68.3655C179.573 68.3655 178.088 67.6347 176.697 66.173C175.312 64.7113 174.622 63.008 174.622 61.0572C174.622 59.1004 175.318 57.3883 176.708 55.9178C178.105 54.4502 179.638 53.7135 181.306 53.7135C181.948 53.7135 182.537 53.8372 183.074 54.0789C183.616 54.3146 183.984 54.5357 184.182 54.739C184.385 54.9364 184.541 55.1221 184.653 55.293C184.715 54.7596 184.913 54.3559 185.243 54.0789C185.579 53.796 186.121 53.6545 186.869 53.6545C187.615 53.6545 188.157 53.7135 188.496 53.8314C188.841 53.9433 189.085 54.1378 189.227 54.4207C189.374 54.6977 189.463 54.9394 189.486 55.1516C189.516 55.3579 189.533 55.6791 189.533 56.1182V67.9883C189.533 70.1867 188.767 71.9607 187.235 73.3045C185.708 74.6542 183.987 75.332 182.072 75.332C180.616 75.332 179.231 74.9784 177.911 74.2711C176.596 73.5639 175.942 72.9214 175.942 72.3497C175.942 71.6012 176.228 70.9411 176.803 70.3694C177.162 69.9686 177.442 69.6887 177.64 69.5325C177.843 69.3822 178.079 69.3085 178.347 69.3085C178.612 69.3085 178.892 69.4264 179.184 69.6621C180.094 70.3694 181.088 70.723 182.166 70.723C182.888 70.723 183.478 70.4342 183.934 69.8625C184.397 69.2879 184.63 68.5983 184.63 67.7879V66.9274ZM179.526 61.069C179.526 61.6908 179.767 62.2477 180.257 62.7428C180.743 63.2379 181.335 63.4854 182.036 63.4854C182.735 63.4854 183.313 63.2349 183.769 62.731C184.223 62.23 184.453 61.676 184.453 61.069C184.453 60.4648 184.232 59.899 183.793 59.3715C183.351 58.847 182.758 58.5818 182.013 58.5818C181.273 58.5818 180.672 58.8411 180.209 59.3598C179.753 59.8784 179.526 60.4501 179.526 61.069Z" fill="#0059BF"/>
<path d="M148.231 84.4304H153.936C154.155 84.4304 154.317 84.4598 154.42 84.5129C154.52 84.56 154.588 84.6396 154.62 84.7486C154.658 84.8606 154.679 85.005 154.679 85.1848C154.679 85.3586 154.658 85.5001 154.62 85.6091C154.588 85.7123 154.529 85.783 154.443 85.8213C154.325 85.8861 154.152 85.9156 153.925 85.9156H151.968V91.0786C151.968 91.2377 151.959 91.3556 151.944 91.4322C151.936 91.5029 151.903 91.5913 151.85 91.6915C151.803 91.7947 151.712 91.8654 151.579 91.9037C151.452 91.945 151.284 91.9627 151.072 91.9627C150.86 91.9627 150.689 91.945 150.565 91.9037C150.438 91.8654 150.347 91.7947 150.294 91.6915C150.247 91.5913 150.215 91.5 150.2 91.4204C150.191 91.3438 150.188 91.2259 150.188 91.0668V85.9156H148.219C147.998 85.9156 147.836 85.892 147.736 85.8449C147.633 85.7918 147.562 85.7093 147.524 85.5973C147.492 85.4883 147.477 85.3468 147.477 85.173C147.477 84.9932 147.492 84.8518 147.524 84.7486C147.562 84.6396 147.621 84.5659 147.701 84.5247C147.825 84.4628 148.001 84.4304 148.231 84.4304Z" fill="#0059BF"/>
<path d="M158.905 86.6112C159.037 86.6524 159.146 86.7231 159.235 86.8233C159.32 86.9265 159.364 87.0886 159.364 87.3066C159.364 87.5188 159.297 87.7604 159.164 88.0257C159.037 88.285 158.852 88.4147 158.61 88.4147C158.483 88.4147 158.362 88.3881 158.245 88.3321C158.133 88.2791 157.985 88.2496 157.797 88.2496C157.614 88.2496 157.443 88.3174 157.278 88.45C157.119 88.5767 157.042 88.73 157.042 88.9097V91.0669C157.042 91.226 157.036 91.3439 157.03 91.4205C157.022 91.5001 156.989 91.5914 156.936 91.6916C156.824 91.8743 156.559 91.9627 156.135 91.9627C155.805 91.9627 155.569 91.9038 155.427 91.7859C155.315 91.6916 155.254 91.5472 155.239 91.3498C155.239 91.2791 155.239 91.1789 155.239 91.0433V87.4481C155.239 87.2919 155.242 87.174 155.251 87.0944C155.256 87.0178 155.289 86.9265 155.345 86.8233C155.439 86.6436 155.701 86.5522 156.135 86.5522C156.55 86.5522 156.809 86.6318 156.913 86.788C156.983 86.9 157.019 87.0119 157.019 87.1298C157.057 87.0827 157.107 87.0237 157.172 86.953C157.234 86.8823 157.372 86.7939 157.585 86.6819C157.797 86.564 157.979 86.5051 158.139 86.5051C158.304 86.5051 158.439 86.5139 158.551 86.5286C158.66 86.5463 158.778 86.5728 158.905 86.6112Z" fill="#0059BF"/>
<path d="M163.442 87.1297C163.48 86.7466 163.751 86.5521 164.255 86.5521C164.521 86.5521 164.718 86.5728 164.845 86.6111C164.977 86.6523 165.069 86.726 165.116 86.835C165.169 86.9382 165.201 87.0295 165.21 87.1061C165.216 87.1857 165.222 87.3036 165.222 87.4598V91.0432C165.222 91.2082 165.216 91.332 165.21 91.4086C165.201 91.4882 165.175 91.5796 165.128 91.6797C165.024 91.8536 164.786 91.9391 164.409 91.9391C164.037 91.9391 163.79 91.8978 163.666 91.8094C163.539 91.7151 163.468 91.5796 163.454 91.3968C163.194 91.7593 162.77 91.9391 162.181 91.9391C161.591 91.9391 161.04 91.6739 160.53 91.1375C160.026 90.5953 159.776 89.9676 159.776 89.2515C159.776 88.5383 160.029 87.9136 160.542 87.3773C161.052 86.835 161.609 86.5639 162.216 86.5639C162.452 86.5639 162.664 86.6081 162.853 86.6936C163.041 86.7731 163.174 86.8468 163.253 86.9175C163.33 86.9883 163.395 87.059 163.442 87.1297ZM161.568 89.2633C161.568 89.4931 161.653 89.6965 161.827 89.8762C162.007 90.0589 162.222 90.1474 162.475 90.1474C162.735 90.1474 162.947 90.0589 163.112 89.8762C163.283 89.6876 163.371 89.4843 163.371 89.2633C163.371 89.0364 163.289 88.8271 163.124 88.6385C162.965 88.444 162.749 88.3438 162.475 88.3438C162.207 88.3438 161.986 88.444 161.815 88.6385C161.65 88.8271 161.568 89.0364 161.568 89.2633Z" fill="#0059BF"/>
<path d="M169.052 86.5521C169.736 86.5521 170.305 86.8173 170.761 87.3419C171.215 87.8606 171.445 88.4971 171.445 89.2515V91.055C171.445 91.2141 171.436 91.332 171.421 91.4086C171.413 91.4882 171.386 91.5796 171.339 91.6797C171.245 91.8625 170.976 91.9509 170.537 91.9509C170.048 91.9509 169.771 91.8271 169.7 91.5737C169.659 91.4558 169.642 91.279 169.642 91.0432V89.2397C169.642 88.9568 169.559 88.7387 169.394 88.5796C169.235 88.4234 169.02 88.3438 168.746 88.3438C168.477 88.3438 168.256 88.4264 168.086 88.5914C167.921 88.7564 167.838 88.9745 167.838 89.2397V91.055C167.838 91.2141 167.832 91.332 167.826 91.4086C167.817 91.4882 167.785 91.5796 167.732 91.6797C167.638 91.8625 167.372 91.9509 166.942 91.9509C166.509 91.9509 166.247 91.8625 166.152 91.6797C166.096 91.5796 166.064 91.4882 166.058 91.4086C166.049 91.332 166.046 91.2082 166.046 91.0432V87.4126C166.046 87.2653 166.049 87.1503 166.058 87.0708C166.064 86.9942 166.096 86.9058 166.152 86.8115C166.253 86.6405 166.518 86.5521 166.942 86.5521C167.367 86.5521 167.626 86.6317 167.72 86.7879C167.791 86.9058 167.826 87.0472 167.826 87.2122C167.85 87.1651 167.909 87.1002 168.003 87.0118C168.097 86.9175 168.192 86.8439 168.286 86.7879C168.513 86.6317 168.769 86.5521 169.052 86.5521Z" fill="#0059BF"/>
<path d="M172.301 91.4794C172.175 91.4027 172.113 91.2731 172.113 91.0904C172.113 90.9106 172.242 90.6395 172.502 90.277C172.572 90.1591 172.69 90.1002 172.855 90.1002C173.026 90.1002 173.256 90.1886 173.539 90.3595C173.828 90.5246 174.093 90.6071 174.329 90.6071C174.744 90.6071 174.954 90.5246 174.954 90.3595C174.954 90.2358 174.724 90.1415 174.27 90.0766C173.837 90.0148 173.409 89.8527 172.985 89.5933C172.788 89.4696 172.623 89.2751 172.49 89.0157C172.354 88.7505 172.29 88.4352 172.29 88.0727C172.29 86.9883 173.032 86.446 174.517 86.446C175.004 86.446 175.508 86.5639 176.026 86.7997C176.262 86.9117 176.38 87.0472 176.38 87.2122C176.38 87.3773 176.303 87.5836 176.156 87.8252C176.006 88.061 175.852 88.1788 175.696 88.1788C175.608 88.1788 175.454 88.1287 175.236 88.0256C175.015 87.9166 174.777 87.8606 174.517 87.8606C174.108 87.8606 173.904 87.9401 173.904 88.0963C173.904 88.3026 174.134 88.4352 174.6 88.4971C175.054 88.5442 175.496 88.6739 175.92 88.8861C176.115 88.9804 176.28 89.1454 176.415 89.3812C176.548 89.6169 176.616 89.9175 176.616 90.277C176.616 90.6307 176.548 90.9342 176.415 91.1847C176.28 91.4293 176.097 91.6149 175.861 91.7387C175.419 91.9509 174.871 92.057 174.211 92.057C173.551 92.057 172.914 91.8654 172.301 91.4794Z" fill="#0059BF"/>
<path d="M177.285 93.4361V87.4362C177.285 87.28 177.288 87.1651 177.297 87.0944C177.302 87.0177 177.335 86.9264 177.391 86.8232C177.485 86.6435 177.712 86.5521 178.075 86.5521C178.434 86.5521 178.679 86.5993 178.805 86.6936C178.929 86.782 179.006 86.9146 179.029 87.0944C179.289 86.7407 179.695 86.5639 180.255 86.5639C180.812 86.5639 181.34 86.8291 181.835 87.3537C182.336 87.8812 182.589 88.4941 182.589 89.1926C182.589 89.8939 182.342 90.5069 181.847 91.0314C181.352 91.5589 180.821 91.8212 180.255 91.8212C179.695 91.8212 179.292 91.665 179.041 91.3497V93.4243C179.041 93.5805 179.032 93.6954 179.018 93.7662C179.009 93.8428 178.976 93.9312 178.923 94.0255C178.876 94.1257 178.788 94.1964 178.664 94.2377C178.546 94.2848 178.381 94.3084 178.169 94.3084C177.957 94.3084 177.786 94.2848 177.662 94.2377C177.535 94.1964 177.444 94.1316 177.391 94.0373C177.335 93.943 177.302 93.8546 177.297 93.7779C177.288 93.7072 177.285 93.5923 177.285 93.4361ZM179.312 88.6032C179.153 88.7859 179.077 88.9863 179.077 89.2043C179.077 89.4254 179.153 89.6258 179.312 89.8055C179.477 89.9882 179.684 90.0766 179.937 90.0766C180.187 90.0766 180.4 89.9882 180.574 89.8055C180.744 89.6258 180.833 89.4254 180.833 89.2043C180.833 88.9774 180.75 88.7741 180.585 88.5914C180.42 88.4116 180.202 88.3203 179.937 88.3203C179.678 88.3203 179.468 88.4146 179.312 88.6032Z" fill="#0059BF"/>
<path d="M183.105 89.2634C183.105 88.4382 183.391 87.7634 183.965 87.2359C184.537 86.7025 185.194 86.4343 185.934 86.4343C186.671 86.4343 187.325 86.7025 187.891 87.2359C188.462 87.7634 188.751 88.4353 188.751 89.2516C188.751 89.8174 188.601 90.3242 188.303 90.7722C188.012 91.2142 187.655 91.5384 187.231 91.7505C186.812 91.9568 186.376 92.057 185.922 92.057C185.474 92.057 185.038 91.948 184.614 91.727C184.189 91.5001 183.83 91.17 183.541 90.7368C183.249 90.3066 183.105 89.8144 183.105 89.2634ZM185.25 90.006C185.468 90.171 185.689 90.2535 185.91 90.2535C186.137 90.2535 186.364 90.1681 186.594 89.9942C186.821 89.8233 186.936 89.5698 186.936 89.2398C186.936 88.9038 186.83 88.6504 186.618 88.4854C186.406 88.3203 186.173 88.2378 185.922 88.2378C185.678 88.2378 185.451 88.3262 185.239 88.4972C185.026 88.6622 184.92 88.9156 184.92 89.2516C184.92 89.5816 185.029 89.8351 185.25 90.006Z" fill="#0059BF"/>
<path d="M193.082 86.6112C193.215 86.6524 193.324 86.7231 193.412 86.8233C193.498 86.9265 193.542 87.0886 193.542 87.3066C193.542 87.5188 193.474 87.7604 193.342 88.0257C193.215 88.285 193.029 88.4147 192.788 88.4147C192.661 88.4147 192.54 88.3881 192.422 88.3321C192.31 88.2791 192.163 88.2496 191.974 88.2496C191.791 88.2496 191.621 88.3174 191.456 88.45C191.296 88.5767 191.22 88.73 191.22 88.9097V91.0669C191.22 91.226 191.214 91.3439 191.208 91.4205C191.199 91.5001 191.167 91.5914 191.114 91.6916C191.002 91.8743 190.736 91.9627 190.312 91.9627C189.982 91.9627 189.746 91.9038 189.605 91.7859C189.493 91.6916 189.431 91.5472 189.416 91.3498C189.416 91.2791 189.416 91.1789 189.416 91.0433V87.4481C189.416 87.2919 189.419 87.174 189.428 87.0944C189.434 87.0178 189.466 86.9265 189.522 86.8233C189.617 86.6436 189.879 86.5522 190.312 86.5522C190.728 86.5522 190.987 86.6318 191.09 86.788C191.161 86.9 191.196 87.0119 191.196 87.1298C191.235 87.0827 191.285 87.0237 191.349 86.953C191.411 86.8823 191.55 86.7939 191.762 86.6819C191.974 86.564 192.157 86.5051 192.316 86.5051C192.481 86.5051 192.617 86.5139 192.729 86.5286C192.838 86.5463 192.955 86.5728 193.082 86.6112Z" fill="#0059BF"/>
<path d="M197.242 88.3675L196.582 88.3321V89.7466C196.582 89.9294 196.609 90.062 196.665 90.1474C196.727 90.227 196.836 90.2653 196.995 90.2653C197.151 90.2653 197.272 90.2741 197.36 90.2889C197.446 90.2977 197.537 90.3301 197.631 90.3832C197.787 90.4716 197.867 90.6985 197.867 91.0669C197.867 91.5001 197.773 91.7623 197.584 91.8566C197.481 91.9038 197.39 91.9362 197.313 91.9509C197.233 91.9598 197.118 91.9627 196.971 91.9627C196.255 91.9627 195.713 91.8036 195.344 91.4794C194.973 91.1582 194.79 90.616 194.79 89.8527V88.3321C194.664 88.3498 194.522 88.3557 194.366 88.3557C194.216 88.3557 194.089 88.3027 193.989 88.1907C193.895 88.0728 193.847 87.8724 193.847 87.5895C193.847 87.3066 193.862 87.1033 193.895 86.9766C193.933 86.8528 193.983 86.7614 194.048 86.7054C194.157 86.62 194.289 86.5758 194.449 86.5758L194.79 86.6111V85.5502C194.79 85.3941 194.793 85.2791 194.802 85.2084C194.817 85.1318 194.852 85.0493 194.908 84.9609C194.994 84.7899 195.256 84.7015 195.698 84.7015C196.161 84.7015 196.435 84.8283 196.523 85.0787C196.562 85.1907 196.582 85.3675 196.582 85.6092V86.6111C196.88 86.5876 197.104 86.5758 197.254 86.5758C197.41 86.5758 197.528 86.5817 197.608 86.5876C197.684 86.5964 197.776 86.6288 197.879 86.6819C198.059 86.7762 198.15 87.0414 198.15 87.4716C198.15 87.9048 198.056 88.1671 197.867 88.2614C197.764 88.3174 197.672 88.3498 197.596 88.3557C197.516 88.3645 197.398 88.3675 197.242 88.3675Z" fill="#0059BF"/>
<path d="M203.925 88.615C203.925 89.0335 203.819 89.3429 203.607 89.5463C203.401 89.7525 203.174 89.8527 202.923 89.8527H200.495C200.495 90.0413 200.604 90.2034 200.825 90.336C201.052 90.4628 201.279 90.5246 201.509 90.5246C201.901 90.5246 202.21 90.4863 202.44 90.4068L202.558 90.3596C202.714 90.2889 202.847 90.2535 202.959 90.2535C203.177 90.2535 203.365 90.4068 203.524 90.7132C203.619 90.8959 203.666 91.0521 203.666 91.1847C203.666 91.7918 202.935 92.0924 201.473 92.0924C200.969 92.0924 200.521 92.004 200.13 91.8331C199.735 91.6621 199.428 91.4293 199.21 91.1376C198.777 90.5895 198.562 89.9706 198.562 89.2869C198.562 88.4235 198.839 87.731 199.399 87.2123C199.956 86.6937 200.651 86.4343 201.485 86.4343C202.434 86.4343 203.135 86.7732 203.583 87.4481C203.81 87.8017 203.925 88.1907 203.925 88.615ZM201.768 88.9097C202.027 88.9097 202.157 88.8007 202.157 88.5797C202.157 88.4235 202.092 88.2968 201.968 88.2025C201.851 88.1082 201.68 88.061 201.462 88.061C201.241 88.061 201.02 88.1524 200.801 88.3321C200.58 88.5148 200.471 88.7064 200.471 88.9097H201.768Z" fill="#0059BF"/>
<path d="M212.403 88.615C212.403 89.0335 212.297 89.3429 212.085 89.5463C211.878 89.7525 211.651 89.8527 211.401 89.8527H208.973C208.973 90.0413 209.082 90.2034 209.303 90.336C209.53 90.4628 209.756 90.5246 209.986 90.5246C210.378 90.5246 210.688 90.4863 210.918 90.4068L211.035 90.3596C211.192 90.2889 211.324 90.2535 211.436 90.2535C211.654 90.2535 211.843 90.4068 212.002 90.7132C212.096 90.8959 212.143 91.0521 212.143 91.1847C212.143 91.7918 211.413 92.0924 209.951 92.0924C209.447 92.0924 208.999 92.004 208.607 91.8331C208.212 91.6621 207.906 91.4293 207.688 91.1376C207.255 90.5895 207.039 89.9706 207.039 89.2869C207.039 88.4235 207.316 87.731 207.876 87.2123C208.433 86.6937 209.129 86.4343 209.963 86.4343C210.912 86.4343 211.613 86.7732 212.061 87.4481C212.288 87.8017 212.403 88.1907 212.403 88.615ZM210.246 88.9097C210.505 88.9097 210.635 88.8007 210.635 88.5797C210.635 88.4235 210.57 88.2968 210.446 88.2025C210.328 88.1082 210.157 88.061 209.939 88.061C209.718 88.061 209.497 88.1524 209.279 88.3321C209.058 88.5148 208.949 88.7064 208.949 88.9097H210.246Z" fill="#0059BF"/>
<path d="M217.486 90.4421H220.279C220.506 90.4421 220.671 90.4716 220.774 90.5246C220.875 90.5718 220.942 90.6513 220.975 90.7604C221.013 90.8724 221.034 91.0168 221.034 91.1965C221.034 91.3792 221.013 91.5236 220.975 91.6327C220.942 91.7446 220.883 91.8183 220.798 91.8566C220.671 91.9273 220.494 91.9627 220.268 91.9627H216.566C216.095 91.9627 215.815 91.833 215.729 91.5737C215.688 91.4647 215.67 91.2879 215.67 91.0433V85.3381C215.67 85.1819 215.673 85.064 215.682 84.9844C215.688 84.9078 215.72 84.8165 215.776 84.7133C215.877 84.5336 216.145 84.4422 216.578 84.4422C217.055 84.4422 217.344 84.5689 217.438 84.8194C217.468 84.9373 217.486 85.1141 217.486 85.3498V90.4421Z" fill="#0059BF"/>
<path d="M221.542 89.2634C221.542 88.4382 221.828 87.7634 222.402 87.2359C222.974 86.7025 223.631 86.4343 224.371 86.4343C225.108 86.4343 225.762 86.7025 226.328 87.2359C226.899 87.7634 227.188 88.4353 227.188 89.2516C227.188 89.8174 227.038 90.3242 226.74 90.7722C226.448 91.2142 226.092 91.5384 225.667 91.7505C225.249 91.9568 224.813 92.057 224.359 92.057C223.911 92.057 223.475 91.948 223.051 91.727C222.626 91.5001 222.267 91.17 221.978 90.7368C221.686 90.3066 221.542 89.8144 221.542 89.2634ZM223.687 90.006C223.905 90.171 224.126 90.2535 224.347 90.2535C224.574 90.2535 224.801 90.1681 225.031 89.9942C225.258 89.8233 225.373 89.5698 225.373 89.2398C225.373 88.9038 225.267 88.6504 225.054 88.4854C224.842 88.3203 224.609 88.2378 224.359 88.2378C224.114 88.2378 223.887 88.3262 223.675 88.4972C223.463 88.6622 223.357 88.9156 223.357 89.2516C223.357 89.5816 223.466 89.8351 223.687 90.006Z" fill="#0059BF"/>
<path d="M231.283 91.2908C231.024 91.6297 230.606 91.7977 230.034 91.7977C229.468 91.7977 228.938 91.5384 228.442 91.0197C227.947 90.4952 227.7 89.8822 227.7 89.1808C227.7 88.4824 227.947 87.8695 228.442 87.342C228.943 86.8174 229.495 86.5522 230.093 86.5522C230.32 86.5522 230.529 86.5964 230.717 86.6819C230.912 86.7703 231.048 86.8469 231.118 86.9176C231.189 86.9883 231.248 87.0561 231.295 87.118C231.31 86.9235 231.378 86.7762 231.495 86.6819C231.619 86.5817 231.817 86.5286 232.085 86.5286C232.35 86.5286 232.545 86.5522 232.662 86.5994C232.786 86.6406 232.875 86.7113 232.922 86.8115C232.975 86.9058 233.007 86.9942 233.016 87.0709C233.031 87.1416 233.04 87.2565 233.04 87.4127V91.668C233.04 92.4519 232.763 93.0855 232.215 93.5658C231.663 94.0521 231.048 94.2967 230.364 94.2967C229.845 94.2967 229.35 94.167 228.879 93.9077C228.407 93.6543 228.171 93.4273 228.171 93.224C228.171 92.9558 228.272 92.7201 228.478 92.5167C228.61 92.3753 228.714 92.2751 228.784 92.2221C228.855 92.1661 228.938 92.1395 229.032 92.1395C229.126 92.1395 229.223 92.1778 229.327 92.2574C229.657 92.5079 230.013 92.6346 230.399 92.6346C230.659 92.6346 230.871 92.5315 231.036 92.3281C231.201 92.1219 231.283 91.8802 231.283 91.5973V91.2908ZM229.456 89.1926C229.456 89.4136 229.542 89.614 229.716 89.7938C229.886 89.9677 230.099 90.0531 230.352 90.0531C230.603 90.0531 230.812 89.9647 230.977 89.782C231.142 89.6023 231.224 89.4048 231.224 89.1926C231.224 88.9746 231.142 88.7683 230.977 88.5797C230.818 88.3911 230.606 88.2968 230.34 88.2968C230.081 88.2968 229.869 88.3911 229.704 88.5797C229.539 88.7624 229.456 88.9657 229.456 89.1926Z" fill="#0059BF"/>
<path d="M233.857 87.4598C233.857 87.3036 233.86 87.1857 233.869 87.1062C233.875 87.0296 233.907 86.9353 233.963 86.8233C234.058 86.6524 234.32 86.564 234.753 86.564C235.083 86.564 235.319 86.6229 235.46 86.7408C235.578 86.8351 235.637 86.9824 235.637 87.1769C235.643 87.2476 235.649 87.3478 235.649 87.4716V91.0668C235.649 91.226 235.643 91.3438 235.637 91.4205C235.628 91.5 235.596 91.5914 235.543 91.6916C235.449 91.8743 235.183 91.9627 234.753 91.9627C234.32 91.9627 234.058 91.8684 233.963 91.6798C233.907 91.5796 233.875 91.4912 233.869 91.4205C233.86 91.3438 233.857 91.2201 233.857 91.055V87.4598ZM234.506 86.0453C234.506 86.0453 234.402 86.0689 234.199 86.116C233.987 86.116 233.816 85.9156 233.692 85.5149C233.636 85.3498 233.61 85.2084 233.61 85.0905C233.61 84.9726 233.627 84.8872 233.669 84.8312C233.739 84.7369 233.863 84.6632 234.046 84.6072L235.743 84.0885C235.923 84.0414 236.026 84.0178 236.05 84.0178C236.253 84.0178 236.418 84.2182 236.545 84.619C236.598 84.784 236.627 84.9255 236.627 85.0433C236.627 85.1553 236.607 85.2408 236.568 85.3027C236.498 85.3911 236.371 85.4618 236.191 85.5149L234.506 86.0453Z" fill="#0059BF"/>
<path d="M236.51 91.4794C236.383 91.4027 236.321 91.2731 236.321 91.0904C236.321 90.9106 236.451 90.6395 236.71 90.277C236.781 90.1591 236.899 90.1002 237.064 90.1002C237.235 90.1002 237.465 90.1886 237.748 90.3595C238.036 90.5246 238.302 90.6071 238.537 90.6071C238.953 90.6071 239.162 90.5246 239.162 90.3595C239.162 90.2358 238.932 90.1415 238.478 90.0766C238.045 90.0148 237.618 89.8527 237.194 89.5933C236.996 89.4696 236.831 89.2751 236.698 89.0157C236.563 88.7505 236.498 88.4352 236.498 88.0727C236.498 86.9883 237.241 86.446 238.726 86.446C239.212 86.446 239.716 86.5639 240.235 86.7997C240.47 86.9117 240.588 87.0472 240.588 87.2122C240.588 87.3773 240.512 87.5836 240.364 87.8252C240.214 88.061 240.061 88.1788 239.905 88.1788C239.816 88.1788 239.663 88.1287 239.445 88.0256C239.224 87.9166 238.985 87.8606 238.726 87.8606C238.316 87.8606 238.113 87.9401 238.113 88.0963C238.113 88.3026 238.343 88.4352 238.808 88.4971C239.262 88.5442 239.704 88.6739 240.129 88.8861C240.323 88.9804 240.488 89.1454 240.624 89.3812C240.756 89.6169 240.824 89.9175 240.824 90.277C240.824 90.6307 240.756 90.9342 240.624 91.1847C240.488 91.4293 240.305 91.6149 240.07 91.7387C239.628 91.9509 239.08 92.057 238.419 92.057C237.759 92.057 237.123 91.8654 236.51 91.4794Z" fill="#0059BF"/>
<path d="M244.629 88.3675L243.969 88.3321V89.7466C243.969 89.9294 243.995 90.062 244.051 90.1474C244.113 90.227 244.222 90.2653 244.381 90.2653C244.538 90.2653 244.658 90.2741 244.747 90.2889C244.832 90.2977 244.924 90.3301 245.018 90.3832C245.174 90.4716 245.254 90.6985 245.254 91.0669C245.254 91.5001 245.159 91.7623 244.971 91.8566C244.868 91.9038 244.776 91.9362 244.7 91.9509C244.62 91.9598 244.505 91.9627 244.358 91.9627C243.642 91.9627 243.099 91.8036 242.731 91.4794C242.36 91.1582 242.177 90.616 242.177 89.8527V88.3321C242.05 88.3498 241.909 88.3557 241.753 88.3557C241.602 88.3557 241.476 88.3027 241.375 88.1907C241.281 88.0728 241.234 87.8724 241.234 87.5895C241.234 87.3066 241.249 87.1033 241.281 86.9766C241.319 86.8528 241.37 86.7614 241.434 86.7054C241.543 86.62 241.676 86.5758 241.835 86.5758L242.177 86.6111V85.5502C242.177 85.3941 242.18 85.2791 242.189 85.2084C242.204 85.1318 242.239 85.0493 242.295 84.9609C242.38 84.7899 242.643 84.7015 243.085 84.7015C243.547 84.7015 243.821 84.8283 243.91 85.0787C243.948 85.1907 243.969 85.3675 243.969 85.6092V86.6111C244.266 86.5876 244.49 86.5758 244.641 86.5758C244.797 86.5758 244.915 86.5817 244.994 86.5876C245.071 86.5964 245.162 86.6288 245.265 86.6819C245.445 86.7762 245.537 87.0414 245.537 87.4716C245.537 87.9048 245.442 88.1671 245.254 88.2614C245.15 88.3174 245.059 88.3498 244.983 88.3557C244.903 88.3645 244.785 88.3675 244.629 88.3675Z" fill="#0059BF"/>
<path d="M246.102 87.4599C246.102 87.3037 246.105 87.1858 246.113 87.1062C246.119 87.0296 246.152 86.9353 246.208 86.8233C246.302 86.6524 246.564 86.564 246.997 86.564C247.328 86.564 247.563 86.6229 247.705 86.7408C247.823 86.8351 247.882 86.9825 247.882 87.177C247.887 87.2477 247.893 87.3479 247.893 87.4717V91.0669C247.893 91.226 247.887 91.3439 247.882 91.4205C247.873 91.5001 247.84 91.5914 247.787 91.6916C247.693 91.8743 247.428 91.9627 246.997 91.9627C246.564 91.9627 246.302 91.8684 246.208 91.6798C246.152 91.5796 246.119 91.4912 246.113 91.4205C246.105 91.3439 246.102 91.2201 246.102 91.0551V87.4599ZM247.787 85.5503C247.74 85.6534 247.649 85.7241 247.516 85.7624C247.381 85.8037 247.21 85.8214 246.997 85.8214C246.785 85.8214 246.611 85.8037 246.479 85.7624C246.352 85.7241 246.261 85.6534 246.208 85.5503C246.152 85.4501 246.119 85.3587 246.113 85.2792C246.105 85.2025 246.102 85.0847 246.102 84.9255C246.102 84.7605 246.105 84.6397 246.113 84.5601C246.119 84.4835 246.152 84.3951 246.208 84.3008C246.302 84.121 246.564 84.0297 246.997 84.0297C247.428 84.0297 247.693 84.121 247.787 84.3008C247.84 84.4039 247.873 84.4953 247.882 84.5719C247.887 84.6515 247.893 84.7693 247.893 84.9255C247.893 85.0847 247.887 85.2025 247.882 85.2792C247.873 85.3587 247.84 85.4501 247.787 85.5503Z" fill="#0059BF"/>
<path d="M250.416 89.2633C250.416 89.5551 250.511 89.779 250.699 89.9352C250.888 90.0943 251.088 90.171 251.3 90.171C251.518 90.171 251.725 90.1091 251.913 89.9824C252.102 89.8586 252.255 89.7938 252.373 89.7938C252.576 89.7938 252.827 89.9765 253.127 90.336C253.284 90.5423 253.363 90.722 253.363 90.8782C253.363 91.1376 253.175 91.3821 252.797 91.6091C252.402 91.8772 251.925 92.0098 251.359 92.0098C250.723 92.0098 250.11 91.7829 249.52 91.3262C249.238 91.1081 249.005 90.8163 248.825 90.4539C248.651 90.0855 248.566 89.6818 248.566 89.2397C248.566 88.8007 248.651 88.3999 248.825 88.0374C249.005 87.6779 249.238 87.3861 249.52 87.1651C250.086 86.7172 250.69 86.4932 251.336 86.4932C251.595 86.4932 251.846 86.5286 252.09 86.5993C252.341 86.67 252.526 86.7408 252.644 86.8115L252.797 86.9058C252.921 86.9942 253.021 87.059 253.092 87.1062C253.272 87.2417 253.363 87.3979 253.363 87.5777C253.363 87.7516 253.287 87.949 253.139 88.1671C252.895 88.5443 252.659 88.7329 252.432 88.7329C252.305 88.7329 252.12 88.6563 251.878 88.4971C251.751 88.3881 251.574 88.3321 251.347 88.3321C251.118 88.3321 250.905 88.4146 250.711 88.5796C250.514 88.7388 250.416 88.9657 250.416 89.2633Z" fill="#0059BF"/>
<path d="M257.538 87.1297C257.576 86.7466 257.847 86.5521 258.351 86.5521C258.616 86.5521 258.814 86.5728 258.941 86.6111C259.073 86.6523 259.165 86.726 259.212 86.835C259.265 86.9382 259.297 87.0295 259.306 87.1061C259.312 87.1857 259.318 87.3036 259.318 87.4598V91.0432C259.318 91.2082 259.312 91.332 259.306 91.4086C259.297 91.4882 259.271 91.5796 259.223 91.6797C259.12 91.8536 258.882 91.9391 258.504 91.9391C258.133 91.9391 257.886 91.8978 257.762 91.8094C257.635 91.7151 257.564 91.5796 257.55 91.3968C257.29 91.7593 256.866 91.9391 256.277 91.9391C255.687 91.9391 255.136 91.6739 254.626 91.1375C254.122 90.5953 253.872 89.9676 253.872 89.2515C253.872 88.5383 254.125 87.9136 254.638 87.3773C255.148 86.835 255.705 86.5639 256.312 86.5639C256.548 86.5639 256.76 86.6081 256.948 86.6936C257.137 86.7731 257.27 86.8468 257.349 86.9175C257.426 86.9883 257.491 87.059 257.538 87.1297ZM255.664 89.2633C255.664 89.4931 255.749 89.6965 255.923 89.8762C256.103 90.0589 256.318 90.1474 256.571 90.1474C256.831 90.1474 257.043 90.0589 257.208 89.8762C257.379 89.6876 257.467 89.4843 257.467 89.2633C257.467 89.0364 257.385 88.8271 257.22 88.6385C257.06 88.444 256.845 88.3438 256.571 88.3438C256.303 88.3438 256.082 88.444 255.911 88.6385C255.746 88.8271 255.664 89.0364 255.664 89.2633Z" fill="#0059BF"/>
</svg>
