<svg width="698" height="473" viewBox="0 0 698 473" fill="none" xmlns="http://www.w3.org/2000/svg">
<path d="M231.628 50.6944H103.159V266.394H231.628V50.6944Z" fill="#E0E0E0"/>
<path d="M227.355 50.6944H98.8861V266.394H227.355V50.6944Z" fill="#EBEBEB"/>
<path d="M221.885 55.0679H104.357V262.019H221.885V55.0679Z" fill="white"/>
<path d="M199.002 81.9606H126.732V235.128H199.002V81.9606Z" fill="#EBEBEB"/>
<path d="M126.732 180.927C126.564 166.619 139.247 152.651 153.217 150.654C159.877 149.701 166.954 151.042 173.178 148.453C184.287 143.832 187.822 128.861 199.003 124.421L199.513 235.128H126.733L126.732 180.927Z" fill="#E0E0E0"/>
<path d="M629.225 58.3389V179.099H458.229L452.069 59.1828L629.225 58.3389Z" fill="#E0E0E0"/>
<path d="M452.068 59.1824V178.845H623.063V59.1824L452.068 59.1824Z" fill="#F5F5F5"/>
<path d="M604.543 74.0499H470.588V163.978H604.543V74.0499Z" fill="white"/>
<path d="M604.544 74.0499C604.544 74.0499 604.314 74.065 603.884 74.0725C603.43 74.0782 602.799 74.0857 601.979 74.0961C600.281 74.1074 597.817 74.1225 594.622 74.1433C588.187 74.1679 578.832 74.2037 567.017 74.249C543.394 74.2962 509.957 74.3633 470.589 74.4426L470.976 74.0499C470.987 101.526 470.998 131.969 471.011 163.967V163.977L470.589 163.549C521.12 163.582 567.709 163.612 604.544 163.635L604.207 163.977C604.282 136.611 604.342 114.173 604.384 98.5467C604.421 90.7369 604.45 84.6359 604.47 80.453C604.487 78.3866 604.499 76.8007 604.507 75.6981C604.52 74.6229 604.544 74.0499 604.544 74.0499C604.544 74.0499 604.569 74.5728 604.581 75.6282C604.589 76.7148 604.602 78.2799 604.618 80.319C604.637 84.4839 604.666 90.5595 604.703 98.3352C604.745 114.011 604.807 136.522 604.88 163.978L604.881 164.32H604.543C567.709 164.343 521.119 164.374 470.588 164.407H470.165V163.978V163.968C470.177 131.97 470.19 101.527 470.201 74.0508V73.6572L470.588 73.6581C510.06 73.7374 543.586 73.8044 567.271 73.8516C579.049 73.8969 588.374 73.9328 594.788 73.9573C597.95 73.9781 600.388 73.9942 602.068 74.0045C602.87 74.0149 603.485 74.0225 603.929 74.0281C604.344 74.0347 604.544 74.0499 604.544 74.0499Z" fill="#E0E0E0"/>
<path d="M452.069 58.8467C452.14 58.7533 453.259 59.4972 455.009 60.7782C456.757 62.0601 459.14 63.8764 461.712 65.9645C464.285 68.0536 466.547 70.0284 468.14 71.5077C469.734 72.9879 470.664 73.963 470.589 74.0499C470.43 74.2321 466.319 70.7921 461.184 66.6329C456.045 62.4793 451.918 59.0422 452.069 58.8467Z" fill="#E0E0E0"/>
<path d="M623.064 59.1828C623.209 59.3688 619.18 62.8474 614.066 66.9519C608.951 71.0583 604.689 74.2349 604.543 74.0499C604.398 73.8639 608.426 70.3862 613.542 66.2798C618.656 62.1753 622.919 58.9978 623.064 59.1828Z" fill="#E0E0E0"/>
<path d="M622.929 178.862C616.573 173.637 610.219 168.413 603.863 163.188L622.929 178.862Z" fill="white"/>
<path d="M603.863 163.189C604.01 163.005 608.397 166.366 613.661 170.693C618.927 175.022 623.075 178.679 622.928 178.863C622.781 179.047 618.395 175.688 613.129 171.358C607.866 167.03 603.716 163.372 603.863 163.189Z" fill="#E0E0E0"/>
<path d="M452.069 178.845C451.923 178.659 455.91 175.217 460.971 171.156C466.034 167.095 470.255 163.954 470.399 164.14C470.544 164.325 466.558 167.767 461.495 171.828C456.434 175.889 452.213 179.031 452.069 178.845Z" fill="#E0E0E0"/>
<path d="M497.787 102.067V132.179H582.074V102.067H497.787Z" fill="#E0E0E0"/>
<path d="M396.267 59.5132H301.395V159.825H396.267V59.5132Z" fill="#E0E0E0"/>
<path d="M389.841 59.5132H294.971V159.825H389.841V59.5132Z" fill="#FAFAFA"/>
<path d="M389.871 159.855H294.941V59.483H389.871V159.855ZM295 159.795H389.812V59.5425H295V159.795Z" fill="#E0E0E0"/>
<path d="M377.088 72.9983H307.724V146.34H377.088V72.9983Z" fill="white"/>
<path d="M307.724 146.828C307.779 146.894 307.12 147.66 306.013 148.846C304.905 150.031 303.348 151.636 301.603 153.38C299.857 155.124 298.254 156.677 297.072 157.78C295.889 158.882 295.127 159.535 295.067 159.473C295.007 159.412 295.662 158.649 296.769 157.463C297.877 156.277 299.437 154.668 301.188 152.92C302.938 151.172 304.545 149.615 305.728 148.513C306.911 147.41 307.669 146.762 307.724 146.828Z" fill="#E0E0E0"/>
<path d="M377.088 146.648C377.154 146.592 377.909 147.261 379.079 148.384C380.248 149.509 381.83 151.087 383.549 152.857C385.268 154.627 386.8 156.254 387.887 157.453C388.974 158.653 389.617 159.426 389.557 159.487C389.496 159.547 388.744 158.883 387.574 157.76C386.405 156.636 384.819 155.053 383.095 153.277C381.371 151.502 379.837 149.872 378.75 148.672C377.663 147.472 377.023 146.703 377.088 146.648Z" fill="#E0E0E0"/>
<path d="M376.899 73.1937C376.844 73.1276 377.503 72.361 378.61 71.1754C379.718 69.9897 381.275 68.3849 383.02 66.6414C384.765 64.8968 386.368 63.344 387.551 62.2414C388.734 61.1388 389.495 60.4865 389.556 60.5478C389.615 60.6092 388.961 61.3719 387.853 62.5576C386.746 63.7433 385.184 65.3518 383.434 67.1011C381.684 68.8494 380.077 70.406 378.894 71.5086C377.711 72.6112 376.953 73.2597 376.899 73.1937Z" fill="#E0E0E0"/>
<path d="M307.534 73.374C307.469 73.4297 306.713 72.7613 305.544 71.6379C304.375 70.5146 302.793 68.9353 301.074 67.1653C299.355 65.3943 297.824 63.7688 296.737 62.5689C295.65 61.3691 295.007 60.596 295.068 60.5356C295.127 60.4742 295.88 61.1388 297.049 62.2621C298.218 63.3855 299.804 64.9695 301.528 66.7452C303.251 68.5199 304.786 70.1502 305.873 71.35C306.96 72.5489 307.598 73.3173 307.534 73.374Z" fill="#E0E0E0"/>
<path d="M376.899 146.34C376.894 146.336 376.888 146.215 376.884 145.984C376.88 145.733 376.875 145.396 376.869 144.96C376.861 144.041 376.851 142.718 376.837 141.001C376.821 137.527 376.797 132.472 376.767 126.054C376.735 113.208 376.687 94.9094 376.631 72.9983L376.9 73.2692C356.707 73.2805 332.993 73.2947 307.731 73.3098H307.725L308.032 72.9983C308.016 99.9174 308.001 125.101 307.989 146.34L307.725 146.073C328.453 146.13 345.712 146.177 357.812 146.21C363.857 146.24 368.613 146.264 371.88 146.28C373.494 146.293 374.738 146.304 375.602 146.311C376.012 146.318 376.328 146.323 376.564 146.326C376.78 146.33 376.894 146.335 376.899 146.34C376.904 146.345 376.801 146.351 376.593 146.356C376.364 146.359 376.057 146.364 375.66 146.371C374.806 146.377 373.581 146.388 371.988 146.402C368.735 146.418 364 146.441 357.979 146.472C345.839 146.505 328.523 146.552 307.724 146.609L307.461 146.609V146.34C307.449 125.101 307.433 99.9183 307.417 72.9983V72.6867H307.724H307.731C332.992 72.7009 356.705 72.7151 376.899 72.7264H377.167L377.166 72.9983C377.109 94.9812 377.062 113.34 377.03 126.228C376.999 132.619 376.976 137.654 376.959 141.114C376.946 142.808 376.935 144.113 376.927 145.021C376.921 145.445 376.916 145.772 376.913 146.015C376.909 146.236 376.903 146.345 376.899 146.34Z" fill="#E0E0E0"/>
<path d="M353.978 97.9302H330.832V121.408H353.978V97.9302Z" fill="#EBEBEB"/>
<path d="M670.094 422.856C670.094 422.992 526.324 423.101 349.016 423.101C171.646 423.101 27.907 422.991 27.907 422.856C27.907 422.721 171.647 422.611 349.016 422.611C526.324 422.611 670.094 422.72 670.094 422.856Z" fill="#263238"/>
<path d="M600.759 215.32C601.935 208.665 605.067 202.289 610.176 197.135C623.494 183.697 645.144 183.641 658.531 197.009C671.919 210.377 671.976 232.108 658.658 245.546C645.34 258.984 623.69 259.042 610.302 245.673C604.666 240.046 601.402 232.935 600.495 225.585L591.524 219.736L600.759 215.32Z" fill="white"/>
<path d="M600.759 215.32C600.759 215.32 600.534 215.402 600.125 215.584C599.687 215.782 599.091 216.054 598.325 216.402C596.725 217.147 594.421 218.219 591.459 219.598L591.213 219.712L591.441 219.863C593.895 221.483 596.911 223.473 600.38 225.762L600.285 225.61C600.884 230.667 602.748 236.545 606.718 241.924C607.705 243.265 608.808 244.576 610.041 245.817C611.345 246.981 612.605 248.268 614.127 249.293C617.071 251.448 620.47 253.32 624.271 254.445C631.806 256.784 640.825 256.56 648.921 252.779C656.994 249.076 663.952 241.796 667.053 232.649C668.335 228.919 668.965 225.019 668.97 221.173C668.936 217.325 668.249 213.553 667.048 210.037C665.857 206.517 664.122 203.24 661.92 200.424C659.751 197.593 657.252 195.084 654.442 193.149L653.414 192.396C653.059 192.167 652.688 191.963 652.328 191.747C651.597 191.331 650.893 190.875 650.153 190.5C648.645 189.807 647.177 189.074 645.628 188.609C644.123 188.015 642.551 187.736 641.036 187.351C640.266 187.219 639.495 187.128 638.733 187.016L637.595 186.861L636.457 186.812C633.433 186.553 630.512 186.947 627.748 187.387C625.016 188.023 622.416 188.783 620.105 189.919C615.418 192.069 611.785 195.109 609.001 198.078C606.267 201.121 604.472 204.195 603.281 206.804C602.104 209.428 601.5 211.586 601.166 213.057C600.998 213.798 600.891 214.354 600.838 214.732C600.777 215.11 600.749 215.312 600.759 215.32C600.77 215.328 600.818 215.142 600.905 214.763C600.987 214.381 601.121 213.815 601.309 213.091C601.688 211.638 602.333 209.506 603.54 206.923C604.76 204.354 606.573 201.334 609.304 198.354C612.085 195.446 615.691 192.478 620.32 190.39C622.603 189.286 625.168 188.555 627.857 187.942C630.579 187.525 633.452 187.15 636.421 187.419L637.539 187.471L638.657 187.629C639.404 187.742 640.161 187.835 640.917 187.966C642.402 188.352 643.944 188.63 645.419 189.219C646.938 189.679 648.375 190.405 649.853 191.088C650.577 191.457 651.266 191.908 651.98 192.318C652.333 192.531 652.697 192.73 653.044 192.957L654.05 193.698C656.801 195.601 659.244 198.07 661.363 200.846C663.516 203.609 665.207 206.821 666.369 210.269C667.541 213.713 668.211 217.406 668.241 221.174C668.233 224.94 667.615 228.756 666.36 232.408C663.325 241.357 656.52 248.492 648.622 252.13C640.701 255.845 631.862 256.089 624.46 253.821C620.726 252.731 617.384 250.906 614.482 248.802C612.981 247.803 611.737 246.542 610.448 245.406C609.229 244.191 608.138 242.907 607.16 241.594C603.223 236.324 601.342 230.546 600.704 225.557L600.691 225.458L600.609 225.405C597.115 223.155 594.078 221.199 591.606 219.607L591.589 219.872C594.543 218.422 596.841 217.294 598.436 216.512C599.181 216.138 599.761 215.846 600.186 215.633C600.576 215.434 600.77 215.328 600.759 215.32Z" fill="#263238"/>
<path d="M619.568 219.217C619.706 217.338 620.538 215.549 621.73 214.093C622.899 212.667 624.453 211.517 626.233 211.051C628.124 210.556 630.212 210.879 631.867 211.923C632.851 212.544 633.672 213.414 634.256 214.422C634.751 213.486 635.445 212.656 636.29 212.021C637.855 210.846 639.911 210.353 641.835 210.692C643.647 211.011 645.29 212.031 646.569 213.356C647.876 214.709 648.851 216.424 649.141 218.286C649.503 220.619 649.156 223.203 648.027 225.273C646.835 227.46 644.839 229.269 642.766 230.642C639.28 232.949 634.684 235.848 634.684 235.848C634.684 235.848 630.584 233.024 626.923 231.01C624.745 229.812 622.609 228.172 621.244 226.09C619.951 224.118 619.396 221.572 619.568 219.217Z" fill="#370796"/>
<path d="M184.279 168.697L197.44 165.778C202.386 169.838 208.477 172.62 215.275 173.535C234.825 176.166 252.798 162.391 255.419 142.769C258.039 123.146 244.317 105.106 224.767 102.475C205.218 99.8437 187.245 113.619 184.624 133.241C183.529 141.435 185.292 149.348 189.132 155.983L189.118 155.969L184.279 168.697Z" fill="white"/>
<path d="M184.279 168.697C184.279 168.697 184.404 168.402 184.623 167.849C184.85 167.275 185.17 166.463 185.586 165.406C186.428 163.252 187.66 160.107 189.258 156.021L189.012 156.073C189.012 156.073 189.021 156.083 189.026 156.087C189.084 156.147 189.178 156.147 189.237 156.089C189.286 156.04 189.294 155.964 189.261 155.906C186.894 151.738 184.614 145.821 184.538 138.601C184.413 131.457 186.643 123.013 192.309 115.892C195.125 112.35 198.768 109.188 203.075 106.831C207.374 104.471 212.337 102.927 217.564 102.549C222.787 102.221 228.244 103.049 233.345 105.132C235.927 106.107 238.327 107.568 240.65 109.148C241.228 109.549 241.754 110.025 242.31 110.461C242.846 110.922 243.443 111.316 243.927 111.84C244.929 112.848 246.003 113.798 246.881 114.939C247.337 115.495 247.818 116.029 248.251 116.599L249.466 118.365L250.072 119.245L250.59 120.177L251.623 122.033C251.945 122.661 252.199 123.322 252.489 123.962C252.752 124.613 253.095 125.233 253.28 125.91C253.69 127.247 254.213 128.546 254.451 129.915C255.707 135.31 255.659 140.859 254.503 145.992C253.371 151.142 251.024 155.818 248.029 159.715C245.023 163.618 241.327 166.729 237.394 168.962C233.457 171.203 229.287 172.565 225.259 173.189C221.222 173.878 217.335 173.597 213.805 173.075C206.717 171.837 201.246 168.678 197.536 165.661C197.5 165.631 197.451 165.622 197.409 165.631C193.178 166.612 189.921 167.368 187.69 167.884C186.596 168.141 185.755 168.338 185.16 168.479C184.586 168.616 184.279 168.697 184.279 168.697C184.279 168.697 184.545 168.651 185.101 168.536C185.689 168.413 186.52 168.24 187.6 168.015C189.866 167.535 193.175 166.834 197.472 165.925L197.346 165.894C201.054 168.978 206.558 172.217 213.727 173.514C217.296 174.066 221.234 174.369 225.332 173.69C229.421 173.076 233.659 171.711 237.665 169.449C241.669 167.194 245.434 164.044 248.501 160.083C251.556 156.129 253.955 151.373 255.115 146.135C256.3 140.913 256.358 135.264 255.082 129.769C254.84 128.374 254.31 127.051 253.891 125.689C253.702 124.999 253.355 124.368 253.087 123.704C252.792 123.052 252.534 122.38 252.206 121.74L251.155 119.848L250.627 118.899L250.011 118.003L248.773 116.204C248.333 115.624 247.843 115.08 247.379 114.513C246.484 113.352 245.392 112.384 244.37 111.359C243.876 110.826 243.269 110.423 242.723 109.954C242.156 109.509 241.62 109.027 241.031 108.618C238.665 107.008 236.218 105.524 233.589 104.532C228.391 102.413 222.837 101.578 217.521 101.921C212.201 102.313 207.153 103.896 202.789 106.306C198.414 108.714 194.721 111.938 191.875 115.545C186.143 122.799 183.924 131.378 184.094 138.609C184.216 145.92 186.571 151.883 189.003 156.058L189.238 155.877C189.233 155.872 189.224 155.863 189.224 155.863C189.166 155.804 189.072 155.803 189.014 155.86C188.998 155.875 188.986 155.896 188.978 155.914C187.441 160.076 186.257 163.281 185.446 165.475C185.063 166.522 184.769 167.327 184.561 167.898C184.364 168.437 184.279 168.697 184.279 168.697Z" fill="#263238"/>
<path d="M233.956 132.785C233.992 125.053 227.778 118.756 220.076 118.719C212.373 118.682 206.099 124.92 206.063 132.651C206.037 138.249 209.287 143.093 214.007 145.355C213.999 147.014 213.99 148.886 213.99 148.886L226.213 148.945C226.213 148.945 226.296 146.963 226.333 145.194C230.835 142.89 233.931 138.207 233.956 132.785Z" fill="#440CB2"/>
<path d="M221.794 148.866C221.794 148.866 221.796 148.807 221.809 148.693C221.823 148.572 221.842 148.405 221.868 148.188C221.924 147.745 222.006 147.091 222.132 146.252C222.26 145.412 222.43 144.387 222.701 143.211C222.978 142.039 223.354 140.708 223.985 139.322C224.301 138.629 224.666 137.921 225.142 137.233C225.387 136.896 225.692 136.568 226.1 136.377C226.507 136.185 227.014 136.187 227.424 136.427C227.627 136.546 227.798 136.747 227.863 136.984C227.936 137.218 227.911 137.483 227.802 137.702C227.584 138.144 227.172 138.45 226.721 138.629C225.798 138.948 224.737 138.862 223.823 138.409C222.905 137.957 222.173 137.091 221.864 136.064C221.716 135.553 221.637 134.995 221.79 134.449C221.924 133.907 222.453 133.423 223.062 133.482C223.364 133.506 223.637 133.714 223.769 133.98C223.908 134.243 223.942 134.555 223.877 134.843C223.74 135.427 223.318 135.862 222.89 136.23C222.008 136.955 220.808 137.355 219.635 137.161C218.468 136.968 217.424 136.189 216.948 135.13C216.697 134.61 216.64 133.979 216.861 133.434C216.973 133.165 217.187 132.915 217.475 132.818C217.76 132.709 218.081 132.763 218.333 132.901C218.589 133.038 218.796 133.262 218.919 133.518C219.047 133.773 219.105 134.051 219.128 134.325C219.165 134.874 219.085 135.419 218.909 135.924C218.563 136.937 217.837 137.791 216.932 138.263C216.03 138.74 214.984 138.863 214.044 138.647C213.58 138.541 213.105 138.353 212.791 137.973C212.484 137.602 212.4 137.016 212.721 136.624C212.88 136.436 213.118 136.336 213.349 136.319C213.581 136.304 213.811 136.352 214.013 136.452C214.427 136.66 214.678 137.046 214.862 137.417C215.209 138.178 215.487 138.917 215.769 139.623C216.87 142.45 217.65 144.778 218.173 146.392C218.434 147.199 218.627 147.829 218.756 148.257C218.817 148.465 218.865 148.628 218.899 148.744C218.931 148.854 218.942 148.912 218.942 148.912C218.942 148.912 218.919 148.858 218.883 148.75C218.844 148.634 218.791 148.474 218.723 148.267C218.581 147.837 218.374 147.213 218.11 146.413C217.568 144.807 216.771 142.486 215.656 139.668C215.373 138.968 215.086 138.22 214.744 137.477C214.564 137.118 214.32 136.757 213.953 136.578C213.597 136.399 213.098 136.398 212.829 136.717C212.564 137.034 212.63 137.556 212.904 137.88C213.184 138.22 213.628 138.401 214.077 138.501C214.981 138.706 215.991 138.585 216.857 138.123C217.727 137.668 218.423 136.847 218.753 135.871C218.922 135.386 218.998 134.86 218.962 134.339C218.927 133.828 218.716 133.292 218.253 133.05C218.032 132.93 217.765 132.887 217.531 132.977C217.294 133.057 217.116 133.261 217.016 133.501C216.818 133.99 216.864 134.571 217.101 135.061C217.552 136.062 218.552 136.811 219.661 136.992C220.777 137.177 221.932 136.795 222.78 136.098C223.194 135.745 223.592 135.323 223.71 134.807C223.767 134.555 223.736 134.284 223.618 134.059C223.503 133.834 223.287 133.671 223.042 133.65C222.797 133.625 222.543 133.715 222.347 133.871C222.149 134.025 222.018 134.252 221.947 134.496C221.807 134.99 221.877 135.528 222.02 136.017C222.314 137.001 223.015 137.834 223.891 138.267C224.764 138.704 225.796 138.787 226.666 138.487C227.089 138.324 227.477 138.029 227.669 137.64C227.873 137.252 227.718 136.754 227.351 136.55C226.991 136.336 226.523 136.329 226.158 136.504C225.782 136.678 225.488 136.985 225.248 137.313C224.78 137.983 224.411 138.691 224.095 139.375C223.462 140.747 223.079 142.07 222.794 143.236C222.514 144.405 222.335 145.428 222.198 146.264C222.07 147.097 221.97 147.746 221.901 148.194C221.868 148.41 221.843 148.577 221.824 148.697C221.808 148.809 221.794 148.866 221.794 148.866Z" fill="#263238"/>
<path d="M225.262 151.212L214.767 151.162C214.333 151.16 213.981 150.805 213.984 150.368C213.985 149.931 214.34 149.579 214.775 149.581L225.27 149.631C225.704 149.633 226.056 149.989 226.053 150.426C226.051 150.862 225.697 151.214 225.262 151.212Z" fill="#263238"/>
<path d="M225.259 151.902L214.763 151.852C214.329 151.851 213.974 152.203 213.972 152.639C213.97 153.075 214.321 153.431 214.756 153.433L215.908 153.438L217.423 156.366C217.596 156.701 217.941 156.911 218.317 156.913L222.067 156.931C222.447 156.933 222.796 156.722 222.97 156.383L224.469 153.479L225.253 153.483C225.688 153.485 226.042 153.133 226.044 152.695C226.045 152.26 225.694 151.904 225.259 151.902Z" fill="#263238"/>
<g opacity="0.2">
<path d="M208.627 127.104C207.999 128.461 207.691 129.869 207.632 131.146C207.569 132.426 207.734 133.574 208 134.492C208.266 135.412 208.603 136.108 208.901 136.549C209.198 136.991 209.43 137.189 209.531 137.137C209.764 137.02 209.374 135.966 209.189 134.256C208.992 132.565 209.1 130.146 210.177 127.836C211.26 125.531 213.046 123.903 214.47 122.976C215.9 122.028 216.958 121.657 216.899 121.402C216.874 121.29 216.575 121.238 216.046 121.29C215.518 121.341 214.768 121.525 213.893 121.907C213.019 122.286 212.034 122.892 211.092 123.757C211.092 123.755 209.248 125.393 208.627 127.104Z" fill="white"/>
</g>
<g opacity="0.2">
<path d="M222.015 121.326C222.058 121.094 221.898 120.843 221.581 120.645C221.267 120.447 220.795 120.307 220.267 120.301C219.739 120.296 219.265 120.427 218.947 120.619C218.627 120.812 218.462 121.059 218.5 121.292C218.588 121.762 219.367 122.009 220.252 122.021C220.252 122.021 221.626 121.874 222.015 121.326Z" fill="white"/>
</g>
<path d="M222.773 156.632C222.76 156.658 222.497 156.536 222.052 156.405C221.609 156.274 220.977 156.156 220.273 156.171C219.568 156.19 218.943 156.338 218.507 156.491C218.069 156.642 217.812 156.777 217.798 156.752C217.789 156.736 218.026 156.562 218.464 156.377C218.898 156.191 219.542 156.018 220.268 155.999C220.995 155.983 221.646 156.125 222.089 156.289C222.535 156.454 222.781 156.616 222.773 156.632Z" fill="#455A64"/>
<path d="M224.491 153.516C224.491 153.563 222.593 153.592 220.252 153.582C217.912 153.571 216.015 153.523 216.015 153.476C216.015 153.429 217.913 153.399 220.253 153.41C222.593 153.421 224.491 153.469 224.491 153.516Z" fill="#455A64"/>
<path d="M223.828 154.763C223.829 154.786 223.434 154.826 222.794 154.864C222.154 154.902 221.269 154.934 220.291 154.943C219.313 154.953 218.427 154.937 217.786 154.911C217.146 154.886 216.75 154.853 216.75 154.83C216.751 154.806 217.148 154.795 217.788 154.789C218.48 154.785 219.34 154.778 220.29 154.771C221.24 154.76 222.099 154.751 222.79 154.742C223.43 154.735 223.826 154.738 223.828 154.763Z" fill="#455A64"/>
<path d="M404.742 159.206L417.291 156.423C422.008 160.295 427.814 162.946 434.296 163.819C452.935 166.327 470.07 153.194 472.57 134.485C475.069 115.776 461.986 98.575 443.346 96.0668C424.707 93.5586 407.572 106.691 405.073 125.401C404.029 133.212 405.71 140.758 409.371 147.083L409.357 147.07L404.742 159.206Z" fill="white"/>
<path d="M404.742 159.206C404.742 159.206 404.862 158.925 405.071 158.398C405.287 157.85 405.592 157.076 405.989 156.069C406.793 154.015 407.966 151.016 409.49 147.121L409.256 147.171C409.256 147.171 409.264 147.18 409.269 147.184C409.324 147.241 409.414 147.241 409.47 147.185C409.517 147.139 409.524 147.066 409.492 147.011C407.236 143.036 405.062 137.396 404.989 130.511C404.87 123.7 406.996 115.65 412.399 108.86C415.083 105.483 418.557 102.469 422.664 100.221C426.763 97.9708 431.495 96.4982 436.478 96.1385C441.458 95.8251 446.66 96.6143 451.525 98.6014C453.987 99.5313 456.274 100.924 458.489 102.43C459.04 102.813 459.541 103.267 460.072 103.682C460.583 104.122 461.153 104.498 461.614 104.997C462.57 105.958 463.594 106.863 464.431 107.952C464.865 108.481 465.324 108.991 465.736 109.534L466.895 111.218L467.473 112.057L467.967 112.946L468.952 114.716C469.259 115.315 469.5 115.945 469.776 116.555C470.028 117.177 470.353 117.767 470.53 118.413C470.922 119.688 471.42 120.926 471.647 122.232C472.845 127.375 472.798 132.666 471.696 137.56C470.618 142.47 468.379 146.929 465.524 150.644C462.658 154.364 459.134 157.331 455.384 159.46C451.63 161.597 447.655 162.895 443.814 163.491C439.965 164.148 436.258 163.881 432.894 163.383C426.136 162.202 420.92 159.191 417.383 156.315C417.348 156.286 417.303 156.277 417.262 156.285C413.228 157.221 410.122 157.941 407.995 158.434C406.952 158.679 406.15 158.867 405.582 159C405.035 159.129 404.742 159.206 404.742 159.206C404.742 159.206 404.996 159.162 405.527 159.052C406.088 158.935 406.88 158.77 407.909 158.556C410.069 158.098 413.224 157.431 417.321 156.563L417.201 156.535C420.736 159.473 425.985 162.563 432.819 163.8C436.221 164.325 439.976 164.614 443.884 163.967C447.783 163.382 451.823 162.08 455.643 159.923C459.46 157.773 463.05 154.769 465.975 150.993C468.888 147.224 471.174 142.689 472.281 137.694C473.411 132.717 473.465 127.33 472.249 122.09C472.018 120.761 471.514 119.499 471.115 118.201C470.934 117.543 470.604 116.941 470.348 116.308C470.067 115.686 469.82 115.045 469.507 114.435L468.506 112.631L468.002 111.727L467.415 110.872L466.235 109.157C465.815 108.604 465.348 108.085 464.906 107.546C464.054 106.439 463.011 105.515 462.038 104.537C461.567 104.029 460.988 103.645 460.468 103.198C459.927 102.774 459.416 102.313 458.855 101.924C456.599 100.388 454.267 98.9743 451.76 98.0284C446.804 96.0083 441.508 95.2125 436.44 95.54C431.368 95.9139 426.555 97.4224 422.393 99.721C418.223 102.017 414.701 105.09 411.987 108.53C406.523 115.446 404.407 123.626 404.57 130.52C404.686 137.49 406.931 143.175 409.249 147.156L409.474 146.983C409.469 146.979 409.461 146.97 409.461 146.97C409.406 146.914 409.316 146.913 409.261 146.968C409.246 146.982 409.234 147.002 409.227 147.02C407.761 150.988 406.632 154.043 405.86 156.136C405.495 157.135 405.214 157.903 405.015 158.446C404.824 158.959 404.742 159.206 404.742 159.206Z" fill="#263238"/>
<path d="M428.923 129.848C428.91 132.206 426.995 134.107 424.646 134.094C422.297 134.081 420.403 132.159 420.416 129.801C420.429 127.442 422.344 125.541 424.693 125.555C427.043 125.568 428.936 127.49 428.923 129.848Z" fill="#263238"/>
<path d="M443.104 129.927C443.091 132.285 441.177 134.186 438.827 134.173C436.478 134.16 434.584 132.238 434.597 129.88C434.61 127.522 436.526 125.622 438.875 125.635C441.224 125.648 443.118 127.569 443.104 129.927Z" fill="#263238"/>
<path d="M457.287 130.006C457.274 132.365 455.358 134.266 453.009 134.253C450.66 134.239 448.767 132.317 448.78 129.959C448.793 127.601 450.708 125.701 453.057 125.714C455.406 125.726 457.3 127.648 457.287 130.006Z" fill="#263238"/>
<path d="M361.118 112.694C359.6 109.605 355.959 107.72 352.57 108.273C348.671 105.04 342.481 105.03 338.571 108.25C335.617 106.41 331.696 106.253 328.607 107.853C325.517 109.452 323.37 112.748 323.151 116.231C319.686 115.604 315.919 117.415 314.234 120.518C312.55 123.621 313.076 127.781 315.479 130.364C311.67 131.52 309.096 135.807 309.858 139.727C310.62 143.647 314.611 146.649 318.574 146.282L359.408 122.192C361.908 119.831 362.636 115.785 361.118 112.694Z" fill="#263238"/>
<path d="M317.37 147.401C319.181 129.47 334.408 115.945 352.359 116.317L354.143 116.353C373.353 117.879 382.794 135.107 380.743 154.34L376.638 218.57L373.836 226.6L340.742 268.225L332.401 230.727L332.241 213.317C332.241 213.317 313.811 210.049 313.963 191.489C314.038 182.524 315.686 164.077 317.37 147.401Z" fill="#FFBF9D"/>
<path d="M332.265 213.343C332.265 213.343 343.88 214.243 356.458 206.671C356.458 206.671 350.521 219.942 332.284 217.947L332.265 213.343Z" fill="#FF9A6C"/>
<path d="M321.691 164.052C321.612 165.45 322.729 166.669 324.182 166.778C325.633 166.886 326.874 165.843 326.953 164.445C327.03 163.047 325.916 161.826 324.465 161.717C323.011 161.609 321.769 162.654 321.691 164.052Z" fill="#263238"/>
<path d="M320.932 157.499C321.252 157.852 323.282 156.407 326.123 156.473C328.962 156.499 331.017 158.008 331.331 157.667C331.487 157.515 331.166 156.884 330.271 156.202C329.392 155.523 327.88 154.85 326.11 154.82C324.341 154.794 322.839 155.417 321.97 156.068C321.082 156.723 320.774 157.342 320.932 157.499Z" fill="#263238"/>
<path d="M347.126 165.484C347.047 166.882 348.163 168.101 349.616 168.209C351.067 168.318 352.309 167.276 352.387 165.877C352.465 164.478 351.349 163.258 349.898 163.149C348.445 163.04 347.204 164.086 347.126 165.484Z" fill="#263238"/>
<path d="M348.118 157.665C348.439 158.017 350.471 156.573 353.31 156.639C356.148 156.665 358.203 158.174 358.518 157.832C358.672 157.681 358.355 157.05 357.457 156.368C356.577 155.688 355.067 155.015 353.297 154.985C351.528 154.958 350.026 155.581 349.155 156.233C348.271 156.888 347.96 157.507 348.118 157.665Z" fill="#263238"/>
<path d="M338.327 178.604C338.344 178.442 336.584 178.099 333.731 177.673C333.006 177.583 332.323 177.424 332.211 176.924C332.051 176.395 332.37 175.616 332.739 174.776C333.458 173.028 334.209 171.196 334.998 169.276C338.139 161.443 340.429 154.997 340.114 154.872C339.798 154.749 336.996 160.996 333.855 168.828C333.099 170.76 332.374 172.602 331.686 174.364C331.395 175.186 330.903 176.114 331.251 177.214C331.436 177.762 331.96 178.168 332.422 178.303C332.885 178.455 333.292 178.471 333.651 178.501C336.527 178.716 338.313 178.766 338.327 178.604Z" fill="#263238"/>
<path d="M348.249 149.519C348.572 150.266 351.032 149.652 354.004 149.762C356.978 149.805 359.439 150.545 359.76 149.814C359.901 149.466 359.418 148.781 358.388 148.128C357.367 147.477 355.784 146.917 354.001 146.87C352.219 146.827 350.639 147.303 349.619 147.903C348.589 148.503 348.107 149.163 348.249 149.519Z" fill="#263238"/>
<path d="M321.737 149.693C322.168 150.388 324.184 149.921 326.528 150.132C328.88 150.26 330.808 151.011 331.333 150.385C331.567 150.079 331.321 149.401 330.518 148.701C329.727 148.006 328.35 147.361 326.736 147.243C325.122 147.128 323.668 147.568 322.785 148.143C321.89 148.72 321.55 149.357 321.737 149.693Z" fill="#263238"/>
<path d="M319.323 138.927C319.323 138.927 324.437 127.408 330.075 124.812C336.9 121.669 339.657 129.175 346.134 127.501C352.612 125.827 359.128 122.81 365.608 127.944C372.699 133.562 369.246 137.33 369.521 145.572C370.641 178.99 376.52 188.554 378.57 172.867C378.794 171.149 383.585 169.877 384.441 162.614C385.55 153.196 386.146 141.744 384.186 135.004C382.533 129.322 379.407 125.356 373.745 120.937C364.807 113.962 352.343 113.558 343.858 114.239C335.375 114.919 318.851 124.361 319.323 138.927Z" fill="#263238"/>
<path d="M377.403 172.338C377.578 169.477 380.083 167.266 382.92 167.596C386.361 167.997 390.157 170.041 389.783 177.188C389.119 189.865 376.576 186.581 376.573 186.217C376.571 185.969 377.078 177.642 377.403 172.338Z" fill="#FFBF9D"/>
<path d="M379.571 181.592C379.628 181.554 379.783 181.758 380.146 181.949C380.499 182.134 381.116 182.282 381.788 182.07C383.149 181.649 384.383 179.582 384.564 177.3C384.657 176.148 384.473 175.037 384.114 174.106C383.777 173.159 383.214 172.479 382.549 172.324C381.889 172.133 381.392 172.512 381.219 172.861C381.031 173.207 381.098 173.463 381.03 173.482C380.993 173.513 380.77 173.255 380.899 172.737C380.964 172.487 381.128 172.197 381.437 171.969C381.754 171.737 382.206 171.635 382.671 171.71C383.642 171.829 384.471 172.775 384.867 173.797C385.316 174.826 385.548 176.076 385.445 177.371C385.23 179.921 383.802 182.243 381.948 182.676C381.048 182.862 380.321 182.554 379.953 182.235C379.577 181.899 379.526 181.612 379.571 181.592Z" fill="#FF9A6C"/>
<path d="M377.66 147.755C375.996 148.845 374.238 149.969 372.255 150.125C370.273 150.281 368.035 149.093 367.742 147.12C367.611 146.234 367.846 145.214 367.282 144.519C366.609 143.691 365.33 143.92 364.269 144.011C360.586 144.326 356.877 141.639 356.014 138.032C355.048 139.422 352.862 139.315 351.463 138.368C350.064 137.422 349.181 135.901 348.098 134.602C347.015 133.303 345.48 132.129 343.805 132.333C342.868 132.447 341.982 132.988 341.044 132.884C339.386 132.702 338.617 130.734 338.4 129.075C338.182 127.416 338.026 125.483 336.64 124.555C335.355 123.695 333.656 124.141 332.123 124.336C330.591 124.53 328.626 124.129 328.265 122.621C328.076 121.83 328.429 121.01 328.877 120.332C330.909 117.263 335.229 115.97 338.604 117.422C339.926 113.256 343.899 110.074 348.24 109.706C352.58 109.337 357.03 111.801 359.032 115.686C361.753 113.308 365.655 112.368 369.155 113.246C372.656 114.124 375.658 116.796 376.946 120.178C380.037 119.431 383.517 120.696 385.412 123.259C387.308 125.821 387.509 129.531 385.903 132.285C388.148 133.634 390.047 135.94 390.04 138.568C390.033 141.195 387.431 143.758 384.921 143.015C385.899 145.08 385.012 147.839 383.015 148.939C381.018 150.041 378.223 149.314 377.01 147.378" fill="#263238"/>
<path d="M385.848 143.005C385.893 142.972 386.059 144.077 385.01 145.428C384.492 146.068 383.614 146.727 382.446 146.891C381.304 147.059 379.914 146.749 378.865 145.765L379.401 145.696C378.753 146.775 377.906 147.871 376.813 148.807C376.11 149.404 375.333 149.908 374.481 150.197C373.645 150.511 372.7 150.523 371.932 150.382C370.334 150.171 368.953 149.279 368.328 148.206C367.676 147.156 367.482 146.189 367.359 145.545C367.244 144.893 367.239 144.526 367.283 144.518C367.338 144.506 367.437 144.857 367.635 145.477C367.836 146.087 368.109 147.003 368.752 147.913C369.913 149.758 373.797 150.767 376.343 148.249C377.357 147.38 378.177 146.345 378.809 145.334L379.039 144.965L379.345 145.265C380.196 146.097 381.384 146.41 382.373 146.303C383.377 146.204 384.17 145.682 384.685 145.14C385.724 144.006 385.738 142.97 385.848 143.005Z" fill="#455A64"/>
<path d="M362.562 113.538C362.568 113.583 362.23 113.62 361.661 113.849C361.105 114.079 360.282 114.54 359.664 115.483L359.507 115.722L359.337 115.483C358.188 113.869 356.25 111.783 353.329 110.39C351.876 109.708 350.184 109.225 348.375 109.191C346.575 109.145 344.679 109.627 342.992 110.616C341.678 111.382 340.567 112.416 339.743 113.582C338.936 114.761 338.43 116.077 338.274 117.378L338.226 117.778L337.845 117.665C335.956 117.101 334.014 117.432 332.579 118.198C331.123 118.964 330.182 120.158 329.643 121.229C328.577 123.44 328.907 124.991 328.778 124.971C328.749 124.976 328.652 124.616 328.646 123.931C328.647 123.251 328.753 122.225 329.274 121.054C329.788 119.898 330.752 118.575 332.311 117.702C333.843 116.835 335.939 116.426 338.036 117.02L337.607 117.306C337.757 115.889 338.294 114.45 339.156 113.175C340.036 111.912 341.223 110.804 342.625 109.985C344.423 108.93 346.467 108.42 348.391 108.486C350.317 108.538 352.097 109.074 353.603 109.815C356.633 111.327 358.568 113.549 359.664 115.262H359.338C360.07 114.257 360.987 113.832 361.592 113.653C362.214 113.475 362.561 113.51 362.562 113.538Z" fill="#455A64"/>
<path d="M345.819 183.071C345.819 183.071 349.465 190.713 341.657 192.548C340.979 192.708 340.265 192.66 339.606 192.434C338.399 192.022 337.478 191.028 337.158 189.789L336.08 185.629C336.448 185.729 345.819 183.071 345.819 183.071Z" fill="#FF9A6C"/>
<path d="M338.79 192.528C338.801 192.485 339.155 192.579 339.801 192.623C340.444 192.658 341.397 192.617 342.478 192.217C343.546 191.824 344.749 191.029 345.541 189.735C346.322 188.45 346.644 186.677 346.197 184.979C346.028 184.324 345.752 183.712 345.399 183.189L345.661 183.285C342.644 184.062 339.979 184.724 338.067 185.178C337.186 185.379 336.436 185.549 335.811 185.69C335.279 185.801 334.986 185.847 334.979 185.817C334.972 185.786 335.252 185.684 335.771 185.52C336.387 185.339 337.125 185.121 337.99 184.866C339.88 184.329 342.524 183.61 345.531 182.817L345.697 182.773L345.793 182.913C346.182 183.479 346.483 184.145 346.666 184.854C347.15 186.689 346.789 188.596 345.92 189.975C345.038 191.366 343.731 192.174 342.591 192.545C341.438 192.923 340.441 192.909 339.784 192.814C339.12 192.708 338.782 192.549 338.79 192.528Z" fill="#263238"/>
<path d="M283.294 240.302C283.294 240.302 270.068 247.487 267.375 266.3C265.062 282.461 251.136 369.103 251.136 369.103L238.713 422.432H270.899L288.404 327.784L283.294 240.302Z" fill="#0B5172"/>
<path d="M292.734 422.61L310.827 256.423L326.609 219.784L331.89 216.074L335.705 232.386L340.811 250.833L354.772 233.039L376.817 215.706L377.325 224.259L387.911 255.651L379.135 337.571V422.431L292.734 422.61Z" fill="white"/>
<path d="M332.268 422.431C332.28 422.431 332.295 422.282 332.312 421.99C332.328 421.666 332.348 421.237 332.375 420.695C332.418 419.517 332.479 417.846 332.557 415.714C332.703 411.348 332.913 405.099 333.172 397.393C333.706 381.925 334.554 360.56 335.767 336.977C336.986 313.385 338.34 292.045 339.399 276.603C339.934 268.911 340.368 262.674 340.671 258.318C340.813 256.189 340.924 254.521 341.003 253.345C341.033 252.803 341.055 252.375 341.073 252.051C341.085 251.759 341.086 251.609 341.074 251.608C341.063 251.607 341.041 251.755 341.006 252.045C340.973 252.369 340.929 252.794 340.872 253.334C340.765 254.508 340.614 256.173 340.42 258.298C340.038 262.609 339.53 268.853 338.944 276.57C337.769 292.005 336.342 313.346 335.123 336.943C333.91 360.531 333.134 381.904 332.716 397.379C332.505 405.116 332.367 411.379 332.305 415.708C332.279 417.841 332.258 419.514 332.244 420.692C332.244 421.235 332.244 421.664 332.244 421.989C332.25 422.281 332.257 422.431 332.268 422.431Z" fill="#263238"/>
<path d="M405.934 332.609L431.281 253.022L386.434 228.57L377.064 218.283C377.064 218.283 375.072 260.978 374.759 272.286C374.446 283.594 369.536 326.46 367.345 352.532C366.175 366.461 366.927 389.727 367.613 402.84C368.401 417.883 368.24 422.855 368.24 422.855L412.117 422.608L397.602 364.004L405.934 332.609Z" fill="#0B5172"/>
<path d="M313.868 228.377L283.293 240.301L278.549 355.621L266.742 422.609L300.463 423.248C300.776 415.081 309.355 347.043 309.355 347.043L320.621 240.561L329.416 217.811L313.868 228.377Z" fill="#0B5172"/>
<path d="M314.429 227.744C314.416 227.733 314.224 227.949 313.868 228.377C313.487 228.846 312.973 229.478 312.322 230.278C310.956 231.996 309.016 234.435 306.581 237.497L306.458 237.651L306.617 237.772C308.07 238.879 309.711 240.13 311.482 241.48L311.55 241.076C309.775 241.639 307.859 242.248 305.84 242.889L305.66 242.947L305.662 243.138C305.771 253.353 305.907 266.214 306.055 280.155C306.303 297.173 306.526 312.573 306.689 323.784C306.801 329.326 306.891 333.829 306.955 337.004C307 338.525 307.034 339.725 307.06 340.598C307.078 340.977 307.092 341.284 307.104 341.532C307.117 341.743 307.13 341.85 307.141 341.85C307.153 341.85 307.162 341.742 307.17 341.531C307.176 341.283 307.182 340.975 307.191 340.596C307.194 339.723 307.2 338.522 307.207 337C307.192 333.825 307.17 329.321 307.145 323.778C307.031 312.567 306.873 297.164 306.699 280.147C306.502 266.206 306.321 253.346 306.176 243.131L305.999 243.379C308.011 242.72 309.922 242.093 311.691 241.514L312.116 241.375L311.759 241.11C309.972 239.781 308.317 238.549 306.851 237.46L306.887 237.735C309.262 234.626 311.154 232.15 312.487 230.406C313.105 229.579 313.592 228.926 313.954 228.442C314.281 227.994 314.443 227.756 314.429 227.744Z" fill="#263238"/>
<path d="M370.083 339.186C370.094 339.189 370.134 339.085 370.203 338.88C370.282 338.638 370.38 338.337 370.501 337.964C370.777 337.112 371.157 335.935 371.639 334.444C372.639 331.39 374.121 326.984 376.024 321.564C376.99 318.854 378.045 315.891 379.178 312.713C380.352 309.548 381.432 306.073 382.386 302.389C384.242 295.001 385.659 286.744 386.87 278.052C388.419 266.729 389.421 256.053 390.03 246.868L390.039 246.739L389.946 246.649C388.22 244.978 386.583 243.394 385.026 241.887L385.002 242.277C386.656 241.014 388.204 239.831 389.666 238.715L389.849 238.576L389.715 238.393C386.181 233.584 383.312 229.679 381.292 226.931C380.309 225.618 379.535 224.582 378.975 223.834C378.724 223.51 378.521 223.248 378.359 223.039C378.217 222.861 378.14 222.774 378.131 222.781C378.121 222.787 378.181 222.888 378.305 223.078C378.453 223.297 378.638 223.572 378.868 223.912C379.404 224.677 380.145 225.737 381.086 227.081C383.065 229.858 385.878 233.805 389.341 238.665L389.388 238.344C387.917 239.448 386.358 240.617 384.693 241.866L384.454 242.045L384.669 242.256C386.215 243.774 387.841 245.369 389.557 247.05L389.473 246.831C388.811 255.994 387.78 266.661 386.233 277.962C385.025 286.639 383.628 294.88 381.812 302.242C380.875 305.92 379.831 309.35 378.676 312.531C377.57 315.72 376.538 318.693 375.594 321.413C373.745 326.856 372.326 331.287 371.4 334.366C370.937 335.906 370.595 337.108 370.376 337.925C370.28 338.306 370.202 338.612 370.139 338.859C370.091 339.073 370.072 339.184 370.083 339.186Z" fill="#263238"/>
<g opacity="0.3">
<path d="M405.934 398.223L381.649 407.784L380.028 402.352L367.999 412.424L367.338 397.399L377.912 382.509L404.157 391.043L405.934 398.223Z" fill="black"/>
</g>
<path d="M448.592 372.183C451.206 370.549 452.825 367.719 452.939 364.63C453.039 361.868 452.915 357.756 452.199 351.761C450.464 337.255 431.282 253.022 431.282 253.022L403.019 318.665L411.187 347.244L369.558 367.252L381.148 400.083C381.148 400.083 436.459 379.765 448.592 372.183Z" fill="#0B5172"/>
<path d="M420.207 272.437C420.186 272.431 420.095 272.685 419.943 273.173C419.778 273.729 419.567 274.439 419.306 275.317C418.756 277.265 417.999 279.949 417.073 283.23C415.215 289.919 412.667 299.166 410.078 309.441C407.491 319.721 405.44 329.101 404.15 335.927C403.504 339.339 403.017 342.108 402.724 344.028C402.589 344.934 402.479 345.667 402.393 346.241C402.325 346.748 402.299 347.016 402.322 347.02C402.343 347.024 402.412 346.763 402.521 346.264C402.637 345.696 402.786 344.97 402.969 344.074C403.37 342.091 403.921 339.358 404.595 336.017C405.998 329.222 408.116 319.871 410.7 309.6C413.288 299.333 415.765 290.069 417.511 283.35C418.356 280.046 419.047 277.344 419.547 275.383C419.76 274.493 419.933 273.772 420.068 273.208C420.18 272.707 420.229 272.443 420.207 272.437Z" fill="#263238"/>
<path d="M434.806 378.928C434.802 378.919 434.711 378.946 434.535 379.005C434.331 379.078 434.075 379.17 433.757 379.284C433.038 379.554 432.037 379.93 430.759 380.412C428.112 381.432 424.32 382.895 419.572 384.725C410.001 388.468 396.584 393.715 381.035 399.794L381.438 399.978C379.017 393.106 376.394 385.66 373.677 377.949C372.377 374.271 371.1 370.654 369.859 367.143L369.697 367.538C385.664 359.801 399.944 352.88 410.843 347.598L410.814 347.61C414.295 346.502 417.647 346.201 420.532 346.494C423.427 346.752 425.839 347.543 427.723 348.328C429.611 349.131 430.975 349.969 431.898 350.532C432.327 350.816 432.667 351.039 432.927 351.211C433.16 351.362 433.283 351.436 433.29 351.426C433.296 351.418 433.186 351.326 432.965 351.157C432.713 350.971 432.385 350.73 431.97 350.424C431.066 349.823 429.715 348.944 427.824 348.098C425.936 347.269 423.504 346.432 420.568 346.135C417.642 345.804 414.226 346.077 410.677 347.176L410.662 347.18L410.646 347.188C399.727 352.426 385.42 359.289 369.423 366.963L369.165 367.086L369.261 367.357C370.499 370.869 371.774 374.486 373.072 378.165C375.798 385.874 378.43 393.315 380.859 400.185L380.966 400.487L381.262 400.369C396.777 394.203 410.164 388.882 419.715 385.086C424.435 383.183 428.205 381.665 430.836 380.604C432.099 380.083 433.088 379.676 433.798 379.383C434.109 379.249 434.359 379.141 434.557 379.055C434.725 378.98 434.809 378.936 434.806 378.928Z" fill="#263238"/>
<path d="M341.329 250.171C341.356 250.197 341.768 249.822 342.501 249.106C343.299 248.31 344.338 247.273 345.605 246.009C348.289 243.256 351.924 239.529 356.086 235.261L355.631 235.246C356.946 236.787 357.883 238.829 358.335 241.02C358.575 242.161 358.656 243.316 358.593 244.396L358.551 245.123L359.109 244.668C364.411 240.355 368.705 236.124 371.919 233.236C373.513 231.778 374.804 230.619 375.703 229.832C376.599 229.041 377.091 228.607 377.064 228.572C377.041 228.543 376.499 228.915 375.555 229.652C374.608 230.386 373.27 231.498 371.636 232.916C368.344 235.721 363.985 239.904 358.713 244.166L359.229 244.439C359.299 243.294 359.214 242.084 358.964 240.891C358.491 238.601 357.513 236.474 356.1 234.835L355.876 234.575L355.644 234.82C351.544 239.152 347.965 242.933 345.322 245.727C344.108 247.044 343.113 248.125 342.349 248.954C341.664 249.717 341.303 250.145 341.329 250.171Z" fill="#263238"/>
<path d="M327.306 226.666C327.273 226.667 327.252 227.015 327.255 227.657C327.26 228.299 327.292 229.236 327.383 230.415C327.562 232.771 327.991 236.101 328.937 239.902L329.13 240.681L329.497 239.964C330.477 238.051 331.836 236.093 333.559 234.339C334.024 233.865 334.503 233.418 334.969 233.015L334.449 232.84C335.579 237.915 337.034 242.314 338.24 245.406C338.84 246.953 339.368 248.179 339.755 249.014C340.142 249.848 340.379 250.295 340.416 250.279C340.456 250.262 340.292 249.783 339.973 248.922C339.618 247.941 339.175 246.716 338.645 245.254C337.552 242.137 336.18 237.744 335.073 232.7L334.958 232.177L334.552 232.526C334.071 232.939 333.577 233.399 333.1 233.886C331.328 235.69 329.942 237.713 328.958 239.69L329.518 239.752C328.538 236 328.032 232.711 327.75 230.378C327.472 228.045 327.383 226.663 327.306 226.666Z" fill="#263238"/>
<g opacity="0.3">
<path d="M305.919 243.135L302.434 247.957C302.434 247.957 303.407 321.075 307.108 339.231L305.919 243.135Z" fill="black"/>
</g>
<path d="M266.743 422.61C266.736 422.609 266.75 422.49 266.786 422.259C266.828 422.008 266.885 421.67 266.957 421.24C267.123 420.319 267.359 419.004 267.663 417.317C268.3 413.882 269.218 408.942 270.356 402.811C272.686 390.498 275.921 373.403 279.561 354.168L279.556 354.217C279.528 351.638 279.498 348.904 279.467 346.136C279.261 324.672 279.075 305.245 278.94 291.155C278.897 284.139 278.861 278.453 278.836 274.494C278.834 272.547 278.833 271.026 278.832 269.965C278.837 269.465 278.841 269.075 278.844 268.787C278.849 268.521 278.856 268.385 278.864 268.385C278.872 268.385 278.882 268.521 278.893 268.787C278.902 269.075 278.914 269.465 278.93 269.965C278.952 271.026 278.984 272.548 279.025 274.494C279.086 278.453 279.175 284.139 279.283 291.155C279.454 305.244 279.69 324.671 279.951 346.131C279.981 348.899 280.01 351.633 280.038 354.211V354.237L280.033 354.261C276.332 373.484 273.043 390.568 270.673 402.874C269.474 408.994 268.507 413.925 267.835 417.352C267.495 419.032 267.231 420.342 267.045 421.258C266.954 421.684 266.883 422.02 266.83 422.269C266.78 422.495 266.75 422.611 266.743 422.61Z" fill="#263238"/>
<path d="M270.716 351.457C270.701 351.604 268.294 351.393 265.341 351.608C262.387 351.805 260.031 352.348 259.997 352.204C259.959 352.086 262.299 351.319 265.309 351.118C268.316 350.9 270.737 351.335 270.716 351.457Z" fill="#263238"/>
<path d="M369.993 369.443C369.993 369.443 346.523 374.412 343.034 375.186C339.546 375.96 325.769 386.452 324.404 387.226C323.039 388 319.059 390.565 319.059 390.565C319.059 390.565 321.623 394.83 326.174 393.281C330.724 391.733 333.724 389.087 333.724 389.087L324.017 398.068L312.968 404.915C311.615 405.754 310.962 407.485 311.585 408.971C311.938 409.812 312.617 410.443 313.901 410.213C317.041 409.647 327.23 405.616 327.23 405.616C327.23 405.616 327.708 411.854 333.32 412.628C333.32 412.628 334.527 417.986 339.409 416.844C339.409 416.844 344.212 420.832 348.464 418.553C352.716 416.275 363.755 411.696 366.03 407.051C368.305 402.405 371.187 398.379 371.187 398.379L379.689 396.883L369.993 369.443Z" fill="#FFBF9D"/>
<path d="M327.231 405.616C327.31 405.783 330.245 404.584 333.671 402.661C337.113 400.747 339.542 398.608 339.411 398.453C339.288 398.295 336.72 400.128 333.322 402.018C329.932 403.921 327.135 405.418 327.231 405.616Z" fill="#FF9A6C"/>
<path d="M345.138 404.696C345.031 404.506 342.124 406.16 338.789 408.538C335.453 410.912 332.722 412.767 332.814 412.936C332.914 413.121 335.852 411.524 339.195 409.144C342.532 406.766 345.228 404.86 345.138 404.696Z" fill="#FF9A6C"/>
<path d="M349.524 409.482C349.39 409.349 347.263 411.164 344.406 413.122C341.561 415.099 339.288 416.793 339.409 416.973C339.515 417.127 341.946 415.72 344.816 413.728C347.704 411.748 349.679 409.631 349.524 409.482Z" fill="#FF9A6C"/>
<path d="M346.691 379.207C346.674 379.124 345.707 379.228 344.23 379.749C342.754 380.263 340.801 381.273 338.925 382.777C337.048 384.282 335.606 385.93 334.661 387.184C333.718 388.442 333.247 389.298 333.321 389.352C333.514 389.511 335.724 386.295 339.368 383.356C343 380.359 346.76 379.42 346.691 379.207Z" fill="#FF9A6C"/>
<path d="M470.002 286.791C470.131 287.873 460.374 314.753 460.374 314.753L446.757 264.618L427.926 268.614C427.926 268.614 433.032 337.892 436.336 347.26C439.862 357.258 460.478 364.734 472.002 351.18C475.299 347.301 485.826 322.546 485.826 322.546L470.002 286.791Z" fill="#A26760"/>
<path d="M446.758 264.618C446.758 264.618 449.046 258.405 447.233 253.028C445.42 247.651 439.269 243.486 439.652 240.257C440.034 237.029 436.767 229.292 433.822 229.9C430.875 230.509 428.7 233.426 431.191 238.396C433.682 243.368 435.123 248.505 435.123 248.505C435.123 248.505 404.454 232.469 401.949 232.122C399.445 231.774 396.94 231.427 396.29 233.431C395.64 235.434 401.762 238.003 401.762 238.003L409.994 248.769C409.994 248.769 412.175 255.54 415.717 260.344C419.259 265.148 426.225 268.364 426.225 268.364L435.167 279.166C435.167 279.166 448.727 274.516 446.758 264.618Z" fill="#A26760"/>
<path d="M402.281 238.431C402.331 238.477 402.552 238.249 403.034 238.018C403.512 237.792 404.283 237.586 405.213 237.751C407.073 238.091 409.442 239.701 411.387 241.96C413.353 244.244 414.606 246.733 415.53 248.509C416.438 250.3 417.014 251.414 417.125 251.364C417.226 251.319 416.847 250.128 416.069 248.256C415.276 246.403 414.082 243.802 412.024 241.406C409.968 239.036 407.446 237.398 405.289 237.158C404.209 237.05 403.345 237.39 402.867 237.735C402.382 238.089 402.242 238.404 402.281 238.431Z" fill="#7B4B45"/>
<path d="M413.521 242.46C413.406 242.663 415.383 244.018 417.936 245.486C420.491 246.955 422.655 247.981 422.771 247.778C422.887 247.576 420.911 246.221 418.355 244.752C415.801 243.284 413.637 242.257 413.521 242.46Z" fill="#7B4B45"/>
<path d="M429.774 249.379C429.873 249.181 427.458 248.356 424.619 249.331C421.769 250.274 420.339 252.395 420.538 252.493C420.719 252.668 422.294 250.979 424.887 250.133C427.464 249.236 429.734 249.629 429.774 249.379Z" fill="#7B4B45"/>
<path d="M504.98 239.008L515.605 234.351L552.166 235.315L565.887 241.167L568.659 276.775C568.659 276.775 516.667 295.541 516.459 295.541C516.252 295.541 485.514 264.946 485.514 264.946L504.98 239.008Z" fill="#A26760"/>
<path d="M492.618 260.02C493 260.297 496.615 261.181 501.287 262.241C516.239 265.634 531.847 264.734 546.312 259.639L560.401 254.676C560.401 254.676 583.622 301.873 584.086 303.504C584.551 305.135 563.851 422.941 563.851 422.941H481.078L483.099 355.236C483.099 355.236 481.706 293.018 481.938 292.32C482.171 291.621 492.618 260.02 492.618 260.02Z" fill="#263238"/>
<path d="M514.631 229.959L503.887 237.654C495.625 240.314 480.936 245.402 476.479 249.876C469.747 256.635 460.921 302.051 460.921 302.051C460.921 302.051 459.376 298.152 455.866 298.152L431.813 336.439C431.813 336.439 434.252 356.442 440.056 358.539C445.86 360.637 461.824 359.484 462.056 359.484C462.288 359.484 472.038 359.484 472.038 359.484L468.348 422.855L487.747 422.939L488.521 352.493L492.141 308.582L502.163 267.689L514.631 229.959Z" fill="#455A64"/>
<path d="M474.317 276.775C474.336 276.774 474.362 277.069 474.392 277.631C474.419 278.244 474.456 279.062 474.501 280.089C474.588 282.225 474.671 285.315 474.736 289.135C474.869 296.774 474.874 307.333 474.531 318.988C474.183 330.646 473.554 341.187 472.969 348.805C472.677 352.614 472.412 355.694 472.199 357.82C472.093 358.842 472.008 359.657 471.945 360.267C471.881 360.826 471.838 361.118 471.819 361.116C471.801 361.115 471.806 360.819 471.834 360.257C471.872 359.646 471.922 358.828 471.985 357.802C472.129 355.615 472.331 352.546 472.58 348.777C473.065 341.157 473.633 330.621 473.98 318.971C474.323 307.325 474.38 296.774 474.346 289.137C474.321 285.361 474.3 282.285 474.286 280.093C474.284 279.065 474.283 278.247 474.281 277.633C474.286 277.071 474.298 276.775 474.317 276.775Z" fill="#263238"/>
<path d="M474.076 273.463C473.928 273.498 473.25 271.158 472.559 268.236C471.868 265.314 471.429 262.917 471.577 262.882C471.725 262.847 472.404 265.187 473.094 268.11C473.784 271.031 474.223 273.427 474.076 273.463Z" fill="#263238"/>
<g opacity="0.3">
<path d="M474.402 278.733C474.3 279.231 474.2 279.73 474.101 280.229C469.218 304.96 468.916 334.468 472.038 359.485C472.969 359.611 476.33 282.549 474.299 279.231" fill="black"/>
</g>
<path d="M609.207 267.329C606.845 257.608 601.31 252.98 601.31 252.98L577.151 284.827L586.241 422.857H621.154L617.159 352.781C617.159 352.781 611.569 277.05 609.207 267.329Z" fill="#455A64"/>
<path d="M598.734 261.074L603.469 255.047C603.469 255.047 593.879 244.94 579.915 239.586C573.103 236.973 562.675 232.202 562.675 232.202L555.185 222.835L553.37 249.886C553.37 249.886 552.046 309.651 551.114 320.48C550.221 330.849 539.439 378.29 539.579 422.939L591.831 422.854L580.212 353.42C580.212 353.42 584.963 309.166 585.26 307.723C585.556 306.28 598.734 261.074 598.734 261.074Z" fill="#455A64"/>
<path d="M601.308 260.701C601.423 260.8 597.638 265.42 592.854 271.019C588.069 276.62 584.098 281.079 583.983 280.979C583.868 280.88 587.653 276.261 592.437 270.661C597.221 265.061 601.193 260.602 601.308 260.701Z" fill="#263238"/>
<path d="M495.891 276.001C495.876 276.002 495.847 275.843 495.807 275.536C495.767 275.178 495.716 274.731 495.653 274.182C495.533 272.931 495.367 271.215 495.161 269.082L495.449 269.178C492.875 272.163 489.506 276.53 486.405 282.095L485.826 283.135L485.922 281.947C486.217 278.33 486.75 274.379 487.672 270.333C489.782 260.964 493.701 253.119 496.8 247.717C498.347 244.999 499.701 242.863 500.645 241.393C501.103 240.704 501.471 240.148 501.757 239.717C502.016 239.338 502.16 239.143 502.177 239.154C502.193 239.164 502.08 239.378 501.851 239.777C501.587 240.221 501.248 240.795 500.826 241.506C499.939 243.009 498.638 245.173 497.139 247.907C494.133 253.348 490.3 261.161 488.208 270.457C487.292 274.471 486.752 278.394 486.438 281.989L485.955 281.841C489.11 276.256 492.553 271.901 495.202 268.959L495.465 268.668L495.491 269.055C495.633 271.193 495.747 272.912 495.83 274.167C495.858 274.719 495.881 275.168 495.898 275.529C495.908 275.838 495.907 276 495.891 276.001Z" fill="#263238"/>
<path d="M452.062 354.656C452.047 354.648 452.118 354.467 452.265 354.13C452.439 353.748 452.66 353.263 452.93 352.668C453.23 352.038 453.588 351.265 453.963 350.348C454.344 349.434 454.816 348.411 455.243 347.24C455.695 346.079 456.187 344.806 456.642 343.413C457.141 342.034 457.572 340.529 458.047 338.952C458.932 335.779 459.761 332.248 460.381 328.494C460.975 324.734 461.303 321.118 461.463 317.824C461.506 316.175 461.573 314.608 461.533 313.141C461.541 311.673 461.476 310.308 461.412 309.061C461.374 307.812 461.25 306.689 461.176 305.7C461.108 304.71 461.011 303.861 460.925 303.168C460.855 302.517 460.798 301.986 460.754 301.567C460.72 301.2 460.71 301.006 460.727 301.004C460.743 301.001 460.785 301.19 460.85 301.552C460.919 301.968 461.006 302.495 461.112 303.143C461.227 303.834 461.351 304.681 461.445 305.672C461.546 306.661 461.694 307.786 461.753 309.038C461.84 310.288 461.925 311.658 461.935 313.133C461.991 314.607 461.94 316.182 461.908 317.84C461.772 321.152 461.456 324.789 460.859 328.571C460.236 332.347 459.389 335.895 458.475 339.078C457.985 340.659 457.537 342.169 457.021 343.547C456.548 344.941 456.035 346.212 455.56 347.369C455.111 348.537 454.616 349.554 454.21 350.461C453.81 351.37 453.425 352.132 453.1 352.751C452.795 353.33 452.548 353.801 452.352 354.174C452.176 354.498 452.077 354.663 452.062 354.656Z" fill="#263238"/>
<path d="M562.675 232.202C562.691 232.202 562.71 232.47 562.729 232.982C562.744 233.538 562.765 234.283 562.791 235.217C562.822 237.209 562.864 240.006 562.917 243.441C562.992 250.386 563.07 259.98 563.024 270.577C562.999 272.953 562.974 275.278 562.951 277.532C562.929 278.66 562.904 279.769 562.85 280.862C562.835 281.136 562.819 281.408 562.79 281.686L562.76 281.904C562.753 281.941 562.744 281.984 562.727 282.039C562.719 282.06 562.705 282.088 562.692 282.11L562.681 282.128C562.665 282.149 562.643 282.171 562.616 282.189C562.573 282.225 562.469 282.236 562.476 282.23C562.437 282.224 562.396 282.214 562.358 282.2C562.142 282.093 562.083 282.01 561.964 281.916C561.561 281.545 561.203 281.162 560.846 280.78C558.031 277.704 555.604 274.786 553.498 272.275L553.821 272.181C553.179 276.277 552.654 279.622 552.282 281.996C552.094 283.121 551.945 284.014 551.834 284.672C551.782 284.951 551.739 285.179 551.704 285.368C551.671 285.525 551.651 285.604 551.641 285.602C551.632 285.6 551.635 285.518 551.65 285.36C551.671 285.169 551.696 284.938 551.727 284.656C551.813 283.995 551.93 283.096 552.077 281.965C552.41 279.585 552.88 276.232 553.455 272.126L553.512 271.722L553.778 272.032C555.908 274.515 558.363 277.419 561.174 280.463C561.529 280.838 561.891 281.219 562.269 281.565C562.352 281.641 562.487 281.744 562.509 281.756C562.509 281.717 562.47 281.829 562.481 281.928C562.504 282.029 562.381 281.871 562.291 281.879L562.304 281.819L562.328 281.635C562.354 281.378 562.369 281.108 562.382 280.838C562.433 279.757 562.453 278.648 562.474 277.522C562.495 275.27 562.517 272.947 562.54 270.574C562.553 260 562.565 250.429 562.573 243.441C562.585 240.005 562.595 237.208 562.602 235.216C562.614 234.281 562.624 233.536 562.632 232.98C562.644 232.471 562.658 232.202 562.675 232.202Z" fill="#263238"/>
<path d="M583.98 288.081C583.989 288.081 583.99 288.191 583.984 288.403C583.975 288.64 583.964 288.951 583.949 289.348C583.906 290.207 583.845 291.426 583.768 292.983C583.588 296.172 583.332 300.746 583.013 306.409C582.328 317.801 581.38 333.572 580.319 351.217L580.316 351.16C580.572 352.656 580.846 354.256 581.122 355.869C584.259 374.374 587.098 391.123 589.158 403.28C590.16 409.329 590.972 414.234 591.539 417.657C591.806 419.335 592.016 420.647 592.162 421.57C592.225 421.999 592.274 422.336 592.312 422.59C592.342 422.82 592.354 422.939 592.346 422.94C592.338 422.942 592.31 422.826 592.262 422.598C592.213 422.346 592.148 422.012 592.065 421.587C591.897 420.668 591.657 419.36 591.352 417.689C590.749 414.273 589.885 409.378 588.82 403.339C586.724 391.189 583.835 374.448 580.644 355.952C580.368 354.339 580.095 352.739 579.839 351.243L579.834 351.215L579.836 351.187C580.957 333.545 581.959 317.778 582.682 306.389C583.064 300.73 583.372 296.159 583.587 292.973C583.701 291.417 583.791 290.2 583.855 289.343C583.889 288.949 583.915 288.638 583.936 288.402C583.958 288.189 583.972 288.08 583.98 288.081Z" fill="#263238"/>
<path d="M503.198 141.314C494.887 141.494 487.75 153.892 488.985 160.876C489.586 164.269 491.113 168.161 488.379 170.673C485.672 173.159 479.977 172.946 477.397 175.509C477.397 175.509 474.091 178.809 474.45 183.092C474.808 187.375 474.116 193.073 470.719 194.592L487.592 200.667C489.335 198.899 490.031 196.111 491.775 194.343C489.781 196.196 487.845 202.808 496.876 203.556L502.493 198.588C517.847 202.558 533.976 207.493 546.251 200.797" fill="#263238"/>
<path d="M581.39 178.457C580.283 175.25 578.465 172.289 577.699 168.982C576.053 161.874 579.372 153.778 575.808 147.417C573.271 142.889 568.001 140.744 563.028 139.305C558.056 137.865 553.305 137.015 549.552 133.438C546.799 130.814 545.195 127.162 542.451 124.529C538.541 120.778 532.847 119.586 527.443 119.35C521.894 119.108 516.172 119.746 511.23 122.292C506.288 124.838 502.231 129.523 501.44 135.043C501.055 137.733 501.433 140.54 500.637 143.137C499.761 145.995 497.578 148.244 496.256 150.924C493.461 156.584 495.165 164.107 500.123 167.996L539.064 216.652C547.113 219.54 555.878 209.277 561.951 203.239C568.024 197.2 584.19 186.564 581.39 178.457Z" fill="#263238"/>
<path d="M501.016 162.235C502.384 151.004 510.635 137.612 521.756 139.461L556.178 150.388C559.557 150.95 561.365 153.663 561.097 157.09L553.999 240.499C554.081 240.522 553.139 241.838 553.221 241.861C553.221 241.861 543.915 265.265 521.231 256.665C516.733 254.959 514.695 256.541 514.078 251.317C513.095 250.926 508.414 249.28 508.44 248.694L514.632 229.958C514.952 223.125 515.15 221.05 515.142 221.114C515.142 221.114 500.934 218.403 499.063 199.438C498.131 190.007 499.496 174.712 501.016 162.235Z" fill="#A26760"/>
<path d="M528.186 178.399C528.067 179.668 529.039 180.817 530.358 180.966C531.674 181.116 532.841 180.21 532.96 178.94C533.079 177.67 532.107 176.52 530.791 176.37C529.471 176.222 528.305 177.129 528.186 178.399Z" fill="#263238"/>
<path d="M504.25 177.777C504.131 179.046 505.103 180.195 506.423 180.344C507.739 180.493 508.905 179.588 509.025 178.318C509.144 177.048 508.172 175.898 506.856 175.748C505.536 175.599 504.37 176.506 504.25 177.777Z" fill="#263238"/>
<path d="M503.224 170.297C503.492 170.734 505.698 169.278 508.498 169.636C511.3 169.946 513.124 171.883 513.483 171.522C513.657 171.363 513.426 170.607 512.636 169.736C511.86 168.869 510.459 167.946 508.714 167.736C506.968 167.529 505.397 168.096 504.448 168.758C503.479 169.42 503.09 170.1 503.224 170.297Z" fill="#263238"/>
<path d="M528.832 172.671C529.169 173.071 531.335 171.433 534.34 171.507C537.345 171.535 539.506 173.247 539.843 172.858C540.008 172.686 539.679 171.972 538.735 171.198C537.81 170.428 536.218 169.664 534.343 169.631C532.47 169.602 530.874 170.309 529.946 171.048C529.002 171.79 528.667 172.492 528.832 172.671Z" fill="#263238"/>
<path d="M518.724 190.534C518.744 190.387 517.155 190.014 514.572 189.527C513.917 189.419 513.3 189.251 513.215 188.792C513.088 188.304 513.405 187.607 513.771 186.855C514.486 185.29 515.233 183.648 516.017 181.928C519.147 174.91 521.454 169.122 521.171 168.998C520.889 168.874 518.122 174.463 514.993 181.482C514.237 183.214 513.514 184.864 512.827 186.444C512.533 187.182 512.054 188.01 512.333 189.023C512.482 189.528 512.944 189.916 513.361 190.056C513.776 190.21 514.148 190.239 514.473 190.279C517.081 190.573 518.705 190.681 518.724 190.534Z" fill="#263238"/>
<path d="M515.141 221.115C515.141 221.115 527.687 222.674 540.605 215.882C540.605 215.882 533.502 229.269 514.869 226.405L515.141 221.115Z" fill="#7B4B45"/>
<path d="M528.921 163.842C529.134 164.562 531.734 164.38 534.742 164.927C537.763 165.411 540.155 166.447 540.594 165.838C540.792 165.546 540.405 164.858 539.456 164.117C538.517 163.378 536.992 162.638 535.185 162.326C533.376 162.019 531.694 162.211 530.563 162.596C529.424 162.98 528.831 163.501 528.921 163.842Z" fill="#263238"/>
<path d="M504.025 160.941C504.51 161.561 506.58 161.07 509.027 161.186C511.478 161.226 513.521 161.848 514.034 161.26C514.26 160.973 513.969 160.365 513.097 159.753C512.238 159.145 510.773 158.602 509.089 158.548C507.406 158.496 505.919 158.944 505.033 159.497C504.132 160.051 503.813 160.64 504.025 160.941Z" fill="#263238"/>
<path d="M592.465 174.861C590.694 171.58 594.107 167.921 591.394 164.895C588.918 162.135 582.395 162.036 580.072 159.223C578.256 157.027 578.179 156.447 578.119 154.387C578.044 151.807 576.883 140.964 561.119 138.762L558.931 148.615C557.947 148.151 556.926 147.751 555.919 147.381C543.084 142.67 529.688 139.502 516.108 137.964C514.471 140.787 516.098 144.558 518.681 146.544C521.264 148.531 524.549 149.274 527.616 150.364C530.684 151.453 533.839 153.159 535.147 156.148C536.54 159.328 535.48 163.142 536.712 166.387C538.83 171.972 546.677 173.644 548.764 179.24C550.341 183.473 547.964 188.052 547.43 192.54C546.824 197.625 548.792 202.954 552.553 206.414C555.519 209.143 560.564 214.094 560.911 213.101L603.113 186.608C605.536 180.661 594.89 179.35 592.465 174.861Z" fill="#263238"/>
<path d="M499.893 206.969C499.898 206.98 499.75 207.057 499.461 207.19C499.177 207.337 498.738 207.502 498.16 207.686C497.007 208.044 495.233 208.333 493.069 208.054C490.933 207.75 488.371 206.843 486.238 204.859C485.178 203.875 484.262 202.623 483.613 201.185C482.976 199.742 482.598 198.126 482.526 196.456C482.384 193.109 483.575 189.902 485.533 187.763C487.479 185.6 489.95 184.436 492.073 184.015C494.216 183.59 496.007 183.807 497.173 184.111C497.759 184.27 498.204 184.415 498.496 184.549C498.79 184.669 498.942 184.738 498.937 184.75C498.932 184.762 498.77 184.717 498.47 184.621C498.173 184.511 497.723 184.39 497.141 184.255C495.979 183.998 494.217 183.829 492.129 184.277C490.059 184.722 487.668 185.883 485.793 187.995C483.91 190.081 482.767 193.186 482.903 196.439C482.974 198.062 483.338 199.631 483.95 201.032C484.577 202.428 485.454 203.642 486.476 204.602C488.53 206.541 491.019 207.456 493.107 207.787C495.223 208.093 496.969 207.852 498.121 207.543C498.698 207.383 499.141 207.242 499.432 207.118C499.728 207.01 499.887 206.958 499.893 206.969Z" fill="#E0E0E0"/>
<path d="M583.358 198.479C583.352 198.477 583.387 198.377 583.461 198.188C583.532 197.997 583.664 197.724 583.752 197.337C583.968 196.584 584.151 195.399 583.891 193.92C583.636 192.461 582.902 190.672 581.348 189.223C580.576 188.502 579.582 187.925 578.432 187.599C577.279 187.27 575.988 187.162 574.689 186.713C574.044 186.491 573.403 186.148 572.871 185.648C572.334 185.153 571.935 184.504 571.655 183.805C571.105 182.392 571.027 180.803 571.111 179.213C571.199 177.626 571.398 175.987 571.172 174.335C571.053 173.515 570.815 172.699 570.38 171.977C569.911 171.283 569.352 170.614 568.6 170.166C567.136 169.213 565.34 168.788 563.542 168.341C561.749 167.889 559.83 167.457 558.169 166.342C557.335 165.803 556.635 165.032 556.128 164.157C555.62 163.274 555.333 162.284 555.14 161.29C554.759 159.292 554.758 157.241 554.383 155.238C553.664 151.22 550.667 147.907 547.111 146.568C545.33 145.863 543.417 145.819 541.56 145.634C540.63 145.54 539.699 145.41 538.812 145.117C537.926 144.836 537.087 144.373 536.439 143.712C535.123 142.373 534.669 140.584 534.095 139.024C533.562 137.429 532.718 136.026 531.67 134.861C529.542 132.556 526.732 131.249 524.094 130.965C521.437 130.647 519.015 131.393 517.198 132.461C515.365 133.542 514.095 134.922 513.236 136.142C512.398 137.387 511.941 138.476 511.713 139.233C511.573 139.604 511.529 139.906 511.466 140.1C511.413 140.296 511.384 140.396 511.377 140.395C511.377 140.395 511.425 139.978 511.64 139.21C511.845 138.441 512.285 137.332 513.113 136.059C513.963 134.811 515.235 133.395 517.09 132.278C518.926 131.174 521.399 130.39 524.123 130.697C526.825 130.972 529.705 132.291 531.9 134.648C532.979 135.832 533.862 137.295 534.406 138.91C534.986 140.486 535.451 142.225 536.683 143.464C537.91 144.721 539.776 145.106 541.594 145.273C543.425 145.452 545.389 145.491 547.24 146.219C550.915 147.598 554.005 151.009 554.753 155.165C555.135 157.215 555.135 159.268 555.508 161.216C555.696 162.185 555.972 163.136 556.451 163.97C556.931 164.797 557.583 165.519 558.376 166.033C561.593 168.133 565.684 167.871 568.79 169.872C569.577 170.345 570.179 171.058 570.671 171.799C571.133 172.571 571.38 173.435 571.501 174.286C571.727 175.999 571.516 177.655 571.423 179.228C571.333 180.794 571.407 182.346 571.925 183.695C572.189 184.361 572.56 184.974 573.061 185.44C573.557 185.91 574.155 186.239 574.777 186.458C576.025 186.9 577.317 187.02 578.494 187.364C579.676 187.707 580.704 188.316 581.489 189.064C583.071 190.569 583.795 192.403 584.032 193.893C584.274 195.403 584.064 196.602 583.822 197.357C583.721 197.745 583.575 198.015 583.493 198.202C583.411 198.39 583.363 198.482 583.358 198.479Z" fill="#455A64"/>
<path d="M527.814 194.403C527.64 194.177 527.432 193.953 527.158 193.875C526.836 193.783 526.497 193.91 526.185 194.034C523.633 195.057 521.081 196.08 518.528 197.103C518.732 201.41 521.423 203.076 523.44 203.114C525.457 203.151 527.447 201.947 528.355 200.138C529.264 198.33 529.044 196.009 527.814 194.403Z" fill="#7B4B45"/>
<path d="M522.421 202.963C522.413 202.86 523.789 203.245 525.735 202.421C526.663 202.009 527.781 201.264 528.258 199.992C528.747 198.715 528.781 197.104 528.216 195.624C527.986 195.024 527.668 194.475 527.292 194.009L527.566 194.079C524.967 195.137 522.628 195.936 520.938 196.45C519.248 196.964 518.209 197.208 518.193 197.152C518.176 197.091 519.182 196.742 520.84 196.147C522.499 195.552 524.807 194.701 527.386 193.629L527.548 193.562L527.661 193.699C528.073 194.202 528.419 194.798 528.668 195.446C529.278 197.046 529.226 198.783 528.674 200.157C528.098 201.596 526.856 202.35 525.865 202.743C524.841 203.145 523.938 203.186 523.339 203.154C522.733 203.107 522.416 202.986 522.421 202.963Z" fill="#263238"/>
<path d="M187.567 320.895L200.443 317.131L216.419 311.008L229.098 304.035C229.098 304.035 230.206 302.924 228.652 301.537C227.098 300.15 220.201 304.023 220.201 304.023L214.742 306.088C214.742 306.088 210.139 306.472 210.396 306.034C210.653 305.596 217.792 302.094 217.792 302.094L229.977 295.369C229.977 295.369 233.416 293.564 232.348 291.254C231.84 290.153 230.574 289.502 228.234 290.412C225.895 291.322 222.212 293.668 220.893 294.216C219.574 294.765 212.047 298.195 212.047 298.195L227.638 287.358C227.638 287.358 232.721 284.284 231.092 282.111C229.463 279.937 226.368 282.334 224.588 283.032C222.809 283.73 213.021 290.07 209.207 291.831C205.937 293.341 206.725 292.086 206.725 292.086C206.725 292.086 211.902 288.843 215.984 286.286C220.065 283.728 223.164 281.189 220.506 279.507C218.772 278.41 210.944 282.646 210.944 282.646L199.385 289.196L193.876 291.667L198.467 287.497C198.467 287.497 201.919 285.086 203.488 281.154C205.098 277.12 201.839 276.985 201.839 276.985L182.98 290.07C180.046 292.67 176.587 305.188 176.587 305.188L140.21 319.946L155.307 342.352L187.567 320.895Z" fill="#FFBF9D"/>
<path d="M193.403 291.206C193.426 291.188 193.638 291.416 193.969 291.873C194.299 292.329 194.728 293.03 195.149 293.953C195.996 295.779 196.71 298.622 196.289 301.734C195.865 304.847 194.425 307.39 193.126 308.919C192.478 309.694 191.88 310.253 191.442 310.603C191.004 310.954 190.74 311.118 190.722 311.094C190.662 311.024 191.657 310.273 192.859 308.701C194.061 307.15 195.4 304.668 195.809 301.667C196.214 298.667 195.581 295.911 194.833 294.091C194.09 292.25 193.327 291.258 193.403 291.206Z" fill="#FF9A6C"/>
<path d="M192.404 240.197C192.69 238.853 194.041 238.062 195.16 237.25C199.166 234.34 201.328 229.135 200.549 224.274C199.77 219.415 196.086 215.117 191.364 213.564C190.198 213.18 188.941 212.932 187.984 212.17C185.603 210.274 186.369 206.563 185.464 203.675C183.549 197.56 174.729 196.355 171.568 190.766C169.641 187.357 170.285 183.176 170.456 179.277C170.627 175.377 169.887 170.828 166.465 168.879C164.623 167.831 162.325 167.764 160.526 166.643C156.816 164.332 156.975 159.075 155.604 154.957C153.444 148.471 146.086 144.128 139.295 145.33C139.295 145.33 141.997 139.453 134.841 136.447C126.201 132.82 125.648 138.959 121.67 135.134C117.441 131.068 110.2 130.558 105.442 133.99C103.959 135.06 102.706 136.453 101.081 137.299C99.0983 138.33 96.7772 138.44 94.5902 138.918C86.2486 140.743 79.7535 148.774 79.7833 157.227L134.362 251.451C136.253 260.413 130.725 264.429 138.463 269.46C140.086 270.515 151.71 273.63 153.623 273.959C156.011 274.369 161.752 274.576 163.967 273.607C168.776 271.5 176.028 268.304 177.95 263.461C183.122 265.752 189.74 264.244 193.368 259.949C196.997 255.654 197.322 248.942 194.125 244.313C193.251 243.049 192.086 241.695 192.404 240.197Z" fill="#263238"/>
<path d="M80.7902 171.332L80.0336 164.878L118.577 153.823C130.56 151.425 144.814 162.204 146.745 174.15C148.89 187.422 150.979 203.71 150.346 213.822C149.073 234.155 133.799 238.155 133.799 238.155L137.33 272.734L136.726 281.626L98.5809 247.799L80.7902 171.332Z" fill="#FFBF9D"/>
<path d="M142.822 190.787C143.002 192.139 141.993 193.403 140.569 193.612C139.148 193.822 137.848 192.899 137.668 191.546C137.488 190.194 138.496 188.928 139.917 188.718C141.34 188.509 142.641 189.434 142.822 190.787Z" fill="#263238"/>
<path d="M143.288 183.061C142.999 183.425 140.891 182.169 138.098 182.437C135.303 182.666 133.39 184.28 133.054 183.969C132.89 183.833 133.16 183.198 133.99 182.471C134.807 181.749 136.246 180.985 137.988 180.83C139.729 180.677 141.256 181.174 142.159 181.745C143.083 182.317 143.432 182.896 143.288 183.061Z" fill="#263238"/>
<path d="M117.27 193.263C117.45 194.615 116.44 195.879 115.016 196.088C113.595 196.298 112.295 195.375 112.115 194.023C111.934 192.671 112.943 191.405 114.365 191.196C115.789 190.985 117.089 191.911 117.27 193.263Z" fill="#263238"/>
<path d="M115.867 186.143C115.577 186.508 113.468 185.252 110.676 185.52C107.881 185.749 105.968 187.362 105.632 187.051C105.469 186.915 105.735 186.281 106.569 185.554C107.386 184.831 108.825 184.068 110.566 183.914C112.308 183.76 113.834 184.258 114.739 184.827C115.659 185.399 116.01 185.978 115.867 186.143Z" fill="#263238"/>
<path d="M127.997 205.697C127.969 205.542 129.678 205.083 132.458 204.463C133.164 204.324 133.827 204.121 133.901 203.628C134.019 203.102 133.647 202.369 133.221 201.58C132.385 199.934 131.509 198.209 130.589 196.402C126.916 189.022 124.184 182.926 124.486 182.784C124.787 182.64 128.009 188.505 131.683 195.886C132.571 197.707 133.42 199.443 134.228 201.105C134.576 201.882 135.129 202.748 134.868 203.84C134.726 204.386 134.239 204.817 133.794 204.983C133.35 205.163 132.949 205.208 132.598 205.262C129.78 205.677 128.023 205.854 127.997 205.697Z" fill="#263238"/>
<path d="M133.796 238.209C133.796 238.209 119.562 240.374 105.286 233.609C105.286 233.609 113.605 247.684 134.385 243.892L133.796 238.209Z" fill="#FF9A6C"/>
<path d="M115.539 175.241C115.336 176.019 112.511 175.923 109.271 176.619C106.015 177.253 103.463 178.449 102.963 177.815C102.738 177.51 103.13 176.761 104.129 175.933C105.117 175.107 106.742 174.259 108.689 173.858C110.637 173.462 112.469 173.603 113.71 173.971C114.959 174.339 115.621 174.873 115.539 175.241Z" fill="#263238"/>
<path d="M141.485 175.156C141.054 175.829 139.065 175.358 136.747 175.543C134.423 175.648 132.513 176.364 131.997 175.75C131.769 175.449 132.017 174.792 132.816 174.117C133.603 173.446 134.968 172.829 136.563 172.729C138.158 172.63 139.593 173.071 140.46 173.638C141.34 174.207 141.673 174.828 141.485 175.156Z" fill="#263238"/>
<path d="M147.503 159.27C142.632 153.847 135.777 150.015 128.381 148.581L95.7489 153.818L87.0434 159.253C86.324 157.34 85.8624 156.149 85.8624 156.149C82.659 154.06 73.9424 149.847 66.8796 157.458C64.3314 160.203 62.457 167.304 62.5883 170.951C62.6376 172.331 62.8665 174.005 61.6771 174.814C61.2611 175.098 60.7428 175.205 60.2458 175.33C51.9843 177.391 46.5138 186.331 48.7725 194.08C48.9214 194.591 49.101 195.114 49.035 195.639C48.9317 196.467 48.2569 197.109 47.679 197.74C43.9116 201.851 43.2825 208.238 46.1788 212.957C47.0722 214.413 48.2821 215.759 48.6525 217.402C49.316 220.341 47.1494 223.076 45.4938 225.637C40.5305 233.318 39.9535 244.199 46.6022 250.725C48.2188 252.312 50.2662 253.702 50.9512 255.797C51.2863 256.821 51.2518 257.912 51.3011 258.98C51.5478 264.399 54.9149 270.333 60.6236 271.24C63.7925 271.743 67.5562 270.756 69.9014 272.823C70.9233 273.724 71.4035 275.022 72.0848 276.171C74.6851 280.554 80.86 282.741 85.8773 281.057C90.8945 279.372 94.1509 274.017 93.1495 269.098C99.21 266.739 103.233 260.462 102.619 254.324C102.619 254.324 99.035 235.397 100.589 230.165C102.143 224.932 97.8968 214.113 95.5255 208.872C93.1541 203.631 94.9876 191.12 95.2854 186.165C95.3375 185.3 95.0797 183.813 94.6255 181.963L94.6293 181.967C94.6274 181.962 94.6255 181.958 94.6237 181.953C94.3314 180.763 93.9601 179.426 93.5311 177.993C93.331 176.649 93.2481 175.284 93.2035 174.024C93.0369 169.358 97.8605 165.809 102.653 167.099C103.812 167.411 105.017 167.567 106.222 167.548C110.107 167.487 113.902 165.599 116.124 162.621C120.812 166.885 128.103 168.43 134.261 166.463C136.972 169.675 139.727 172.927 143.238 175.367C146.748 177.805 151.167 179.375 155.47 178.741C155.231 171.675 152.375 164.695 147.503 159.27Z" fill="#263238"/>
<path d="M144.347 165.793C144.288 165.791 144.348 165.06 144.175 163.753C143.996 162.457 143.531 160.548 142.239 158.533C140.97 156.54 138.789 154.436 135.696 153.484C132.66 152.512 128.785 152.661 125.513 154.577L125.282 154.713L125.099 154.515C123.807 153.101 122.222 151.847 120.439 150.846C116.471 148.669 111.961 147.986 108.102 148.666C104.21 149.304 101.049 151.191 98.8396 153.143C96.6125 155.12 95.2938 157.179 94.5139 158.637C93.7516 160.115 93.4762 161.003 93.411 160.98C93.3887 160.973 93.4464 160.749 93.5767 160.327C93.6949 159.9 93.9368 159.293 94.2803 158.524C94.9987 157.01 96.2812 154.868 98.5204 152.797C100.742 150.755 103.969 148.762 107.995 148.065C111.988 147.329 116.657 148.015 120.764 150.269C122.612 151.306 124.252 152.61 125.59 154.081L125.177 154.019C128.648 152.005 132.707 151.89 135.874 152.942C139.107 153.98 141.348 156.225 142.605 158.31C143.889 160.423 144.295 162.401 144.407 163.728C144.464 164.396 144.457 164.916 144.423 165.265C144.393 165.614 144.368 165.794 144.347 165.793Z" fill="#455A64"/>
<path d="M50.7372 197.068C50.7195 196.909 53.8419 197.078 58.5696 195.712C63.2388 194.387 69.559 191.177 74.1658 185.298C74.4031 184.991 74.6395 184.685 74.8591 184.401L74.9559 184.275L75.1067 184.263C78.6739 183.98 81.8931 182.545 84.3193 180.673C86.7707 178.807 88.4999 176.58 89.5711 174.538C91.7591 170.41 91.518 167.369 91.7088 167.418C91.7312 167.419 91.7395 167.598 91.734 167.942C91.7107 168.283 91.7507 168.798 91.6381 169.445C91.4985 170.747 91.0387 172.626 89.9824 174.748C88.9373 176.869 87.1997 179.194 84.6916 181.148C82.2104 183.106 78.8787 184.623 75.1532 184.923L75.4007 184.786C75.1765 185.077 74.9345 185.39 74.6916 185.705C72.351 188.69 69.5227 191.037 66.7102 192.735C63.907 194.467 61.0945 195.512 58.6971 196.162C56.2895 196.799 54.2774 197.033 52.8907 197.098C52.1983 197.148 51.6557 197.114 51.2918 197.115C50.9279 197.106 50.7372 197.091 50.7372 197.068Z" fill="#455A64"/>
<path d="M55.3691 254.17C55.3933 254.141 55.733 254.548 56.5706 255.04C56.9903 255.283 57.544 255.52 58.2262 255.698C58.9121 255.857 59.7293 255.944 60.6357 255.847C61.5347 255.746 62.5399 255.484 63.4677 254.886C63.9396 254.602 64.3705 254.217 64.7679 253.777C65.1364 253.315 65.4929 252.801 65.7162 252.2C66.2002 251.016 66.3193 249.596 66.0187 248.182C65.6967 246.783 64.9242 245.363 63.6315 244.432L63.2751 244.176L63.7153 244.173C65.9591 244.158 68.3472 243.498 70.5175 242.187C72.6683 240.845 74.6311 238.941 76.1434 236.598C76.5473 236.03 76.8647 235.398 77.2211 234.785C77.5199 234.141 77.8642 233.509 78.1081 232.828C78.6646 231.492 79.048 230.066 79.3049 228.596C79.8335 225.652 79.8326 222.541 79.4957 219.418C78.9782 214.669 77.76 210.172 76.6525 205.979L76.6209 205.86L76.7223 205.788C81.5115 202.424 85.0415 198.044 87.2695 193.677C88.4422 191.516 89.2249 189.321 89.8745 187.269C90.1351 186.223 90.4645 185.233 90.6171 184.249C90.7111 183.76 90.8024 183.282 90.8926 182.815C90.982 182.347 91.0118 181.882 91.0722 181.434C91.4948 177.83 91.3142 174.917 91.0471 172.951C90.9447 171.962 90.7447 171.217 90.6711 170.702C90.6292 170.46 90.5957 170.267 90.5706 170.121C90.5501 169.99 90.5418 169.922 90.5464 169.921C90.5464 169.921 90.8396 170.966 91.1653 172.934C91.4706 174.902 91.6884 177.829 91.2928 181.46C91.236 181.912 91.2091 182.381 91.1234 182.852C91.0369 183.324 90.9475 183.806 90.8573 184.299C90.7102 185.292 90.3854 186.29 90.1286 187.345C89.4873 189.417 88.7093 191.633 87.5357 193.818C85.3077 198.231 81.7581 202.667 76.9187 206.078L76.9885 205.888C78.1025 210.081 79.331 214.592 79.8531 219.38C80.1928 222.528 80.1928 225.674 79.6539 228.658C79.3914 230.149 78.9978 231.603 78.4301 232.959C78.1807 233.652 77.8307 234.293 77.5245 234.946C77.1616 235.569 76.8368 236.209 76.4254 236.787C74.8833 239.164 72.8796 241.098 70.6785 242.459C68.458 243.79 66.0066 244.457 63.7116 244.46L63.7944 244.2C65.1522 245.189 65.9442 246.675 66.269 248.127C66.5706 249.594 66.4375 251.063 65.9256 252.287C65.6883 252.91 65.3142 253.441 64.9261 253.918C64.5092 254.372 64.0587 254.765 63.5692 255.054C62.605 255.661 61.5701 255.918 60.6497 256.009C59.7218 256.095 58.8898 255.994 58.1946 255.819C57.5031 255.624 56.9456 255.372 56.5268 255.113C56.1108 254.852 55.8121 254.621 55.6362 254.44C55.4547 254.266 55.3691 254.17 55.3691 254.17Z" fill="#455A64"/>
<path d="M167.276 265.762C167.273 265.757 167.339 265.71 167.473 265.623C167.619 265.529 167.814 265.402 168.064 265.242C168.33 265.081 168.651 264.872 169.011 264.593C169.377 264.324 169.807 264.023 170.249 263.628C172.047 262.119 174.502 259.564 176.288 255.634C177.171 253.678 177.865 251.39 178.151 248.856C178.422 246.327 178.237 243.545 177.406 240.773C176.59 238.002 175.169 235.23 173.135 232.785C171.13 230.317 168.455 228.227 165.354 226.815L165.121 226.708L165.301 226.526C167.977 223.824 169.95 220.206 170.723 216.227C170.992 214.949 171.11 213.653 171.12 212.371C171.141 211.088 171.017 209.816 170.776 208.582C170.553 207.344 170.18 206.149 169.715 205.01C169.266 203.863 168.68 202.791 168.041 201.776C165.462 197.705 161.599 194.867 157.653 193.511L157.484 193.454L157.561 193.292C159.567 189.07 159.692 184.529 158.733 180.875C157.778 177.18 155.754 174.383 153.792 172.508C151.813 170.61 149.883 169.574 148.552 168.973C147.881 168.675 147.354 168.473 146.993 168.356C146.824 168.297 146.691 168.25 146.587 168.213C146.495 168.18 146.45 168.16 146.452 168.156C146.452 168.156 147.228 168.316 148.592 168.882C149.942 169.458 151.902 170.475 153.92 172.372C155.921 174.244 157.994 177.063 158.985 180.808C159.98 184.509 159.877 189.121 157.847 193.429L157.755 193.209C161.774 194.574 165.706 197.45 168.336 201.585C168.989 202.616 169.585 203.707 170.045 204.874C170.519 206.033 170.9 207.251 171.129 208.513C171.375 209.771 171.501 211.068 171.481 212.374C171.471 213.68 171.352 214.999 171.078 216.298C170.291 220.346 168.282 224.028 165.552 226.779L165.499 226.49C168.654 227.931 171.366 230.062 173.394 232.57C175.453 235.057 176.886 237.873 177.704 240.687C178.536 243.502 178.711 246.327 178.424 248.887C178.121 251.452 177.404 253.761 176.497 255.731C174.664 259.688 172.16 262.238 170.328 263.726C169.877 264.116 169.44 264.411 169.066 264.673C168.698 264.944 168.37 265.145 168.099 265.298C167.841 265.448 167.64 265.565 167.489 265.653C167.351 265.73 167.279 265.768 167.276 265.762Z" fill="#455A64"/>
<path d="M120.474 210.496C123.077 210.882 125.633 211.586 128.067 212.588L128.091 212.654C127.863 214.436 127.418 216.4 125.932 217.404C124.828 218.151 123.307 218.162 122.132 217.533C120.958 216.904 120.182 215.875 119.915 214.565C119.649 213.256 120.101 211.744 120.474 210.496Z" fill="#FF9A6C"/>
<path d="M124.382 217.765C124.399 217.812 124.175 217.976 123.688 218.058C123.21 218.137 122.452 218.084 121.67 217.651C120.894 217.242 120.079 216.415 119.709 215.276C119.32 214.15 119.342 212.816 119.675 211.542C119.781 211.192 119.808 210.975 120.02 210.545C120.103 210.292 120.622 210.069 120.844 210.166C121.071 210.213 121.162 210.249 121.32 210.291C121.875 210.449 122.419 210.604 122.96 210.758C123.897 211.043 124.814 211.322 125.724 211.599C127.291 212.102 128.244 212.472 128.213 212.589C128.183 212.706 127.172 212.548 125.565 212.198C124.639 211.981 123.705 211.762 122.752 211.538C122.207 211.4 121.659 211.261 121.098 211.12L120.707 211.021C120.682 211.087 120.683 210.852 120.673 210.88C120.643 210.873 120.814 211.018 120.763 210.995C120.703 211.114 120.586 211.509 120.519 211.762C120.218 212.916 120.185 214.073 120.474 215.03C120.747 215.993 121.355 216.697 121.987 217.121C123.289 217.999 124.37 217.619 124.382 217.765Z" fill="#263238"/>
<path d="M68.9419 422.856H179.917L177.298 378.039L173.369 324.297C172.629 314.175 169.141 304.451 163.284 296.18L154.847 284.266L144.413 270.081L137.987 257.312L98.1462 240.797L93.2267 251.1C93.2267 251.1 87.4296 255.326 83.7107 258.546C76.4887 264.8 72.2663 273.038 69.8586 282.301C69.8354 282.392 69.8121 282.482 69.7888 282.573C67.4603 291.667 69.2751 304.804 69.2751 304.804L82.5231 369.418C77.9219 378.868 74.5175 388.863 72.4794 399.18C71.9117 402.048 70.1285 413.492 68.9419 422.856Z" fill="#455A64"/>
<path d="M139.749 264.059C139.696 264.084 139.376 263.517 138.837 262.46C138.234 261.226 137.493 259.712 136.613 257.912L137.174 257.901C135.972 260.901 134.478 264.63 132.806 268.801L132.646 269.201L132.243 269.035C130.26 268.219 128.137 267.347 125.942 266.444C119.46 263.759 113.612 261.283 109.396 259.449C107.432 258.575 105.77 257.834 104.421 257.234C103.254 256.692 102.62 256.366 102.643 256.309C102.666 256.251 103.346 256.468 104.554 256.911C105.932 257.44 107.631 258.092 109.638 258.861C113.916 260.545 119.803 262.928 126.285 265.613C128.476 266.526 130.594 267.409 132.573 268.234L132.01 268.469C133.771 264.335 135.345 260.639 136.611 257.665L136.894 257.001L137.17 257.656C137.95 259.502 138.607 261.054 139.142 262.319C139.585 263.421 139.803 264.035 139.749 264.059Z" fill="#263238"/>
<path d="M136.976 394.708C136.96 394.768 136.279 394.64 135.061 394.357C133.841 394.08 132.094 393.608 129.952 392.962C125.668 391.677 119.832 389.588 113.632 386.708C107.433 383.82 102.073 380.7 98.3268 378.25C96.4524 377.027 94.9634 375.994 93.9657 375.238C92.9624 374.488 92.4264 374.05 92.4617 373.999C92.4971 373.948 93.1011 374.289 94.1611 374.948C95.3887 375.701 96.8917 376.624 98.6618 377.71C102.478 380.012 107.85 383.022 114.009 385.893C120.17 388.753 125.93 390.922 130.146 392.357C132.117 393.011 133.79 393.567 135.155 394.02C136.342 394.406 136.991 394.647 136.976 394.708Z" fill="#263238"/>
<path opacity="0.3" d="M73.6967 305.665C73.6967 305.665 94.1472 362.59 100.872 372.902C107.598 383.214 110.928 386.139 121.195 384.354C131.462 382.569 176.531 367.546 176.531 367.546L175.872 358.222L134.148 367.168L110.072 362.152L88.0885 327.818L73.6967 305.665Z" fill="black"/>
<path d="M161.395 327.818L159.124 324.061L148.104 326.718L131.442 330.495C131.442 330.495 121.767 273.305 107.792 264.133C93.8168 254.961 83.6037 256.579 75.0034 272.766C66.4031 288.951 71.0341 298.382 71.0341 298.382C71.0341 298.382 93.2779 361.415 107.791 374.28C122.304 387.144 170.142 362.866 170.142 362.866L179.839 354.702L161.395 327.818Z" fill="#455A64"/>
<path d="M161.395 327.818C161.406 327.811 161.52 327.958 161.736 328.252C161.968 328.576 162.28 329.011 162.685 329.576C163.531 330.781 164.75 332.52 166.33 334.771C169.517 339.369 174.156 346.058 180.048 354.558L180.179 354.747L180.002 354.897C177.078 357.375 173.818 360.137 170.331 363.092L170.304 363.115L170.274 363.13C162.861 366.794 154.309 370.499 144.64 373.699C139.798 375.264 134.671 376.709 129.226 377.629C126.503 378.073 123.7 378.394 120.831 378.426C117.971 378.447 115.008 378.196 112.166 377.206C111.471 376.921 110.741 376.71 110.089 376.306L109.085 375.759C108.768 375.546 108.468 375.303 108.158 375.074C107.502 374.647 107.025 374.056 106.493 373.509L104.918 371.841C103.941 370.669 103.079 369.399 102.145 368.17C101.23 366.928 100.473 365.575 99.6204 364.268C96.3789 358.949 93.4147 353.294 90.6404 347.414C85.0257 335.679 79.8959 323.147 74.9243 310.179C73.4259 306.248 71.9675 302.341 70.6115 298.532L70.632 298.58C69.2072 295.04 69.1858 291.33 69.5497 287.762C69.988 284.19 70.9875 280.751 72.3091 277.504C73.625 274.25 75.2621 271.179 77.1597 268.315C79.0611 265.466 81.3012 262.804 84.1174 260.885C86.9085 258.953 90.3231 257.948 93.6381 258.153C96.9569 258.356 100.068 259.464 102.918 260.845C104.319 261.589 105.713 262.323 107.017 263.177C108.377 263.915 109.602 265.027 110.667 266.135C112.728 268.471 114.267 271.103 115.631 273.734C118.303 279.035 120.239 284.414 121.934 289.599C123.606 294.796 125.002 299.826 126.21 304.633C128.626 314.248 130.385 322.937 131.691 330.453L131.385 330.248C138.052 328.765 143.745 327.499 148.402 326.463C153.011 325.389 156.593 324.554 159.101 323.969L159.171 323.953L159.206 324.013C159.935 325.258 160.485 326.199 160.871 326.86C161.235 327.49 161.395 327.818 161.395 327.818C161.395 327.818 161.181 327.526 160.789 326.91C160.385 326.26 159.807 325.335 159.043 324.11L159.147 324.153C156.647 324.776 153.078 325.666 148.484 326.81C143.835 327.886 138.153 329.202 131.498 330.742L131.239 330.802L131.191 330.536C129.835 323.05 128.026 314.375 125.573 304.795C124.345 300.005 122.932 294.992 121.249 289.822C119.544 284.665 117.596 279.317 114.941 274.089C113.591 271.498 112.063 268.913 110.076 266.674C109.026 265.602 107.962 264.613 106.589 263.867C105.3 263.027 103.933 262.311 102.558 261.584C99.7684 260.239 96.7493 259.181 93.5953 258.994C90.445 258.81 87.2584 259.754 84.5985 261.596C81.9182 263.426 79.7414 266.007 77.8838 268.799C76.029 271.605 74.4133 274.642 73.1262 277.836C71.8307 281.025 70.8582 284.39 70.4338 287.862C70.0662 291.296 70.1462 294.991 71.4352 298.181L71.4557 298.23C72.807 302.024 74.2663 305.931 75.7619 309.855C80.727 322.805 85.8438 335.325 91.4296 347.033C94.1891 352.901 97.1355 358.537 100.342 363.819C101.183 365.112 101.934 366.461 102.834 367.685C103.75 368.894 104.599 370.153 105.552 371.299L107.075 372.916C107.586 373.447 108.056 374.03 108.661 374.418C108.95 374.632 109.228 374.86 109.524 375.06L110.468 375.576C111.077 375.959 111.776 376.158 112.434 376.433C115.139 377.384 118.023 377.643 120.828 377.628C123.641 377.603 126.407 377.296 129.102 376.865C134.493 375.97 139.596 374.553 144.42 373.013C154.053 369.865 162.614 366.204 170.01 362.601L169.954 362.638C173.46 359.705 176.736 356.965 179.676 354.505L179.631 354.844C173.821 346.284 169.247 339.548 166.104 334.918C164.573 332.634 163.39 330.872 162.569 329.648C162.189 329.069 161.895 328.62 161.677 328.288C161.48 327.983 161.385 327.823 161.395 327.818Z" fill="#263238"/>
<path d="M123.552 359.304C123.445 359.309 123.236 357.621 123.298 354.875C123.355 352.133 123.762 348.335 124.817 344.27C125.882 340.207 127.381 336.695 128.669 334.276C129.956 331.852 130.962 330.484 131.053 330.54C131.174 330.613 130.364 332.092 129.238 334.557C128.11 337.019 126.731 340.504 125.685 344.498C124.648 348.493 124.149 352.209 123.93 354.91C123.708 357.612 123.693 359.3 123.552 359.304Z" fill="#263238"/>
<path d="M170.142 362.866C170.096 362.907 169.662 362.505 168.917 361.741C168.17 360.979 167.125 359.841 165.874 358.401C163.373 355.52 160.053 351.395 156.933 346.45C153.815 341.499 151.616 336.636 150.435 332.986C149.835 331.165 149.431 329.665 149.233 328.611C149.021 327.56 148.934 326.975 148.994 326.962C149.147 326.926 149.694 329.223 151.031 332.772C152.352 336.326 154.606 341.071 157.691 345.969C160.779 350.863 163.993 355.019 166.36 357.993C168.734 360.964 170.242 362.776 170.142 362.866Z" fill="#263238"/>
<path d="M208.753 328.767L221.63 325.003L237.606 318.881L250.285 311.908C250.285 311.908 251.393 310.797 249.838 309.41C248.284 308.023 241.388 311.896 241.388 311.896L235.929 313.961C235.929 313.961 231.326 314.345 231.582 313.907C231.839 313.469 238.978 309.967 238.978 309.967L251.164 303.242C251.164 303.242 254.602 301.437 253.535 299.127C253.027 298.026 251.76 297.375 249.421 298.285C247.082 299.195 243.398 301.541 242.079 302.089C240.761 302.638 233.233 306.068 233.233 306.068L248.825 295.231C248.825 295.231 253.907 292.157 252.279 289.984C250.65 287.811 247.555 290.207 245.775 290.905C243.996 291.603 234.208 297.943 230.394 299.704C227.124 301.214 227.912 299.959 227.912 299.959C227.912 299.959 233.088 296.716 237.17 294.159C241.251 291.601 244.35 289.062 241.692 287.38C239.958 286.283 232.131 290.519 232.131 290.519L220.571 297.07L215.062 299.541L219.653 295.371C219.653 295.371 223.105 292.96 224.674 289.029C226.284 284.995 223.025 284.86 223.025 284.86L204.166 297.945C201.232 300.545 197.773 313.062 197.773 313.062L161.394 327.278L176.869 349.975L208.753 328.767Z" fill="#FFBF9D"/>
<path d="M208.753 328.767C208.753 328.767 208.574 328.902 208.216 329.148C207.848 329.398 207.314 329.761 206.615 330.236C205.192 331.194 203.1 332.6 200.385 334.426C194.928 338.074 186.975 343.392 176.948 350.096L176.83 350.175L176.749 350.057C172.182 343.376 166.985 335.775 161.245 327.381L161.114 327.188L161.33 327.104C172.205 322.844 184.459 318.043 197.696 312.857L197.567 313.002C198.278 310.494 199.099 307.916 200.062 305.312C200.552 304.014 201.07 302.705 201.677 301.419C202.308 300.147 202.945 298.839 204.019 297.772L204.025 297.766L204.04 297.755C210.022 293.602 216.374 289.19 222.894 284.663L222.963 284.615L223.035 284.621C223.624 284.675 224.184 284.874 224.643 285.287C225.099 285.703 225.335 286.336 225.345 286.932C225.374 288.146 224.868 289.232 224.36 290.264C223.275 292.327 221.687 294.126 219.788 295.569L219.811 295.55C218.375 296.856 216.803 298.285 215.221 299.722L214.964 299.318C216.692 298.543 218.577 297.697 220.473 296.846L220.454 296.857C223.632 295.054 226.901 293.202 230.226 291.317C231.874 290.354 233.596 289.445 235.372 288.659C236.262 288.263 237.163 287.886 238.093 287.566C239.028 287.262 239.971 286.944 241.029 286.958C241.273 286.981 241.531 287.001 241.784 287.153C241.99 287.301 242.188 287.425 242.363 287.608C242.737 287.934 242.968 288.505 242.901 289.025C242.843 289.548 242.595 289.996 242.313 290.368C242.038 290.756 241.709 291.083 241.378 291.399C240.025 292.636 238.507 293.604 237.001 294.552C233.989 296.439 231.001 298.311 228.038 300.167L228.115 300.091C227.773 300.303 228.612 300.18 229.096 299.978C229.635 299.78 230.172 299.55 230.693 299.287C231.739 298.771 232.764 298.201 233.778 297.62C235.808 296.458 237.799 295.253 239.783 294.061C240.776 293.468 241.767 292.876 242.753 292.286C243.753 291.712 244.72 291.106 245.798 290.634C246.814 290.197 247.796 289.575 248.891 289.185C249.437 288.991 250.02 288.838 250.632 288.865C251.243 288.882 251.869 289.165 252.277 289.63C252.711 290.065 252.945 290.788 252.767 291.406C252.622 292.026 252.266 292.518 251.901 292.963C251.154 293.855 250.253 294.548 249.327 295.183C247.486 296.425 245.697 297.694 243.904 298.931C240.325 301.416 236.808 303.858 233.359 306.253L233.141 305.86C235.464 304.817 237.759 303.786 240.025 302.769C241.162 302.24 242.293 301.801 243.35 301.197C244.424 300.602 245.489 300.012 246.549 299.426C247.623 298.859 248.69 298.292 249.853 297.905C250.437 297.725 251.053 297.604 251.684 297.652C252.309 297.697 252.958 297.972 253.374 298.482C253.786 298.98 253.995 299.645 253.925 300.295C253.851 300.949 253.505 301.509 253.11 301.961C252.708 302.418 252.243 302.796 251.752 303.124C251.249 303.452 250.737 303.699 250.241 303.983C246.235 306.178 242.379 308.34 238.61 310.362C236.699 311.309 234.822 312.245 233.02 313.223C232.594 313.463 232.079 313.736 231.77 313.98C231.749 313.984 231.741 314.03 231.757 313.934C231.762 313.907 231.736 313.854 231.723 313.849C231.723 313.844 231.715 313.842 231.715 313.842C231.742 313.852 231.792 313.868 231.848 313.878C231.957 313.899 232.081 313.908 232.202 313.916C232.447 313.93 232.696 313.932 232.946 313.93C233.943 313.917 234.937 313.854 235.915 313.779L235.867 313.789C237.818 313.054 239.592 312.385 241.328 311.731L241.305 311.742C243.181 310.73 245.039 309.841 246.96 309.264C247.442 309.127 247.93 309.012 248.43 308.964C248.921 308.931 249.477 308.915 249.935 309.281C250.309 309.611 250.642 310.025 250.777 310.542C250.903 311.064 250.755 311.624 250.394 312.017L250.381 312.031L250.36 312.044C245.731 314.578 241.502 316.895 237.668 318.994L237.66 318.999L237.651 319.002C231.119 321.486 225.863 323.486 221.661 325.084L221.657 325.086L221.654 325.087C217.427 326.303 214.209 327.229 212.035 327.854C210.958 328.159 210.143 328.389 209.584 328.547C209.035 328.7 208.753 328.767 208.753 328.767C208.753 328.767 209.023 328.672 209.566 328.505C210.12 328.338 210.931 328.093 212 327.77C214.171 327.125 217.384 326.171 221.605 324.917L221.598 324.919C225.793 323.299 231.039 321.274 237.559 318.756L237.543 318.764C241.371 316.65 245.592 314.319 250.211 311.768L250.175 311.794C250.447 311.493 250.577 311.03 250.47 310.619C250.36 310.202 250.073 309.828 249.726 309.526C249.415 309.269 248.916 309.25 248.458 309.291C247.989 309.338 247.517 309.449 247.048 309.584C245.175 310.153 243.32 311.044 241.47 312.047L241.458 312.054L241.447 312.058C239.712 312.717 237.939 313.389 235.99 314.129L235.967 314.137L235.943 314.139C234.956 314.218 233.962 314.283 232.949 314.298C232.695 314.301 232.44 314.299 232.181 314.285C232.051 314.276 231.921 314.268 231.782 314.242C231.713 314.23 231.639 314.214 231.55 314.173C231.522 314.157 231.49 314.135 231.463 314.112C231.432 314.084 231.387 313.999 231.39 313.943C231.409 313.777 231.459 313.785 231.484 313.747C231.965 313.343 232.382 313.167 232.843 312.892C234.655 311.904 236.53 310.966 238.442 310.013C242.193 307.991 246.053 305.818 250.051 303.618C250.546 303.335 251.068 303.08 251.528 302.776C251.994 302.465 252.433 302.104 252.8 301.685C253.165 301.269 253.458 300.775 253.513 300.245C253.569 299.724 253.397 299.167 253.056 298.757C252.716 298.344 252.198 298.119 251.65 298.077C251.1 298.035 250.53 298.143 249.98 298.315C248.881 298.682 247.812 299.246 246.75 299.809C245.693 300.397 244.629 300.987 243.557 301.583C242.482 302.199 241.309 302.658 240.196 303.178C237.934 304.196 235.644 305.228 233.326 306.272L233.108 305.878C236.557 303.479 240.075 301.031 243.653 298.541C245.446 297.302 247.243 296.026 249.073 294.788C249.971 294.174 250.852 293.489 251.546 292.657C251.887 292.244 252.203 291.787 252.314 291.294C252.443 290.8 252.288 290.325 251.936 289.953C251.249 289.14 250.055 289.244 249.05 289.631C248.01 290.001 247.054 290.608 245.977 291.075C243.964 292.028 242.012 293.308 240.025 294.474C238.042 295.666 236.05 296.874 234.013 298.04C232.995 298.624 231.966 299.197 230.9 299.723C230.369 299.992 229.823 300.227 229.254 300.436C228.97 300.54 228.676 300.629 228.347 300.675C228.181 300.679 227.997 300.736 227.736 300.549C227.6 300.445 227.569 300.236 227.595 300.129C227.616 300.004 227.65 299.924 227.708 299.824L227.734 299.779L227.784 299.747C230.746 297.891 233.734 296.018 236.746 294.131C238.243 293.189 239.748 292.223 241.048 291.035C241.365 290.734 241.676 290.421 241.923 290.073C242.184 289.735 242.379 289.35 242.419 288.971C242.459 288.597 242.328 288.226 242.021 287.952C241.889 287.807 241.695 287.689 241.541 287.574C241.407 287.486 241.2 287.462 241.004 287.445C240.101 287.429 239.152 287.727 238.249 288.027C237.339 288.34 236.447 288.713 235.568 289.104C233.801 289.888 232.112 290.778 230.458 291.744C227.134 293.627 223.865 295.478 220.688 297.278L220.678 297.284L220.668 297.289C218.772 298.138 216.885 298.984 215.158 299.759L213.773 300.38L214.901 299.356C216.483 297.92 218.056 296.491 219.493 295.187L219.5 295.181L219.517 295.168C221.332 293.791 222.904 292.018 223.941 290.036C224.436 289.046 224.905 287.986 224.873 286.95C224.861 286.438 224.676 285.962 224.326 285.636C223.979 285.314 223.474 285.135 223.014 285.093L223.155 285.052C216.631 289.574 210.276 293.979 204.291 298.128L204.311 298.112C203.346 299.065 202.689 300.364 202.076 301.611C201.474 302.879 200.96 304.178 200.471 305.468C199.512 308.054 198.688 310.627 197.979 313.117L197.949 313.223L197.849 313.261C184.603 318.424 172.342 323.204 161.459 327.445L161.543 327.168C167.26 335.578 172.437 343.194 176.987 349.888L176.788 349.848C186.854 343.189 194.837 337.907 200.314 334.283C203.044 332.487 205.149 331.103 206.58 330.161C207.286 329.701 207.825 329.351 208.198 329.108C208.563 328.876 208.753 328.767 208.753 328.767Z" fill="#FF9A6C"/>
</svg>
