<svg width="339" height="69" viewBox="0 0 339 69" fill="none" xmlns="http://www.w3.org/2000/svg">
<path fill-rule="evenodd" clip-rule="evenodd" d="M64.459 1.067C63.286 2.964 64.996 3.432 66.738 1.69C68.297 0.132 68.3 0 66.773 0C65.863 0 64.821 0.48 64.459 1.067ZM152.164 4.908C149.229 5.922 145.619 7.645 144.14 8.738L141.453 10.725L138.079 8.414C132.635 4.684 126.491 4 98.409 4H71.916L68.912 10.695L65.908 17.39L62.798 10.695L59.687 4H29.844H0V35.5V67H28.489H56.978L61.374 58.253L65.769 49.505L70.107 58.253L74.446 67H94.723H115V58.145V49.289L121.75 48.652C132.325 47.653 132.637 47.71 133.947 50.871C135.688 55.074 142.765 61.832 148.5 64.768C152.158 66.64 155.571 67.452 161.215 67.79C170.452 68.344 177.162 66.485 184.25 61.406L189 58.003V62.502V67H213C232.449 67 237 66.745 237 65.654C237 64.585 238.081 64.681 242.25 66.121C252.901 69.8 266.065 67.887 274.525 61.429L279.134 57.911L282.744 61.08C295.178 71.997 318.125 70.459 329.426 57.95C334.862 51.933 337.258 45.865 337.798 36.75L338.257 29H320.628H303V37V45L307.75 45.033L312.5 45.067L310.139 47.033C308.841 48.115 306.681 49 305.34 49C294.66 49 290.403 32.42 299.084 24.641C301.723 22.277 302.88 21.881 305.781 22.352C307.709 22.665 310.331 23.901 311.606 25.1L313.926 27.279L323.948 23.519L333.971 19.76L332.236 16.768C329.577 12.184 323.257 7.242 317.079 4.913C312.494 3.185 309.897 2.883 302.5 3.22C292.876 3.658 287.165 5.725 281.863 10.689L279.225 13.158L274.363 9.743C266.939 4.53 263.497 3.5 253.5 3.5C245.667 3.5 243.761 3.863 238.797 6.3C235.499 7.92 231.207 11.2 228.618 14.08C222.603 20.771 220.701 26.748 221.15 37.56L221.5 46H217.25H213V25V4H201H189V8.432V12.865L183.923 9.448C174.363 3.015 162.541 1.324 152.164 4.908ZM90.789 41.658L90.5 50.316L84.838 41.801L79.177 33.285L84.838 24.717L90.5 16.148L90.789 24.574C90.948 29.208 90.948 36.896 90.789 41.658ZM47.596 41.217L42.5 48.955L32.75 48.977C23.011 49 23 48.997 23 46.5C23 44.029 23.1 44 31.5 44H40V35.5V27H31.5C23.1 27 23 26.971 23 24.5C23 22.009 23.033 22 32.5 22C41.671 22 42 21.923 42 19.761C42 18.158 43.519 19.789 47.346 25.501L52.692 33.48L47.596 41.217ZM122.103 23.883C124.155 25.544 124.288 26.072 123.235 28.383C122.278 30.485 121.349 31 118.521 31C115.015 31 115 30.981 115 26.5C115 22.422 115.224 22 117.389 22C118.703 22 120.825 22.847 122.103 23.883ZM166.881 25.108C170.738 26.453 173 30.474 173 35.986C173 41.128 170.769 44.591 166.562 45.979C162.496 47.321 159.052 46.153 156.131 42.44C151.909 37.072 154.253 27.459 160.388 24.98C163.215 23.838 163.238 23.838 166.881 25.108ZM259.711 26.565C262.73 28.517 264.248 34.518 262.93 39.291C260.958 46.434 252.376 48.831 247.223 43.677C244.935 41.389 244.5 40.097 244.5 35.582C244.5 25.825 251.839 21.474 259.711 26.565Z" fill="#0059BF"/>
<path fill-rule="evenodd" clip-rule="evenodd" d="M64.459 1.067C63.286 2.964 64.996 3.432 66.738 1.69C68.297 0.132 68.3 0 66.773 0C65.863 0 64.821 0.48 64.459 1.067ZM152.164 4.908C149.229 5.922 145.619 7.645 144.14 8.738L141.453 10.725L138.079 8.414C132.635 4.684 126.491 4 98.409 4H71.916L68.912 10.695L65.908 17.39L62.798 10.695L59.687 4H29.844H0V35.5V67H28.489H56.978L61.374 58.253L65.769 49.505L70.107 58.253L74.446 67H94.723H115V58.145V49.289L121.75 48.652C132.325 47.653 132.637 47.71 133.947 50.871C135.688 55.074 142.765 61.832 148.5 64.768C155.191 68.193 166.682 68.988 174.155 66.544C182.522 63.807 187.464 59.778 191.714 52.227C195.394 45.688 195.5 45.221 195.5 35.5C195.5 25.752 195.403 25.328 191.655 18.668C188.82 13.631 186.587 11.06 183.155 8.883C173.767 2.928 162.195 1.444 152.164 4.908ZM276.615 17.188C273.002 22.711 271.675 27.619 271.638 35.595C271.605 42.602 271.997 44.484 274.55 49.595C276.173 52.843 278.148 55.5 278.941 55.5C279.733 55.5 281.433 53.457 282.718 50.96C287.446 41.772 287.457 29.249 282.744 20.092C280.004 14.766 278.626 14.114 276.615 17.188ZM90.789 41.658L90.5 50.316L84.838 41.801L79.177 33.285L84.838 24.717L90.5 16.148L90.789 24.574C90.948 29.208 90.948 36.896 90.789 41.658ZM47.596 41.217L42.5 48.955L32.75 48.977C23.011 49 23 48.997 23 46.5C23 44.029 23.1 44 31.5 44H40V35.5V27H31.5C23.1 27 23 26.971 23 24.5C23 22.009 23.033 22 32.5 22C41.671 22 42 21.923 42 19.761C42 18.158 43.519 19.789 47.346 25.501L52.692 33.48L47.596 41.217ZM122.103 23.883C124.155 25.544 124.288 26.072 123.235 28.383C122.278 30.485 121.349 31 118.521 31C115.015 31 115 30.981 115 26.5C115 22.422 115.224 22 117.389 22C118.703 22 120.825 22.847 122.103 23.883ZM166.881 25.108C170.738 26.453 173 30.474 173 35.986C173 41.128 170.769 44.591 166.562 45.979C162.496 47.321 159.052 46.153 156.131 42.44C151.909 37.072 154.253 27.459 160.388 24.98C163.215 23.838 163.238 23.838 166.881 25.108ZM223 46.54C223 46.837 223.862 48.769 224.916 50.835C226.588 54.113 235.034 63 236.478 63C236.765 63 237 59.175 237 54.5V46H230C226.15 46 223 46.243 223 46.54Z" fill="#0059BF"/>
<path fill-rule="evenodd" clip-rule="evenodd" d="M64.459 1.067C63.286 2.964 64.996 3.432 66.738 1.69C68.297 0.132 68.3 0 66.773 0C65.863 0 64.821 0.48 64.459 1.067ZM152.164 4.848C149.229 5.895 145.619 7.645 144.14 8.738L141.453 10.725L138.079 8.414C132.635 4.684 126.491 4 98.409 4H71.916L68.912 10.695L65.908 17.39L62.798 10.695L59.687 4H29.844H0V35.5V67H28.489H56.978L61.374 58.253L65.769 49.505L70.107 58.253L74.446 67H94.723H115V58.145V49.289L121.75 48.652C132.325 47.653 132.637 47.71 133.947 50.871C135.666 55.021 142.713 61.792 148.5 64.853C152.949 67.207 154.602 67.497 163.5 67.488C174.709 67.476 180.091 65.609 186.591 59.479L190 56.264V35.767C190 11.816 190.125 12.156 179.397 6.875C170.953 2.718 160.351 1.929 152.164 4.848ZM90.789 41.658L90.5 50.316L84.838 41.801L79.177 33.285L84.838 24.717L90.5 16.148L90.789 24.574C90.948 29.208 90.948 36.896 90.789 41.658ZM47.596 41.217L42.5 48.955L32.75 48.977C23.011 49 23 48.997 23 46.5C23 44.029 23.1 44 31.5 44H40V35.5V27H31.5C23.1 27 23 26.971 23 24.5C23 22.009 23.033 22 32.5 22C41.671 22 42 21.923 42 19.761C42 18.158 43.519 19.789 47.346 25.501L52.692 33.48L47.596 41.217ZM122.103 23.883C124.155 25.544 124.288 26.072 123.235 28.383C122.278 30.485 121.349 31 118.521 31C115.015 31 115 30.981 115 26.5C115 22.422 115.224 22 117.389 22C118.703 22 120.825 22.847 122.103 23.883ZM166.881 25.108C170.738 26.453 173 30.474 173 35.986C173 41.128 170.769 44.591 166.562 45.979C162.496 47.321 159.052 46.153 156.131 42.44C151.909 37.072 154.253 27.459 160.388 24.98C163.215 23.838 163.238 23.838 166.881 25.108Z" fill="#0059BF"/>
<path fill-rule="evenodd" clip-rule="evenodd" d="M0 35.5V67H28.489H56.978L61.374 58.253L65.769 49.505L70.107 58.253L74.446 67H87.223C94.25 67 100 66.694 100 66.32C100 65.582 95.276 57.981 85.458 42.917L79.212 33.335L87.679 20.417C92.336 13.313 96.579 6.713 97.108 5.75C98.002 4.123 97.148 4 84.993 4H71.916L68.912 10.695L65.908 17.39L62.798 10.695L59.687 4H29.844H0V35.5ZM137.053 16.242C131.918 23.225 129.787 33.683 131.625 42.875C132.435 46.927 134.849 46.95 139.404 42.95C143.626 39.243 145.255 34.678 145.235 26.606C145.22 20.736 142.674 12 140.978 12C140.535 12 138.769 13.909 137.053 16.242ZM189.423 35.5C189.424 47.05 189.57 51.638 189.747 45.696C189.924 39.753 189.923 30.303 189.745 24.696C189.567 19.088 189.422 23.95 189.423 35.5ZM47.596 41.217L42.5 48.955L32.75 48.977C23.011 49 23 48.997 23 46.5C23 44.029 23.1 44 31.5 44H40V35.5V27H31.5C23.1 27 23 26.971 23 24.5C23 22.009 23.033 22 32.5 22C41.671 22 42 21.923 42 19.761C42 18.158 43.519 19.789 47.346 25.501L52.692 33.48L47.596 41.217ZM115.813 31.683C116.534 31.972 117.397 31.936 117.729 31.604C118.061 31.272 117.471 31.036 116.417 31.079C115.252 31.127 115.015 31.364 115.813 31.683Z" fill="#0059BF"/>
<path fill-rule="evenodd" clip-rule="evenodd" d="M0 35.5V67H28.489H56.978L61.374 58.253L65.769 49.505L70.107 58.253L74.446 67H87.223C94.25 67 100 66.75 100 66.445C100 66.14 98.277 63.327 96.172 60.195C94.067 57.063 92.059 53.721 91.711 52.769C91.363 51.818 88.391 47.043 85.107 42.159L79.137 33.28L85.568 23.662C89.106 18.373 92 13.652 92 13.172C92 12.693 93.353 10.433 95.006 8.15L98.013 4H84.964H71.916L68.912 10.695L65.908 17.39L62.798 10.695L59.687 4H29.844H0V35.5ZM47.596 41.217L42.5 48.955L32.75 48.977C23.011 49 23 48.997 23 46.5C23 44.029 23.1 44 31.5 44H40V35.5V27H31.5C23.1 27 23 26.971 23 24.5C23 22.009 23.033 22 32.5 22C41.671 22 42 21.923 42 19.761C42 18.158 43.519 19.789 47.346 25.501L52.692 33.48L47.596 41.217ZM115.813 31.683C116.534 31.972 117.397 31.936 117.729 31.604C118.061 31.272 117.471 31.036 116.417 31.079C115.252 31.127 115.015 31.364 115.813 31.683Z" fill="#0059BF"/>
<path fill-rule="evenodd" clip-rule="evenodd" d="M0 35.5V67H28.489H56.978L61.374 58.253L65.769 49.505L70.107 58.253L74.446 67H83.223H92V59.742V52.485L85.574 42.875L79.147 33.265L85.574 23.655C91.347 15.021 92 13.534 92 9.022V4H81.958H71.916L68.912 10.695L65.908 17.39L62.798 10.695L59.687 4H29.844H0V35.5ZM47.596 41.217L42.5 48.955L32.75 48.977C23.011 49 23 48.997 23 46.5C23 44.029 23.1 44 31.5 44H40V35.5V27H31.5C23.1 27 23 26.971 23 24.5C23 22.009 23.033 22 32.5 22C41.671 22 42 21.923 42 19.761C42 18.158 43.519 19.789 47.346 25.501L52.692 33.48L47.596 41.217ZM115.813 31.683C116.534 31.972 117.397 31.936 117.729 31.604C118.061 31.272 117.471 31.036 116.417 31.079C115.252 31.127 115.015 31.364 115.813 31.683Z" fill="#0059BF"/>
<path fill-rule="evenodd" clip-rule="evenodd" d="M34 4.512C34 5.543 40.524 14.965 41.25 14.982C41.663 14.992 42 12.525 42 9.5V4H38C35.8 4 34 4.23 34 4.512ZM36.262 58.569L31.0229 66.5L36.122 66.806C38.927 66.974 41.4159 66.917 41.6549 66.678C41.8929 66.44 41.9559 62.733 41.7939 58.441L41.5 50.637L36.262 58.569Z" fill="#0059BF"/>
<path fill-rule="evenodd" clip-rule="evenodd" d="M37.114 8.75002C38.88 11.363 40.431 13.642 40.561 13.816C40.691 13.989 40.956 11.852 41.149 9.06502L41.5 3.99902H37.702L33.904 4.00002L37.114 8.75002ZM36.259 59.5L31.141 67H36.57H42V59.5C42 55.375 41.86 52 41.689 52C41.517 52 39.074 55.375 36.259 59.5Z" fill="#0059BF"/>
</svg>
