<svg width="175" height="170" viewBox="0 0 175 170" fill="none" xmlns="http://www.w3.org/2000/svg">
<path fill-rule="evenodd" clip-rule="evenodd" d="M91.7964 0.677015C90.2318 1.45319 89.6166 2.87608 82.3587 22.4875C79.1618 31.1275 76.2601 38.8525 75.9114 39.6543C75.4425 40.732 75.3212 35.9222 75.4472 21.1987L75.6174 1.28583L63.7608 0.862457C57.24 0.629779 51.7537 0.590125 51.5688 0.774984C51.384 0.959844 51.0265 19.1647 50.7746 41.2306C50.4643 68.3792 50.0964 82.2379 49.6357 84.0958C48.0804 90.3693 44.0992 93.3043 37.1451 93.3043C32.0845 93.3043 28.6375 91.7788 26.2489 88.4817C24.2493 85.721 23.5099 83.3324 23.0037 77.9966C22.7978 75.8314 22.4707 74.0644 22.2759 74.0696C22.0817 74.0749 17.0678 74.5992 11.1342 75.2342C5.20064 75.8698 0.280584 76.3906 0.200109 76.3912C0.119634 76.3923 0.0543213 78.5681 0.0543213 81.2273C0.0543213 92.7002 5.31027 102.873 13.9398 108.103C17.0206 109.97 22.8812 112.165 26.2962 112.731C27.098 112.864 26.5073 113.008 24.9841 113.052L22.2141 113.132V116.047C22.2141 118.874 22.1628 118.963 20.527 118.963C18.7123 118.963 18.132 119.794 18.132 122.393C18.132 124.331 19.0931 125.378 20.8729 125.378C22.2013 125.378 22.2141 125.447 22.2141 132.723C22.2141 142.988 23.3291 144.622 30.3345 144.622C34.4166 144.622 35.184 143.924 34.9332 140.437L34.7519 137.915L32.6076 138.102C29.7181 138.354 29.2119 137.25 29.2119 130.697V125.442L31.9819 125.264L34.7519 125.086V122.17V119.255L32.0361 119.079L29.3204 118.904L29.1204 116.148L28.9204 113.391L36.2098 113.372C43.3755 113.354 51.2656 112.124 53.9959 110.599C54.6374 110.241 59.2297 109.805 64.2011 109.629C73.1029 109.314 73.2977 109.279 77.0304 107.305C79.3875 106.06 82.6059 103.529 85.5409 100.615C90.289 95.9 92.2758 92.6343 95.4825 84.2754C96.3403 82.0378 97.127 81.0721 98.9027 80.0761C103.651 77.4129 108.806 77.8613 112.273 81.2389C113.323 82.2624 114.932 84.9314 115.849 87.1707C119.308 95.6282 126.874 104.567 133.388 107.894C136.099 109.279 136.68 109.341 146.91 109.341C156.921 109.341 157.655 109.267 158.468 108.175C159.065 107.373 159.226 106.301 158.985 104.745C158.791 103.5 153.952 89.8538 148.23 74.4207C142.509 58.9876 134.192 36.542 129.749 24.5408C125.306 12.5401 121.229 2.17455 120.688 1.50626C119.75 0.346367 119.103 0.286303 106.386 0.169089C97.7697 0.0897803 92.6187 0.269391 91.7964 0.677015ZM107.069 32.085C107.57 33.053 109.78 41.1227 111.98 50.0169C115.579 64.5608 115.889 66.2612 115.055 66.9167C113.863 67.855 96.2301 67.9512 95.3035 67.0246C94.8638 66.5849 95.9088 61.5097 98.8747 49.6758C101.181 40.4754 103.385 32.3573 103.774 31.636C104.748 29.8259 105.988 29.9944 107.069 32.085ZM83.4451 116.047C83.4451 118.778 83.3518 118.963 81.9691 118.963C81.1568 118.963 80.3497 119.336 80.1742 119.793C79.9165 120.465 79.6435 120.41 78.735 119.501C77.2159 117.982 74.7037 118.091 72.2089 119.784C70.2075 121.142 70.1306 121.15 69.8407 120.041C69.5859 119.068 69.1176 118.922 66.725 119.075L63.9095 119.255L63.7515 131.208C63.5753 144.496 63.6103 144.622 67.472 144.622C71.2088 144.622 71.1989 144.643 71.1989 136.457C71.1989 129.003 71.1995 128.999 72.9204 127.157C74.4307 125.54 74.8943 125.362 76.7062 125.701C78.4994 126.038 78.8341 125.915 79.2598 124.765C79.6733 123.648 79.8074 123.593 80.1211 124.41C80.3322 124.959 81.1311 125.378 81.9691 125.378H83.4451V132.433C83.4451 142.957 84.7974 144.877 91.9475 144.508C95.0597 144.347 95.4639 144.174 96.1654 142.706C96.6984 141.589 96.7766 140.589 96.4156 139.505C95.9561 138.126 95.6254 137.95 93.792 138.109C90.9526 138.353 90.4429 137.22 90.4429 130.665V125.378H93.0817C95.3997 125.378 95.7916 125.19 96.3083 123.832C96.6605 122.905 96.6949 121.678 96.394 120.77C95.9619 119.467 95.5099 119.23 93.1674 119.077L90.4429 118.899V116.015V113.132H86.944H83.4451V116.047ZM5.01112 119.221C1.36175 120.567 0.0543213 122.48 0.0543213 126.475C0.0543213 130.498 1.05151 131.698 6.65444 134.417C10.7073 136.384 11.4777 137.81 9.07627 138.904C7.78634 139.492 7.05215 139.436 4.80701 138.581C-0.352719 136.615 -0.0331516 136.517 0.16687 140.011C0.3908 143.92 1.47955 144.601 7.51867 144.613C14.4419 144.627 17.5489 142.191 17.5489 136.749C17.5489 132.751 16.1522 130.998 11.1972 128.774C9.09143 127.829 7.18161 126.753 6.95243 126.382C5.70273 124.361 10.3283 123.463 13.5129 125.11C15.8152 126.301 16.3826 125.825 16.3826 122.705C16.3826 120.402 16.1966 120.029 14.7789 119.482C12.034 118.424 7.50234 118.303 5.01112 119.221ZM43.0087 119.181C39.0555 120.294 37.7015 121.779 38.2018 124.449C38.6468 126.819 39.7827 127.139 42.5924 125.686C43.505 125.214 45.2999 124.66 46.5811 124.455C48.484 124.151 49.1359 124.308 50.1413 125.314C50.8177 125.99 51.3717 127.069 51.3717 127.71C51.3717 128.725 50.9746 128.88 48.3102 128.902C44.1593 128.937 39.7956 130.533 38.298 132.564C37.4151 133.762 37.0845 135.085 37.0845 137.42C37.0845 140.381 37.253 140.783 39.2626 142.626C41.296 144.489 41.7048 144.622 45.402 144.622C48.0909 144.622 49.7908 144.322 50.6964 143.688C51.9251 142.827 52.0873 142.83 52.745 143.73C53.2547 144.427 54.1213 144.653 55.7687 144.519L58.078 144.33L58.2378 134.268C58.415 123.066 58.0424 121.478 54.8444 119.824C52.3765 118.548 46.4091 118.224 43.0087 119.181ZM138.794 118.937C137.965 119.189 136.62 119.831 135.806 120.364C134.39 121.292 134.312 121.281 134.007 120.115C133.73 119.056 133.317 118.919 130.872 119.075L128.056 119.255V136.166V153.077H131.555H135.054L135.223 147.958L135.392 142.838L136.665 143.73C137.477 144.299 139.255 144.622 141.578 144.622C144.829 144.622 145.442 144.425 147.307 142.788C149.821 140.581 150.905 138.169 151.417 133.645C152.587 123.306 146.764 116.522 138.794 118.937ZM100.432 119.472C99.7932 119.889 99.6795 121.907 99.8638 129.548C100.071 138.144 100.224 139.312 101.378 141.179C102.083 142.321 103.335 143.563 104.16 143.938C106.562 145.033 111.458 144.782 113.637 143.453C115.906 142.07 116.102 142.042 116.102 143.101C116.102 144.067 117.359 144.625 119.503 144.613C122.55 144.596 122.552 144.581 122.383 131.459L122.225 119.255L119.948 119.068C118.695 118.966 117.055 119.037 116.303 119.225C114.952 119.564 114.935 119.667 114.935 127.458C114.935 135.24 114.914 135.367 113.392 136.777C112.544 137.563 111.264 138.207 110.548 138.207C108.088 138.207 107.665 136.822 107.354 127.769L107.063 119.255L104.147 119.103C102.543 119.02 100.871 119.186 100.432 119.472ZM157.463 128.043C153.352 136.741 151.091 141.996 151.091 142.855C151.091 143.185 152.158 143.455 153.462 143.455C155.654 143.455 155.804 143.555 155.428 144.768C153.592 150.694 147.794 157.322 141.794 160.35C132.998 164.79 124.165 164.679 114.84 160.01C111.288 158.232 105.627 152.956 103.181 149.145C100.689 145.262 100.165 146.818 102.416 151.417C106.003 158.749 113.606 165.398 121.648 168.235C125.142 169.468 126.764 169.673 133.013 169.678C141.206 169.684 144.79 168.952 150.323 166.144C158.582 161.952 165.431 154.034 168.594 145.022C169.619 142.098 169.738 141.988 172.176 141.706C173.798 141.518 174.752 141.102 174.848 140.54C174.967 139.843 163.618 123.21 161.547 121.045C161.237 120.721 159.59 123.544 157.463 128.043ZM141.992 126.14C143.695 127.843 144.322 131.108 143.519 134.09C142.37 138.359 139.491 139.489 136.75 136.749C135.44 135.438 135.309 134.895 135.465 131.375C135.629 127.651 135.734 127.395 137.619 126.127C140.076 124.475 140.328 124.476 141.992 126.14ZM51.3717 135.54C51.3717 136.375 50.7413 137.452 49.8351 138.165C47.1934 140.243 44.3739 139.467 44.3739 136.662C44.3739 134.964 45.8067 134.165 48.8933 134.143C51.1332 134.127 51.3717 134.261 51.3717 135.54Z" fill="#0059BF"/>
<path fill-rule="evenodd" clip-rule="evenodd" d="M91.1048 1.60367C89.9513 2.77289 87.7283 8.10173 82.8928 21.2851C79.2464 31.2278 76.0309 39.7564 75.7481 40.2375C75.446 40.7507 75.313 32.8793 75.4256 21.1988L75.6174 1.28585L63.7608 0.862482C57.24 0.629804 51.7537 0.59015 51.5688 0.775009C51.384 0.959869 51.0265 19.1647 50.7746 41.2306C50.297 83.0351 50.1681 85.016 47.6804 88.761C44.0718 94.1931 32.705 95.0147 27.5593 90.2148C24.8546 87.6921 22.7973 81.6926 22.7973 76.3288V73.9886L20.3189 74.3198C18.1968 74.6033 0.888227 76.393 0.270668 76.393C-0.342808 76.393 0.175031 86.534 0.941876 89.5372C3.91479 101.183 11.6503 108.845 23.5979 111.977L27.7541 113.067L24.9841 113.099L22.2141 113.132V116.047C22.2141 118.874 22.1628 118.963 20.527 118.963C18.7123 118.963 18.132 119.794 18.132 122.393C18.132 124.331 19.0931 125.378 20.8729 125.378C22.2013 125.378 22.2141 125.447 22.2141 132.723C22.2141 142.988 23.3291 144.622 30.3345 144.622C34.4166 144.622 35.184 143.924 34.9332 140.437L34.7519 137.916L32.6076 138.102C29.7181 138.354 29.2119 137.25 29.2119 130.697V125.442L31.9819 125.264L34.7519 125.086V122.17V119.255L32.0361 119.079L29.3204 118.904L29.1204 115.956L28.9204 113.01L32.7108 113.378C37.793 113.872 46.8167 112.87 51.4184 111.301C54.3353 110.307 57.0989 109.949 63.9258 109.683C72.3203 109.356 72.8527 109.261 76.5674 107.43C81.3055 105.095 88.2485 98.7411 90.9194 94.2963C91.9836 92.5259 93.6176 89.0194 94.5512 86.5048C96.5124 81.2215 98.1009 79.6359 102.398 78.6742C108.332 77.3464 113.227 80.1799 115.5 86.2587C118.608 94.5681 126.253 103.817 133.191 107.662C136.126 109.289 136.516 109.347 145.744 109.538C158.2 109.795 159.989 109.075 158.932 104.226C158.562 102.528 149.452 77.7144 128.527 21.4081C121.968 3.76075 121.032 1.61475 119.557 0.851985C118.26 0.181943 115.218 0 105.298 0H92.6857L91.1048 1.60367ZM107.026 32.0028C107.504 32.9259 109.753 41.1035 112.025 50.175C115.274 63.142 115.995 66.7709 115.4 67.1482C114.252 67.876 96.0429 67.764 95.3035 67.0246C94.8638 66.5849 95.9088 61.5097 98.8747 49.6758C101.181 40.4754 103.385 32.3574 103.774 31.636C104.736 29.8475 105.985 29.9886 107.026 32.0028ZM83.4451 116.047C83.4451 118.778 83.3518 118.963 81.9691 118.963C81.1568 118.963 80.3497 119.336 80.1742 119.793C79.9164 120.465 79.6435 120.41 78.735 119.501C77.2159 117.982 74.7036 118.091 72.2089 119.784C70.2075 121.142 70.1306 121.15 69.8407 120.041C69.5859 119.068 69.1176 118.922 66.725 119.075L63.9095 119.255L63.7515 131.208C63.5753 144.496 63.6103 144.622 67.472 144.622C71.2088 144.622 71.1989 144.643 71.1989 136.457C71.1989 129.003 71.1995 128.999 72.9204 127.157C74.4307 125.54 74.8943 125.362 76.7062 125.701C78.4994 126.038 78.8341 125.915 79.2598 124.765C79.6733 123.648 79.8074 123.593 80.1211 124.41C80.3322 124.959 81.1311 125.378 81.9691 125.378H83.4451V132.433C83.4451 142.957 84.7974 144.877 91.9475 144.508C95.0597 144.347 95.4639 144.174 96.1654 142.706C96.6984 141.589 96.7765 140.589 96.4156 139.505C95.956 138.126 95.6254 137.951 93.792 138.109C90.9526 138.353 90.4429 137.22 90.4429 130.665V125.378H93.0817C95.3997 125.378 95.7916 125.19 96.3083 123.832C96.6605 122.905 96.6949 121.678 96.394 120.77C95.9619 119.467 95.5099 119.23 93.1674 119.077L90.4429 118.899V116.015V113.132H86.944H83.4451V116.047ZM5.01111 119.221C1.36175 120.567 0.0543187 122.48 0.0543187 126.475C0.0543187 130.498 1.05151 131.698 6.65444 134.417C10.7073 136.384 11.4777 137.81 9.07627 138.904C7.78633 139.492 7.05215 139.436 4.80701 138.581C-0.352722 136.615 -0.0331541 136.517 0.166867 140.011C0.390798 143.92 1.47954 144.601 7.51867 144.613C14.4419 144.627 17.5489 142.191 17.5489 136.749C17.5489 132.751 16.1522 130.998 11.1972 128.774C9.09143 127.829 7.18161 126.753 6.95243 126.383C5.70273 124.361 10.3283 123.463 13.5129 125.11C15.8152 126.301 16.3826 125.825 16.3826 122.705C16.3826 120.402 16.1966 120.029 14.7789 119.482C12.034 118.424 7.50234 118.303 5.01111 119.221ZM43.0087 119.181C39.0555 120.294 37.7015 121.779 38.2018 124.449C38.6468 126.819 39.7827 127.139 42.5924 125.686C43.505 125.214 45.2999 124.66 46.5811 124.455C48.484 124.151 49.1359 124.308 50.1413 125.314C50.8177 125.99 51.3717 127.069 51.3717 127.71C51.3717 128.725 50.9746 128.88 48.3102 128.902C44.1593 128.937 39.7956 130.533 38.298 132.564C37.4151 133.762 37.0845 135.085 37.0845 137.42C37.0845 140.381 37.253 140.783 39.2626 142.626C41.296 144.489 41.7048 144.622 45.402 144.622C48.0909 144.622 49.7908 144.322 50.6964 143.688C51.9251 142.827 52.0872 142.83 52.745 143.73C53.2547 144.427 54.1213 144.653 55.7687 144.519L58.078 144.33L58.2378 134.268C58.415 123.066 58.0424 121.478 54.8444 119.824C52.3765 118.548 46.4091 118.224 43.0087 119.181ZM138.481 118.983C137.478 119.29 136.331 119.936 135.931 120.419C134.939 121.614 134.374 121.52 134.001 120.096C133.73 119.059 133.304 118.92 130.872 119.075L128.056 119.255V136.166V153.077L130.333 153.264C131.585 153.366 133.226 153.296 133.978 153.107C135.279 152.781 135.346 152.521 135.346 147.803V142.843L137.066 143.732C141.182 145.86 146.973 144.294 149.333 140.414C152.065 135.921 152.152 126.108 149.491 122.544C146.893 119.065 142.671 117.699 138.481 118.983ZM100.499 119.637C99.5763 120.56 99.5045 133.982 100.4 138.156C100.862 140.311 101.557 141.544 103.045 142.85C104.798 144.39 105.507 144.622 108.459 144.622C111.11 144.622 112.323 144.305 113.979 143.181C115.923 141.862 116.102 141.833 116.102 142.827C116.102 144.049 117.202 144.626 119.503 144.613C122.55 144.596 122.552 144.581 122.383 131.459L122.225 119.255L119.409 119.075C115.082 118.799 114.935 119.093 114.935 128.031C114.935 135.718 114.921 135.801 113.399 136.998C112.554 137.663 111.274 138.207 110.555 138.207C108.087 138.207 107.665 136.827 107.354 127.769L107.063 119.255L104.144 119.083C102.377 118.979 100.938 119.198 100.499 119.637ZM157.463 128.043C153.352 136.741 151.091 141.996 151.091 142.855C151.091 143.185 152.158 143.455 153.462 143.455C155.654 143.455 155.804 143.555 155.428 144.768C153.592 150.694 147.794 157.322 141.794 160.35C132.998 164.79 124.165 164.679 114.84 160.01C111.288 158.232 105.627 152.956 103.181 149.145C100.689 145.262 100.165 146.818 102.416 151.417C106.003 158.749 113.606 165.398 121.648 168.235C125.142 169.468 126.764 169.673 133.013 169.678C141.206 169.684 144.79 168.952 150.323 166.144C158.582 161.952 165.431 154.034 168.593 145.022C169.619 142.098 169.738 141.988 172.176 141.706C173.798 141.518 174.752 141.102 174.848 140.54C174.967 139.843 163.618 123.21 161.547 121.045C161.237 120.721 159.59 123.544 157.463 128.043ZM141.614 125.691C144.127 127.451 144.573 132.644 142.55 136.603C141.534 138.591 139.12 138.759 136.882 136.998C135.49 135.903 135.346 135.416 135.346 131.802C135.346 128.065 135.458 127.719 137.14 126.304C139.22 124.554 139.864 124.466 141.614 125.691ZM51.3717 135.54C51.3717 136.375 50.7413 137.452 49.8351 138.165C47.1934 140.243 44.3739 139.467 44.3739 136.662C44.3739 134.964 45.8067 134.165 48.8933 134.143C51.1332 134.127 51.3717 134.261 51.3717 135.54Z" fill="#0059BF"/>
<path fill-rule="evenodd" clip-rule="evenodd" d="M59.3901 0.969202C59.7913 1.13132 60.4473 1.13132 60.8479 0.969202C61.2492 0.807669 60.9208 0.675293 60.119 0.675293C59.3172 0.675293 58.9894 0.807669 59.3901 0.969202ZM75.3731 3.49892C75.3731 4.30075 75.5055 4.62907 75.667 4.22786C75.8291 3.82723 75.8291 3.17118 75.667 2.76998C75.5055 2.36935 75.3731 2.69708 75.3731 3.49892ZM50.8807 20.4103C50.8807 21.2122 51.0131 21.5405 51.1746 21.1393C51.3367 20.7386 51.3367 20.0826 51.1746 19.6814C51.0131 19.2808 50.8807 19.6085 50.8807 20.4103ZM22.2141 116.018C22.2141 118.877 22.1651 118.963 20.527 118.963C18.7123 118.963 18.132 119.794 18.132 122.393C18.132 124.331 19.0931 125.378 20.8729 125.378C22.2013 125.378 22.2141 125.447 22.2141 132.723C22.2141 142.988 23.3291 144.622 30.3345 144.622C34.4166 144.622 35.184 143.924 34.9332 140.437L34.7519 137.916L32.6076 138.102C29.7181 138.354 29.2119 137.25 29.2119 130.697V125.442L31.9819 125.264L34.7519 125.086V122.17V119.255L32.0128 119.078L29.2732 118.902L29.0971 116.162L28.9204 113.423L25.5672 113.248L22.2141 113.073V116.018ZM83.4451 116.047C83.4451 118.778 83.3518 118.963 81.9691 118.963C81.1568 118.963 80.3497 119.336 80.1742 119.793C79.9165 120.465 79.6435 120.41 78.735 119.501C77.2159 117.982 74.7037 118.091 72.2089 119.784C70.2075 121.142 70.1306 121.15 69.8407 120.041C69.5859 119.068 69.1176 118.922 66.725 119.075L63.9095 119.255L63.7515 131.208C63.5753 144.496 63.6103 144.622 67.472 144.622C71.2088 144.622 71.1989 144.643 71.1989 136.457C71.1989 129.003 71.1995 128.999 72.9204 127.157C74.4307 125.54 74.8943 125.362 76.7062 125.701C78.4994 126.038 78.8341 125.915 79.2598 124.765C79.6733 123.648 79.8074 123.593 80.1211 124.41C80.3322 124.959 81.1311 125.378 81.9691 125.378H83.4451V132.433C83.4451 142.957 84.7974 144.877 91.9475 144.508C95.0597 144.347 95.4639 144.174 96.1654 142.706C96.6984 141.589 96.7766 140.589 96.4156 139.505C95.9561 138.126 95.6254 137.951 93.792 138.109C90.9526 138.353 90.4429 137.22 90.4429 130.665V125.378H93.0817C95.3997 125.378 95.7916 125.19 96.3083 123.832C96.6605 122.905 96.6949 121.678 96.394 120.77C95.9619 119.467 95.5099 119.23 93.1674 119.077L90.4429 118.899V116.015V113.132H86.944H83.4451V116.047ZM5.01112 119.221C1.36175 120.567 0.0543213 122.48 0.0543213 126.475C0.0543213 130.498 1.05151 131.698 6.65444 134.417C10.7073 136.384 11.4777 137.81 9.07627 138.904C7.78634 139.492 7.05215 139.436 4.80701 138.581C-0.352719 136.615 -0.0331516 136.517 0.16687 140.011C0.3908 143.92 1.47955 144.601 7.51867 144.613C14.4419 144.627 17.5489 142.191 17.5489 136.749C17.5489 132.751 16.1522 130.998 11.1972 128.774C9.09143 127.829 7.18161 126.753 6.95243 126.383C5.70273 124.361 10.3283 123.463 13.5129 125.11C15.8152 126.301 16.3826 125.825 16.3826 122.705C16.3826 120.402 16.1966 120.029 14.7789 119.482C12.034 118.424 7.50234 118.303 5.01112 119.221ZM43.0087 119.181C39.0555 120.294 37.7015 121.779 38.2018 124.449C38.6468 126.819 39.7827 127.139 42.5924 125.686C43.505 125.214 45.2999 124.66 46.5811 124.455C48.484 124.151 49.1359 124.308 50.1413 125.314C50.8177 125.99 51.3717 127.069 51.3717 127.71C51.3717 128.725 50.9746 128.88 48.3102 128.902C44.1593 128.937 39.7956 130.533 38.298 132.564C37.4151 133.762 37.0845 135.085 37.0845 137.42C37.0845 140.381 37.253 140.783 39.2626 142.626C41.296 144.489 41.7048 144.622 45.402 144.622C48.0909 144.622 49.7908 144.322 50.6964 143.688C51.9251 142.827 52.0873 142.83 52.745 143.73C53.2547 144.427 54.1213 144.653 55.7687 144.519L58.078 144.33L58.2378 134.268C58.415 123.066 58.0424 121.478 54.8444 119.824C52.3765 118.548 46.4091 118.224 43.0087 119.181ZM157.463 128.043C153.352 136.741 151.091 141.996 151.091 142.855C151.091 143.185 152.158 143.455 153.462 143.455C155.654 143.455 155.804 143.555 155.428 144.768C153.592 150.694 147.794 157.322 141.794 160.35C132.998 164.79 124.165 164.679 114.84 160.01C111.288 158.232 105.627 152.956 103.181 149.145C100.689 145.262 100.165 146.818 102.416 151.417C106.003 158.749 113.606 165.398 121.648 168.235C125.142 169.468 126.764 169.673 133.013 169.678C141.206 169.684 144.79 168.952 150.323 166.144C158.582 161.952 165.431 154.034 168.594 145.022C169.619 142.098 169.738 141.988 172.176 141.706C173.798 141.518 174.752 141.102 174.848 140.54C174.967 139.843 163.618 123.21 161.547 121.045C161.237 120.721 159.59 123.544 157.463 128.043ZM51.3717 135.54C51.3717 136.375 50.7413 137.452 49.8351 138.165C47.1934 140.243 44.3739 139.467 44.3739 136.662C44.3739 134.964 45.8067 134.165 48.8933 134.143C51.1332 134.127 51.3717 134.261 51.3717 135.54Z" fill="#0059BF"/>
<path fill-rule="evenodd" clip-rule="evenodd" d="M22.2141 116.018C22.2141 118.877 22.1651 118.963 20.527 118.963C18.7123 118.963 18.132 119.794 18.132 122.393C18.132 124.331 19.0931 125.378 20.8729 125.378C22.2013 125.378 22.2141 125.447 22.2141 132.723C22.2141 142.988 23.3291 144.622 30.3345 144.622C34.4166 144.622 35.184 143.924 34.9332 140.437L34.7519 137.916L32.6076 138.102C29.7181 138.354 29.2119 137.25 29.2119 130.697V125.442L31.9819 125.264L34.7519 125.086V122.17V119.255L32.0128 119.078L29.2732 118.902L29.0971 116.162L28.9204 113.423L25.5672 113.248L22.2141 113.073V116.018ZM83.4451 116.047C83.4451 118.778 83.3518 118.963 81.9691 118.963C81.1568 118.963 80.3497 119.336 80.1742 119.793C79.9165 120.465 79.6435 120.41 78.735 119.501C77.2159 117.982 74.7037 118.091 72.2089 119.784C70.2075 121.142 70.1306 121.15 69.8407 120.041C69.5859 119.068 69.1176 118.922 66.725 119.075L63.9095 119.255L63.7515 131.208C63.5753 144.496 63.6103 144.622 67.472 144.622C71.2088 144.622 71.1989 144.643 71.1989 136.457C71.1989 129.003 71.1995 128.999 72.9204 127.157C74.4307 125.54 74.8943 125.362 76.7062 125.701C78.4994 126.038 78.8341 125.915 79.2598 124.765C79.6733 123.648 79.8074 123.593 80.1211 124.41C80.3322 124.959 81.1311 125.378 81.9691 125.378H83.4451V132.433C83.4451 142.957 84.7974 144.877 91.9475 144.508C95.0597 144.347 95.4639 144.175 96.1654 142.706C96.6984 141.589 96.7766 140.589 96.4156 139.505C95.9561 138.126 95.6254 137.951 93.792 138.109C90.9526 138.353 90.4429 137.22 90.4429 130.665V125.378H93.0817C95.3997 125.378 95.7916 125.19 96.3083 123.832C96.6605 122.905 96.6949 121.678 96.394 120.77C95.9619 119.467 95.5099 119.23 93.1674 119.077L90.4429 118.899V116.015V113.132H86.944H83.4451V116.047ZM5.01112 119.221C1.36175 120.567 0.0543213 122.48 0.0543213 126.475C0.0543213 130.498 1.05151 131.698 6.65444 134.417C10.7073 136.384 11.4777 137.81 9.07627 138.904C7.78634 139.492 7.05215 139.436 4.80701 138.581C-0.352719 136.615 -0.0331516 136.517 0.16687 140.011C0.3908 143.92 1.47955 144.601 7.51867 144.613C14.4419 144.627 17.5489 142.191 17.5489 136.749C17.5489 132.751 16.1522 130.998 11.1972 128.774C9.09143 127.829 7.18161 126.753 6.95243 126.383C5.70273 124.361 10.3283 123.463 13.5129 125.11C15.8152 126.301 16.3826 125.825 16.3826 122.705C16.3826 120.402 16.1966 120.029 14.7789 119.482C12.034 118.424 7.50234 118.303 5.01112 119.221ZM43.0087 119.181C39.0555 120.294 37.7015 121.779 38.2018 124.449C38.6468 126.819 39.7827 127.139 42.5924 125.686C43.505 125.214 45.2999 124.66 46.5811 124.455C48.484 124.151 49.1359 124.308 50.1413 125.314C50.8177 125.99 51.3717 127.069 51.3717 127.71C51.3717 128.725 50.9746 128.88 48.3102 128.902C44.1593 128.937 39.7956 130.533 38.298 132.564C37.4151 133.762 37.0845 135.085 37.0845 137.42C37.0845 140.381 37.253 140.783 39.2626 142.626C41.296 144.489 41.7048 144.622 45.402 144.622C48.0909 144.622 49.7908 144.322 50.6964 143.688C51.9251 142.827 52.0873 142.83 52.745 143.73C53.2547 144.427 54.1213 144.653 55.7687 144.519L58.078 144.33L58.2378 134.268C58.415 123.066 58.0424 121.478 54.8444 119.824C52.3765 118.548 46.4091 118.224 43.0087 119.181ZM157.463 128.043C153.352 136.741 151.091 141.996 151.091 142.855C151.091 143.185 152.158 143.455 153.462 143.455C155.654 143.455 155.804 143.555 155.428 144.768C153.592 150.694 147.794 157.322 141.794 160.35C132.998 164.79 124.165 164.679 114.84 160.01C111.288 158.232 105.627 152.956 103.181 149.145C100.689 145.262 100.165 146.818 102.416 151.417C106.003 158.749 113.606 165.398 121.648 168.235C125.142 169.468 126.764 169.673 133.013 169.678C141.206 169.684 144.79 168.952 150.323 166.144C158.582 161.952 165.431 154.034 168.594 145.022C169.619 142.098 169.738 141.988 172.176 141.706C173.798 141.518 174.752 141.102 174.848 140.54C174.967 139.843 163.618 123.21 161.547 121.045C161.237 120.721 159.59 123.544 157.463 128.043ZM51.3717 135.54C51.3717 136.375 50.7413 137.452 49.8351 138.165C47.1934 140.243 44.3739 139.467 44.3739 136.662C44.3739 134.964 45.8067 134.165 48.8933 134.143C51.1332 134.127 51.3717 134.262 51.3717 135.54Z" fill="#0059BF"/>
<path fill-rule="evenodd" clip-rule="evenodd" d="M22.2141 116.018C22.2141 118.877 22.1651 118.963 20.527 118.963C18.7123 118.963 18.132 119.794 18.132 122.393C18.132 124.331 19.0931 125.378 20.8729 125.378C22.2013 125.378 22.2141 125.447 22.2141 132.723C22.2141 142.988 23.3291 144.622 30.3345 144.622C34.4166 144.622 35.184 143.924 34.9332 140.437L34.7519 137.916L32.6076 138.102C29.7181 138.354 29.2119 137.25 29.2119 130.697V125.442L31.9819 125.264L34.7519 125.086V122.17V119.255L32.0128 119.078L29.2732 118.902L29.0971 116.162L28.9204 113.423L25.5672 113.248L22.2141 113.073V116.018ZM83.4451 116.047C83.4451 118.778 83.3518 118.963 81.9691 118.963C81.1568 118.963 80.3497 119.336 80.1742 119.793C79.9165 120.465 79.6435 120.41 78.735 119.501C77.2159 117.982 74.7037 118.091 72.2089 119.784C70.2075 121.142 70.1306 121.15 69.8407 120.041C69.5859 119.068 69.1176 118.922 66.725 119.075L63.9095 119.255L63.7515 131.208C63.5753 144.496 63.6103 144.622 67.472 144.622C71.2088 144.622 71.1989 144.643 71.1989 136.457C71.1989 129.003 71.1995 128.999 72.9204 127.157C74.4307 125.54 74.8943 125.362 76.7062 125.701C78.4994 126.038 78.8341 125.915 79.2598 124.765C79.6733 123.648 79.8074 123.593 80.1211 124.41C80.3322 124.959 81.1311 125.378 81.9691 125.378H83.4451V132.433C83.4451 142.957 84.7974 144.877 91.9475 144.508C95.0597 144.347 95.4639 144.175 96.1654 142.706C96.6984 141.589 96.7766 140.589 96.4156 139.505C95.9561 138.126 95.6254 137.951 93.792 138.109C90.9526 138.353 90.4429 137.22 90.4429 130.665V125.378H93.0817C95.3997 125.378 95.7916 125.19 96.3083 123.832C96.6605 122.905 96.6949 121.678 96.394 120.77C95.9619 119.467 95.5099 119.23 93.1674 119.077L90.4429 118.899V116.015V113.132H86.944H83.4451V116.047ZM5.01112 119.221C1.36175 120.567 0.0543213 122.48 0.0543213 126.475C0.0543213 130.498 1.05151 131.698 6.65444 134.417C10.7073 136.384 11.4777 137.81 9.07627 138.904C7.78634 139.492 7.05215 139.436 4.80701 138.581C-0.352719 136.615 -0.0331516 136.517 0.16687 140.011C0.3908 143.92 1.47955 144.601 7.51867 144.613C14.4419 144.627 17.5489 142.191 17.5489 136.749C17.5489 132.751 16.1522 130.998 11.1972 128.774C9.09143 127.829 7.18161 126.753 6.95243 126.383C5.70273 124.361 10.3283 123.463 13.5129 125.11C15.8152 126.301 16.3826 125.825 16.3826 122.705C16.3826 120.402 16.1966 120.029 14.7789 119.482C12.034 118.424 7.50234 118.303 5.01112 119.221ZM43.0087 119.181C39.0555 120.294 37.7015 121.779 38.2018 124.449C38.6468 126.819 39.7827 127.139 42.5924 125.686C43.505 125.214 45.2999 124.66 46.5811 124.455C48.484 124.151 49.1359 124.308 50.1413 125.314C50.8177 125.99 51.3717 127.069 51.3717 127.71C51.3717 128.725 50.9746 128.88 48.3102 128.902C44.1593 128.937 39.7956 130.533 38.298 132.564C37.4151 133.762 37.0845 135.085 37.0845 137.42C37.0845 140.381 37.253 140.783 39.2626 142.626C41.296 144.489 41.7048 144.622 45.402 144.622C48.0909 144.622 49.7908 144.322 50.6964 143.688C51.9251 142.827 52.0873 142.83 52.745 143.73C53.2547 144.427 54.1213 144.653 55.7687 144.519L58.078 144.33L58.2378 134.268C58.415 123.066 58.0424 121.478 54.8444 119.824C52.3765 118.548 46.4091 118.224 43.0087 119.181ZM157.463 128.043C153.352 136.741 151.091 141.996 151.091 142.855C151.091 143.185 152.158 143.455 153.462 143.455C155.654 143.455 155.804 143.555 155.428 144.768C153.592 150.694 147.794 157.322 141.794 160.35C132.998 164.79 124.165 164.679 114.84 160.01C111.288 158.232 105.627 152.956 103.181 149.145C100.689 145.262 100.165 146.818 102.416 151.417C106.003 158.749 113.606 165.398 121.648 168.235C125.142 169.468 126.764 169.673 133.013 169.678C141.206 169.684 144.79 168.952 150.323 166.144C158.582 161.952 165.431 154.034 168.594 145.022C169.619 142.098 169.738 141.988 172.176 141.706C173.798 141.518 174.752 141.102 174.848 140.54C174.967 139.843 163.618 123.21 161.547 121.045C161.237 120.721 159.59 123.544 157.463 128.043ZM51.3717 135.54C51.3717 136.375 50.7413 137.452 49.8351 138.165C47.1934 140.243 44.3739 139.467 44.3739 136.662C44.3739 134.964 45.8067 134.165 48.8933 134.143C51.1332 134.127 51.3717 134.262 51.3717 135.54Z" fill="#0059BF"/>
<path fill-rule="evenodd" clip-rule="evenodd" d="M22.6293 113.494C22.4007 113.722 22.2141 115.029 22.2141 116.397C22.2141 118.674 22.0788 118.901 20.6209 119.07C17.3325 119.451 17.4474 125.378 20.744 125.378H22.2141V133.017V140.656L24.1968 142.639C25.9853 144.428 26.5038 144.622 29.4837 144.622C34.1407 144.622 35.0434 144.003 35.0434 140.811V138.207H32.4875C29.3939 138.207 29.2312 137.824 29.2201 130.512L29.2119 125.442L31.9819 125.264L34.7519 125.086V122.17V119.255L32.0128 119.078L29.2732 118.902L29.097 116.162L28.9203 113.423L25.9824 113.251C24.3659 113.157 22.8573 113.266 22.6293 113.494ZM83.8603 113.494C83.6317 113.722 83.4451 115.046 83.4451 116.436C83.4451 118.751 83.3214 118.963 81.9691 118.963C81.1568 118.963 80.3497 119.336 80.1742 119.793C79.9164 120.465 79.6435 120.41 78.735 119.501C77.2159 117.982 74.7036 118.091 72.2089 119.784C70.2379 121.121 70.1265 121.135 69.8495 120.075C69.6261 119.221 69.0313 118.963 67.2883 118.963C66.0392 118.963 64.7026 119.278 64.3177 119.663C63.8208 120.16 63.6179 123.702 63.6179 131.889C63.6179 142.687 63.689 143.453 64.7457 144.018C65.9948 144.686 68.8494 144.815 70.2763 144.268C71.0519 143.97 71.1989 142.709 71.1989 136.35V128.787L72.9326 127.053C74.4255 125.56 74.952 125.372 76.7184 125.704C78.4982 126.038 78.8353 125.914 79.2598 124.765C79.6733 123.648 79.8074 123.593 80.1211 124.41C80.3276 124.948 81.1282 125.378 81.9236 125.378H83.3547L83.546 133.3L83.7367 141.221L85.6412 142.922C87.2805 144.385 88.0164 144.622 90.924 144.622C94.7174 144.622 96.1572 143.846 96.3351 141.706C96.6004 138.504 96.3992 138.207 93.9622 138.207C90.8984 138.207 90.4429 137.235 90.4429 130.697V125.442L93.1896 125.264C95.5677 125.11 95.9834 124.891 96.2919 123.628C96.4879 122.826 96.4809 121.514 96.2768 120.712C95.9566 119.458 95.5286 119.23 93.2047 119.078L90.5041 118.902L90.328 116.162L90.1513 113.423L87.2134 113.251C85.5969 113.157 84.0883 113.266 83.8603 113.494ZM5.0111 119.221C1.43463 120.54 0.0543074 122.498 0.0543074 126.252C0.0543074 130.227 1.37223 131.88 6.5168 134.361C10.7062 136.381 11.5045 137.798 9.07626 138.904C7.78632 139.492 7.05213 139.436 4.807 138.581C-0.252431 136.654 0.0543074 136.57 0.0543074 139.874C0.0543074 142.571 0.211175 142.924 1.77461 143.732C3.9451 144.854 10.4962 144.904 13.0959 143.818C16.1487 142.542 17.5489 140.309 17.5489 136.715C17.5489 132.653 15.8251 130.54 11.1068 128.82C6.99207 127.32 5.98555 126.371 7.09354 125.037C7.86505 124.106 9.7498 124.126 14.4873 125.115C16.3808 125.51 16.3826 125.508 16.3826 123.125C16.3826 121.244 16.0834 120.543 14.9696 119.814C12.9472 118.488 7.82598 118.184 5.0111 119.221ZM42.9405 119.199C38.6596 120.401 36.8909 123.11 38.7371 125.636C39.4876 126.662 39.6358 126.655 42.8414 125.456C44.6707 124.771 46.8132 124.211 47.6034 124.211C49.3353 124.211 51.3717 126.102 51.3717 127.71C51.3717 128.715 50.9827 128.877 48.5621 128.877C44.5401 128.877 39.9932 130.372 38.5896 132.156C36.124 135.291 36.5142 140.145 39.4527 142.906C41.5567 144.882 47.5876 145.249 50.4264 143.574C52.3829 142.42 52.436 142.419 52.7205 143.507C52.9258 144.293 53.5294 144.622 54.7686 144.622C58.4477 144.622 58.3695 144.852 58.3695 134.033C58.3695 123.069 57.9648 121.438 54.8444 119.824C52.3543 118.537 46.4097 118.224 42.9405 119.199ZM155.839 131.751C153.227 137.501 151.091 142.487 151.091 142.831C151.091 143.174 152.158 143.455 153.462 143.455C155.651 143.455 155.804 143.557 155.438 144.768C154.411 148.162 151.181 153.116 148.199 155.872C141.84 161.75 133.172 164.536 124.949 163.347C116.336 162.102 107.077 155.996 102.813 148.751C101.027 145.716 100.404 146.516 101.813 150.036C104.321 156.309 110.51 162.788 117.238 166.183C122.759 168.97 126.178 169.697 133.745 169.697C141.645 169.697 146.404 168.466 152.643 164.81C159.264 160.93 165.899 152.698 168.593 145.022C169.621 142.095 169.733 141.992 172.068 141.817C173.445 141.714 174.613 141.289 174.79 140.828C175.142 139.912 162.231 121.32 161.233 121.305C160.878 121.3 158.45 126.001 155.839 131.751ZM51.3717 135.54C51.3717 136.375 50.7413 137.452 49.8351 138.164C47.1934 140.243 44.3739 139.467 44.3739 136.662C44.3739 134.964 45.8067 134.165 48.8933 134.142C51.1332 134.127 51.3717 134.261 51.3717 135.54Z" fill="#0059BF"/>
<path fill-rule="evenodd" clip-rule="evenodd" d="M22.6293 113.494C22.4007 113.722 22.2141 115.029 22.2141 116.397C22.2141 118.674 22.0788 118.901 20.6209 119.07C17.3325 119.451 17.4474 125.378 20.744 125.378H22.2141V133.017V140.656L24.1968 142.639C25.9854 144.428 26.5038 144.622 29.4837 144.622C34.1407 144.622 35.0435 144.003 35.0435 140.811V138.207H32.4875C29.3939 138.207 29.2312 137.824 29.2201 130.512L29.2119 125.442L31.9819 125.264L34.7519 125.086V122.17V119.255L32.0128 119.078L29.2732 118.902L29.0971 116.162L28.9204 113.423L25.9824 113.251C24.3659 113.157 22.8573 113.266 22.6293 113.494ZM83.8603 113.494C83.6317 113.722 83.4451 115.046 83.4451 116.436C83.4451 118.751 83.3215 118.963 81.9686 118.963C80.9819 118.963 80.3165 119.399 79.9643 120.275C79.573 121.248 79.4272 121.329 79.3998 120.587C79.3088 118.127 74.9701 117.859 71.799 120.117C70.169 121.278 70.1638 121.278 69.8617 120.122C69.625 119.216 69.0634 118.963 67.2883 118.963C66.0392 118.963 64.7026 119.278 64.3177 119.663C63.8209 120.16 63.6179 123.702 63.6179 131.889C63.6179 142.687 63.6891 143.453 64.7457 144.018C65.9948 144.686 68.8494 144.815 70.2763 144.268C71.0519 143.97 71.1989 142.709 71.1989 136.35V128.787L72.9326 127.053C74.4255 125.56 74.9521 125.372 76.7184 125.704C78.4982 126.038 78.8353 125.914 79.2598 124.765C79.6733 123.648 79.8074 123.593 80.1211 124.41C80.3276 124.948 81.1282 125.378 81.9237 125.378H83.3547L83.546 133.3L83.7367 141.221L85.6412 142.922C87.2805 144.385 88.0164 144.622 90.924 144.622C94.7145 144.622 96.1403 143.848 96.2966 141.706C96.5374 138.42 96.3946 138.207 93.9622 138.207C90.8984 138.207 90.4429 137.235 90.4429 130.697V125.442L93.2129 125.264L95.9829 125.086V122.17V119.255L93.2438 119.078L90.5041 118.902L90.328 116.162L90.1513 113.423L87.2134 113.251C85.5969 113.157 84.0883 113.266 83.8603 113.494ZM5.01112 119.223C1.43989 120.538 0.0543213 122.499 0.0543213 126.24C0.0543213 130.14 1.68073 132.318 5.71848 133.826C10.3971 135.572 11.7897 137.503 9.32353 138.823C7.88314 139.594 4.56675 139.099 2.61902 137.823C0.743024 136.594 0.0543213 137.262 0.0543213 140.312C0.0543213 142.75 0.194278 142.991 2.07669 143.777C4.83092 144.928 10.7482 144.86 13.3018 143.648C16.0321 142.352 17.5442 139.756 17.5466 136.357C17.5495 132.685 15.6676 130.483 11.1068 128.82C6.98042 127.315 5.98498 126.371 7.10405 125.024C7.88314 124.085 10.568 124.122 14.7789 125.13C16.3295 125.501 16.3826 125.435 16.3826 123.127C16.3826 121.288 16.0782 120.54 15.0588 119.872C13.047 118.554 7.75893 118.213 5.01112 119.223ZM42.916 119.292C38.5424 120.648 36.906 123.131 38.7371 125.636C39.4877 126.662 39.6358 126.655 42.8414 125.456C44.6707 124.771 46.7549 124.211 47.4733 124.211C49.4292 124.211 51.3717 125.826 51.3717 127.452C51.3717 128.722 51.1221 128.877 49.0677 128.877C45.5618 128.877 41.0919 129.996 39.455 131.284C36.1934 133.849 36.1789 139.83 39.4258 142.881C41.5788 144.903 47.5672 145.261 50.4812 143.542C52.1059 142.584 52.538 142.506 52.538 143.173C52.538 144.211 54.9441 144.876 56.9117 144.382L58.3695 144.016V134.085C58.3695 123.065 57.9678 121.439 54.8444 119.824C52.2441 118.48 46.3805 118.218 42.916 119.292ZM159.081 124.649C158.259 126.493 156.126 131.233 154.339 135.182C152.553 139.131 151.091 142.609 151.091 142.909C151.091 143.209 152.14 143.455 153.423 143.455C154.706 143.455 155.756 143.734 155.756 144.075C155.756 146.115 152.211 151.75 148.802 155.129C137.035 166.793 119.346 166.437 107.203 154.292C105.676 152.765 103.722 150.314 102.862 148.846C101.052 145.757 100.382 146.459 101.787 149.971C104.2 156.003 110.277 162.506 116.575 165.797C122.618 168.956 125.885 169.697 133.745 169.697C141.634 169.697 146.41 168.465 152.605 164.83C159.185 160.969 165.924 152.628 168.581 145.056C169.42 142.665 169.951 141.962 171.015 141.834C173.713 141.511 175 141.09 175 140.533C175 140.078 169.532 132.051 162.803 122.626C161.384 120.639 160.701 121.01 159.081 124.649ZM51.3717 135.54C51.3717 136.375 50.7413 137.452 49.8351 138.164C47.2331 140.211 44.3739 139.47 44.3739 136.749C44.3739 134.848 45.5297 134.125 48.5726 134.125C51.1472 134.125 51.3717 134.239 51.3717 135.54Z" fill="#0059BF"/>
<path fill-rule="evenodd" clip-rule="evenodd" d="M22.6293 113.494C22.4007 113.722 22.2141 115.046 22.2141 116.436C22.2141 118.733 22.0835 118.963 20.7766 118.963C18.9648 118.963 17.9297 120.795 18.4364 123.104C18.7274 124.428 19.2249 124.926 20.5166 125.184L22.2141 125.524V133.022C22.2141 140.443 22.231 140.54 23.8767 142.382C25.3223 144 25.9976 144.277 29.0434 144.497C33.8766 144.846 35.0435 144.129 35.0435 140.811V138.207H32.4875C29.3939 138.207 29.2312 137.824 29.2201 130.512L29.2119 125.442L31.9819 125.264L34.7519 125.086V122.17V119.255L32.0128 119.078L29.2732 118.902L29.0971 116.162L28.9204 113.423L25.9824 113.251C24.3659 113.157 22.8573 113.266 22.6293 113.494ZM83.8603 113.494C83.6317 113.722 83.4451 115.029 83.4451 116.397C83.4451 118.678 83.3116 118.901 81.8414 119.07C80.5177 119.223 80.1748 119.611 79.8774 121.296L79.5164 123.337L79.44 121.462C79.3881 120.205 78.9589 119.371 78.1355 118.93C76.54 118.077 73.4843 118.669 71.9086 120.136C70.3662 121.574 70.2414 121.573 69.8635 120.129C69.6244 119.215 69.0681 118.963 67.2883 118.963C66.0392 118.963 64.7026 119.278 64.3177 119.663C63.822 120.158 63.6179 123.632 63.6179 131.576C63.6179 144.651 63.7171 144.927 68.2277 144.415C69.7014 144.249 70.9726 144.095 71.0531 144.075C71.1336 144.055 71.1989 140.648 71.1989 136.503C71.1989 129.185 71.2438 128.912 72.7577 127.114C74.1456 125.465 74.5573 125.3 76.5085 125.612C78.3612 125.908 78.7583 125.781 79.072 124.793C79.4021 123.754 79.5391 123.722 80.3194 124.501C80.8011 124.984 81.6816 125.378 82.2753 125.378C83.2632 125.378 83.371 126.046 83.546 133.239C83.732 140.904 83.7763 141.139 85.3252 142.686C86.6449 144.005 87.5324 144.31 90.5736 144.493C94.6871 144.74 96.1263 144.039 96.2966 141.706C96.5374 138.42 96.3946 138.207 93.9622 138.207C90.8984 138.207 90.4429 137.235 90.4429 130.697V125.442L93.2129 125.264L95.9829 125.086V122.17V119.255L93.2438 119.078L90.5042 118.902L90.328 116.162L90.1514 113.423L87.2134 113.251C85.5969 113.157 84.0883 113.266 83.8603 113.494ZM5.85785 119.025C4.71954 119.345 3.03365 120.208 2.1111 120.944C0.674795 122.089 0.397215 122.782 0.182032 125.753C-0.0383999 128.805 0.106222 129.432 1.38449 130.946C2.18399 131.893 4.19762 133.191 5.8596 133.832C9.61744 135.28 11.0543 136.706 10.1551 138.096C9.32061 139.386 4.84375 139.281 2.77064 137.922C0.743024 136.594 0.0543213 137.2 0.0543213 140.312C0.0543213 142.788 0.174451 142.982 2.23823 143.844C5.34351 145.142 12.1174 144.664 14.4821 142.98C16.8077 141.324 17.7705 138.828 17.3891 135.446C17.0229 132.195 14.832 129.873 11.2124 128.898C8.08491 128.056 6.28472 126.536 6.80606 125.178C7.14954 124.283 7.69128 124.158 10.1948 124.395C11.834 124.549 13.8972 124.865 14.7789 125.095C16.3354 125.501 16.3826 125.444 16.3826 123.127C16.3826 121.293 16.0788 120.542 15.0705 119.886C13.3339 118.757 8.44297 118.3 5.85785 119.025ZM42.6244 119.42C38.9039 120.627 37.551 122.478 38.522 125.032C39.2118 126.847 39.2043 126.846 43.0682 125.377C44.7553 124.736 46.7304 124.211 47.4576 124.211C49.4275 124.211 51.3717 125.821 51.3717 127.452C51.3717 128.722 51.1221 128.877 49.0677 128.877C40.3776 128.877 35.6674 133.028 37.3341 139.217C38.3074 142.833 40.2481 144.235 44.6684 144.516C47.7136 144.71 48.8134 144.526 50.4813 143.542C52.1059 142.584 52.538 142.506 52.538 143.173C52.538 144.211 54.9441 144.876 56.9117 144.382L58.3696 144.016V134.085C58.3696 123.065 57.9678 121.439 54.8444 119.824C52.0791 118.394 46.3648 118.205 42.6244 119.42ZM159.125 124.649C153.267 137.479 151.091 142.441 151.091 142.968C151.091 143.325 152.139 143.489 153.649 143.369L156.207 143.164L155.089 146C149.771 159.491 133.951 166.816 119.892 162.296C113.276 160.169 107.219 155.495 103.128 149.358C101.926 147.555 100.943 146.507 100.941 147.029C100.937 149.61 104.991 156.322 108.822 160.075C115.693 166.805 123.204 169.679 133.959 169.69C139.337 169.696 141.22 169.444 144.981 168.217C147.476 167.403 150.239 166.222 151.123 165.592C152.006 164.963 152.993 164.449 153.317 164.449C153.64 164.449 155.867 162.61 158.265 160.362C162.909 156.01 166.708 150.391 168.549 145.152C169.605 142.147 169.77 141.982 172.027 141.668C173.329 141.487 174.573 141.162 174.789 140.945C175.125 140.61 171.105 134.27 167.127 128.862C166.486 127.99 165.047 125.931 163.929 124.286C162.812 122.642 161.618 121.296 161.277 121.296C160.936 121.296 159.968 122.805 159.125 124.649ZM51.3717 135.457C51.3717 136.953 51.0008 137.592 49.6782 138.373C46.7322 140.113 44.3739 139.371 44.3739 136.704C44.3739 134.724 45.9502 133.87 50.0596 133.621C51.17 133.554 51.3717 133.836 51.3717 135.457Z" fill="#0059BF"/>
</svg>
