<svg width="150" height="65" viewBox="0 0 150 65" fill="none" xmlns="http://www.w3.org/2000/svg">
<path d="M99.2213 14.536V37H93.7493V27.752H85.2373V37H79.7653V14.536H85.2373V23.336H93.7493V14.536H99.2213ZM120.804 19.144V37H115.332V34.568C114.777 35.3573 114.02 35.9973 113.06 36.488C112.121 36.9573 111.076 37.192 109.924 37.192C108.558 37.192 107.353 36.8933 106.308 36.296C105.262 35.6773 104.452 34.792 103.876 33.64C103.3 32.488 103.012 31.1333 103.012 29.576V19.144H108.452V28.84C108.452 30.0347 108.761 30.9627 109.38 31.624C109.998 32.2853 110.83 32.616 111.876 32.616C112.942 32.616 113.785 32.2853 114.404 31.624C115.022 30.9627 115.332 30.0347 115.332 28.84V19.144H120.804ZM130.206 21.672C130.718 20.84 131.454 20.168 132.414 19.656C133.374 19.144 134.473 18.888 135.71 18.888C137.182 18.888 138.515 19.2613 139.71 20.008C140.905 20.7547 141.843 21.8213 142.526 23.208C143.23 24.5947 143.582 26.2053 143.582 28.04C143.582 29.8747 143.23 31.496 142.526 32.904C141.843 34.2907 140.905 35.368 139.71 36.136C138.515 36.8827 137.182 37.256 135.71 37.256C134.451 37.256 133.353 37.0107 132.414 36.52C131.475 36.008 130.739 35.336 130.206 34.504V37H124.734V13.32H130.206V21.672ZM138.014 28.04C138.014 26.6747 137.63 25.608 136.862 24.84C136.115 24.0507 135.187 23.656 134.078 23.656C132.99 23.656 132.062 24.0507 131.294 24.84C130.547 25.6293 130.174 26.7067 130.174 28.072C130.174 29.4373 130.547 30.5147 131.294 31.304C132.062 32.0933 132.99 32.488 134.078 32.488C135.166 32.488 136.094 32.0933 136.862 31.304C137.63 30.4933 138.014 29.4053 138.014 28.04Z" fill="white"/>
<mask id="mask0_32_3" style="mask-type:luminance" maskUnits="userSpaceOnUse" x="11" y="0" width="60" height="57">
<path d="M11.5015 0.177002H70.6799V56.9258H11.5015V0.177002Z" fill="white"/>
</mask>
<g mask="url(#mask0_32_3)">
<mask id="mask1_32_3" style="mask-type:luminance" maskUnits="userSpaceOnUse" x="2" y="-12" width="78" height="85">
<path d="M29.4755 72.7142L2.05115 18.1525L51.9206 -11.0215L79.3468 43.5402L29.4755 72.7142Z" fill="white"/>
</mask>
<g mask="url(#mask1_32_3)">
<mask id="mask2_32_3" style="mask-type:luminance" maskUnits="userSpaceOnUse" x="2" y="-12" width="78" height="85">
<path d="M2.03455 18.1208L29.4589 72.6825L79.3302 43.5085L51.9058 -11.0532L2.03455 18.1208Z" fill="white"/>
</mask>
<g mask="url(#mask2_32_3)">
<path d="M47.8512 52.4448C47.6586 52.522 47.0311 52.8545 45.9799 53.3256C44.9139 53.7709 43.4242 54.3588 41.4831 54.7091C39.5586 55.0851 37.1956 55.2554 34.6087 54.8417C32.0218 54.43 29.1965 53.48 26.4739 51.6828C25.1089 50.806 23.7861 49.6897 22.5624 48.3716C21.3387 47.0554 20.2269 45.565 19.2912 43.9024C18.3684 42.2656 17.6107 40.4269 17.0548 38.4674C16.5264 36.4941 16.2017 34.4021 16.1888 32.2704C16.1356 28.021 17.1593 23.6766 19.3169 19.8824C20.3773 17.9783 21.7405 16.2188 23.2944 14.7027C24.0631 13.9328 24.9144 13.2559 25.7528 12.6225C26.606 12.0169 27.5104 11.4508 28.459 10.9679C30.3138 9.99012 32.3612 9.32708 34.4307 8.97279C36.5002 8.61851 38.6064 8.59871 40.6447 8.90352C44.7084 9.48739 48.5484 11.3419 51.5975 14.0535C53.135 15.4014 54.4578 16.9808 55.5365 18.6671C56.6025 20.3277 57.4758 22.0635 58.105 23.9062C58.7582 25.735 59.1416 27.6153 59.3673 29.4461C59.5673 31.2907 59.5691 33.072 59.3875 34.7484C59.0371 38.127 58.0629 41.1236 56.8373 43.5521C55.6118 45.9806 54.122 47.8866 52.7992 49.2662C52.1314 49.9767 51.4856 50.5329 50.9279 51.002C50.3445 51.4869 49.862 51.8412 49.4418 52.1222C49.0199 52.4033 48.7025 52.625 48.4731 52.7595C48.242 52.8941 48.1411 52.9535 48.1411 52.9535C50.7151 53.8026 53.6524 54.1885 56.7529 53.9075C59.8516 53.6284 63.1008 52.7259 66.3041 51.1385C68.2268 47.2671 69.4505 43.1266 69.9716 38.9009C70.4908 34.6732 70.2798 30.3723 69.3881 26.2951C68.9478 24.2347 68.313 22.2495 67.5663 20.3693C67.1866 19.4153 66.7536 18.491 66.3114 17.6082C65.8675 16.7255 65.3593 15.8467 64.84 15.0095C62.7596 11.6606 60.081 8.69768 57.0318 6.37998C50.9573 1.73075 43.6278 -0.222763 36.6048 0.602581C33.0547 1.03999 29.6423 2.14441 26.6115 3.80895C25.1162 4.64815 23.676 5.59818 22.3441 6.69864C21.0139 7.7991 19.7756 9.02029 18.6344 10.3662C16.3759 13.0441 14.6257 16.1357 13.4368 19.3638C12.248 22.59 11.6517 26.0081 11.6004 29.3906C11.5728 32.7593 12.1196 36.1478 13.1525 39.2532C14.2239 42.3725 15.7522 45.1513 17.6859 47.5502C19.6196 49.951 21.9716 51.9995 24.4869 53.4523C27.0169 54.9327 29.7377 55.8729 32.4677 56.239C35.2105 56.6309 37.9753 56.4746 40.6208 55.8194C43.2407 55.1782 45.7285 54.0084 47.8512 52.4448Z" fill="white"/>
</g>
</g>
</g>
<mask id="mask3_32_3" style="mask-type:luminance" maskUnits="userSpaceOnUse" x="24" y="13" width="34" height="32">
<path d="M24.1826 13.8575H57.5291V44.7654H24.1826V13.8575Z" fill="white"/>
</mask>
<g mask="url(#mask3_32_3)">
<mask id="mask4_32_3" style="mask-type:luminance" maskUnits="userSpaceOnUse" x="2" y="-12" width="78" height="85">
<path d="M29.4754 72.7142L2.05109 18.1525L51.9205 -11.0215L79.3467 43.5402L29.4754 72.7142Z" fill="white"/>
</mask>
<g mask="url(#mask4_32_3)">
<mask id="mask5_32_3" style="mask-type:luminance" maskUnits="userSpaceOnUse" x="2" y="-12" width="78" height="85">
<path d="M2.03448 18.1208L29.4588 72.6825L79.3301 43.5085L51.9058 -11.0532L2.03448 18.1208Z" fill="white"/>
</mask>
<g mask="url(#mask5_32_3)">
<path d="M41.7565 40.318C41.6647 40.3358 41.3969 40.4565 40.9859 40.6268C40.5493 40.8108 39.9567 41.0147 39.1678 41.1552C38.3789 41.2957 37.4432 41.3432 36.4121 41.1968C35.3664 41.0246 34.2491 40.6446 33.1354 39.94C32.0475 39.2215 30.9871 38.1646 30.2569 36.8444C29.501 35.5381 29.0093 33.9013 28.969 32.1774C28.9286 30.4535 29.3432 28.7117 30.2055 27.1382C31.0421 25.5786 32.3667 24.2683 33.8895 23.4846C35.3994 22.6731 37.1974 22.3702 38.8559 22.5761C40.5273 22.8116 42.1106 23.5261 43.3673 24.6464C44.0076 25.1986 44.5616 25.8379 45.0111 26.5365C45.4625 27.2372 45.8221 27.9537 46.0917 28.686C46.6458 30.1823 46.7852 31.7756 46.6733 33.1967C46.5614 34.6178 46.1578 35.8528 45.6551 36.8959C45.1542 37.937 44.5543 38.7168 43.9874 39.2987C43.7104 39.6035 43.4315 39.837 43.204 40.0429C42.9765 40.2467 42.76 40.409 42.5821 40.5139C42.2371 40.7495 42.0335 40.8702 42.0335 40.8702C43.637 42.2854 45.6734 43.3759 47.9668 43.9262C50.2582 44.4744 52.7827 44.4962 55.4044 43.9262C57.6335 39.0196 58.0353 33.5055 56.7529 28.5851C56.1181 26.1387 55.0724 23.8606 53.7532 21.9586C52.4194 20.0288 50.7554 18.3623 48.9354 17.1094C45.2551 14.5898 40.9896 13.7328 37.0689 14.4196C35.104 14.7838 33.2547 15.5102 31.6219 16.5374C30.0129 17.5488 28.624 18.8611 27.4884 20.4167C26.3638 21.9309 25.5198 23.6726 25.0024 25.4024C24.4961 27.16 24.3053 28.9492 24.3842 30.685C24.4887 32.407 24.8795 34.1052 25.5382 35.6114C26.195 37.1156 27.0407 38.4041 28.0755 39.4768C29.1102 40.5476 30.3064 41.4165 31.5723 41.9608C32.8107 42.5189 34.1078 42.796 35.3444 42.8217C36.5791 42.8475 37.8211 42.6199 38.9128 42.1607C39.9915 41.7431 40.9602 41.1038 41.7565 40.318Z" fill="white"/>
</g>
</g>
</g>
<mask id="mask6_32_3" style="mask-type:luminance" maskUnits="userSpaceOnUse" x="35" y="27" width="11" height="10">
<path d="M35.9243 27.5381H45.3177V36.6584H35.9243V27.5381Z" fill="white"/>
</mask>
<g mask="url(#mask6_32_3)">
<mask id="mask7_32_3" style="mask-type:luminance" maskUnits="userSpaceOnUse" x="2" y="-12" width="78" height="85">
<path d="M29.4754 72.7142L2.05109 18.1525L51.9205 -11.0215L79.3467 43.5402L29.4754 72.7142Z" fill="white"/>
</mask>
<g mask="url(#mask7_32_3)">
<mask id="mask8_32_3" style="mask-type:luminance" maskUnits="userSpaceOnUse" x="2" y="-12" width="78" height="85">
<path d="M2.03448 18.1208L29.4588 72.6825L79.3301 43.5085L51.9058 -11.0532L2.03448 18.1208Z" fill="white"/>
</mask>
<g mask="url(#mask8_32_3)">
<path d="M37.5716 31.9953C37.5716 31.9953 37.5716 31.9953 37.5863 32.023C37.5863 32.023 37.5863 32.023 37.5992 32.0488C37.5992 32.0488 37.612 32.0072 37.5863 32.023C37.5863 32.023 37.5606 32.0369 37.612 32.0072C37.6377 31.9914 37.612 32.0072 37.5863 32.023L37.5606 32.0369C37.5863 32.023 37.5992 32.0488 37.5606 32.0369L37.5735 32.0646C37.5882 32.0923 37.5882 32.0923 37.5735 32.0646C37.5735 32.0646 37.5735 32.0646 37.5992 32.0488C37.5992 32.0488 37.5992 32.0488 37.5735 32.0646C37.5735 32.0646 37.5239 32.0943 37.5496 32.0804L37.5735 32.0646C37.5349 32.0527 37.6138 32.0765 37.5882 32.0923C37.5992 32.0488 37.5716 31.9953 37.5716 31.9953L37.5863 32.023L37.6799 32.1457C37.8175 32.3496 37.9789 32.5416 38.1551 32.7593C38.478 33.1413 38.8284 33.5075 39.2026 33.8578C40.6887 35.2353 42.5013 36.2091 44.5433 36.6545C45.1414 34.5565 44.9212 32.4743 44.1434 30.8612C43.3655 29.2481 42.1106 28.1991 40.8502 27.7954C39.5751 27.3639 38.3477 27.6172 37.5203 28.209C36.68 28.7711 36.2525 29.6994 36.2378 30.4574C36.2213 31.2155 36.6305 31.831 37.1166 32.0112C37.2359 32.0488 37.379 32.0725 37.5093 32.0666C37.5349 32.0527 37.5735 32.0646 37.5992 32.0488C37.6248 32.0349 37.6248 32.0349 37.6248 32.0349L37.6505 32.0191C37.6762 32.0052 37.6248 32.0349 37.6248 32.0349C37.5882 32.0923 37.6377 31.9914 37.6248 32.0349C37.5863 32.023 37.6028 32.12 37.5716 31.9953Z" fill="white"/>
</g>
</g>
</g>
<mask id="mask9_32_3" style="mask-type:luminance" maskUnits="userSpaceOnUse" x="37" y="31" width="1" height="2">
<path d="M37.3333 31.5916H37.8029V32.0992H37.3333V31.5916Z" fill="white"/>
</mask>
<g mask="url(#mask9_32_3)">
<mask id="mask10_32_3" style="mask-type:luminance" maskUnits="userSpaceOnUse" x="2" y="-12" width="78" height="85">
<path d="M29.4755 72.7142L2.05115 18.1525L51.9206 -11.0215L79.3468 43.5402L29.4755 72.7142Z" fill="white"/>
</mask>
<g mask="url(#mask10_32_3)">
<mask id="mask11_32_3" style="mask-type:luminance" maskUnits="userSpaceOnUse" x="2" y="-12" width="78" height="85">
<path d="M2.03455 18.1208L29.4589 72.6825L79.3302 43.5085L51.9058 -11.0532L2.03455 18.1208Z" fill="white"/>
</mask>
<g mask="url(#mask11_32_3)">
<path d="M37.5717 31.9952C37.5717 31.9952 37.5717 31.9952 37.5864 32.0227C37.5864 32.0227 37.5864 32.0227 37.5992 32.0483C37.5992 32.0483 37.6121 32.007 37.5864 32.0227C37.5864 32.0227 37.5607 32.0365 37.6121 32.007C37.6377 31.9913 37.6121 32.007 37.5864 32.0227L37.5607 32.0365C37.5864 32.0227 37.5992 32.0483 37.5607 32.0365L37.5735 32.064C37.5882 32.0915 37.5882 32.0915 37.5735 32.064C37.5735 32.064 37.5735 32.064 37.5992 32.0483C37.5992 32.0483 37.5992 32.0483 37.5735 32.064C37.5735 32.064 37.524 32.0935 37.5497 32.0797L37.5735 32.064C37.535 32.0522 37.6139 32.0758 37.5882 32.0915C37.5992 32.0483 37.5717 31.9952 37.5717 31.9952C37.5992 32.0483 37.5992 32.0483 37.5992 32.0483C37.5992 32.0483 37.5497 32.0797 37.5735 32.064C37.6249 32.0345 37.6249 32.0345 37.6249 32.0345C37.5992 32.0483 37.6139 32.0758 37.6249 32.0345L37.6396 32.062C37.6396 32.062 37.6396 32.062 37.6249 32.0345C37.6121 32.007 37.6121 32.007 37.6121 32.007C37.6121 32.007 37.6506 32.0188 37.6249 32.0345L37.6506 32.0188C37.6763 32.0051 37.6249 32.0345 37.6249 32.0345C37.5882 32.0915 37.6377 31.9913 37.6249 32.0345C37.5864 32.0227 37.6029 32.119 37.5717 31.9952Z" fill="white"/>
<path d="M37.5717 31.9952C37.5717 31.9952 37.5717 31.9952 37.5864 32.0227C37.5864 32.0227 37.5864 32.0227 37.5992 32.0483C37.5992 32.0483 37.6121 32.007 37.5864 32.0227C37.5864 32.0227 37.5607 32.0365 37.6121 32.007C37.6377 31.9913 37.6121 32.007 37.5864 32.0227L37.5607 32.0365C37.5864 32.0227 37.5992 32.0483 37.5607 32.0365L37.5735 32.064C37.5882 32.0915 37.5882 32.0915 37.5735 32.064C37.5735 32.064 37.5735 32.064 37.5992 32.0483C37.5992 32.0483 37.5992 32.0483 37.5735 32.064C37.5735 32.064 37.524 32.0935 37.5497 32.0797L37.5735 32.064C37.535 32.0522 37.6139 32.0758 37.5882 32.0915C37.5992 32.0483 37.5717 31.9952 37.5717 31.9952C37.5992 32.0483 37.5992 32.0483 37.5992 32.0483C37.5992 32.0483 37.5497 32.0797 37.5735 32.064C37.6249 32.0345 37.6249 32.0345 37.6249 32.0345C37.5992 32.0483 37.6139 32.0758 37.6249 32.0345L37.6396 32.062C37.6396 32.062 37.6396 32.062 37.6249 32.0345C37.6121 32.007 37.6121 32.007 37.6121 32.007C37.6121 32.007 37.6506 32.0188 37.6249 32.0345L37.6506 32.0188C37.6763 32.0051 37.6249 32.0345 37.6249 32.0345C37.5882 32.0915 37.6377 31.9913 37.6249 32.0345C37.5864 32.0227 37.6029 32.119 37.5717 31.9952Z" fill="white"/>
</g>
</g>
</g>
<mask id="mask12_32_3" style="mask-type:luminance" maskUnits="userSpaceOnUse" x="0" y="49" width="84" height="15">
<path d="M0.22937 49.8381H83.361V63.2455H0.22937V49.8381Z" fill="white"/>
</mask>
<g mask="url(#mask12_32_3)">
<path d="M0.943109 63.0199C6.06178 60.1659 12.0317 59.5088 17.7063 59.3583C23.8157 59.1901 29.9086 59.6216 35.9849 60.2213C42.1292 60.8428 48.2569 61.6127 54.4176 62.0818C57.4815 62.3074 60.5637 62.438 63.6441 62.4558C66.5337 62.4756 69.4581 62.4935 72.3477 62.1194C75.2537 61.7433 78.1617 60.8606 80.3889 58.7012C82.3392 56.8051 83.75 53.9115 83.2088 51.0396C82.9831 49.8382 81.242 50.1192 81.242 51.3206C81.2604 53.8739 80.3376 56.0352 78.5103 57.6503C76.4554 59.4712 73.7053 60.1085 71.146 60.4469C65.332 61.1792 59.4134 60.9358 53.5829 60.5043C41.7457 59.6018 29.9434 57.5176 18.0549 57.9689C11.9969 58.1747 5.86914 58.9269 0.594525 62.3826C0.212918 62.6261 0.543155 63.2456 0.943109 63.0199Z" fill="white"/>
</g>
<path d="M3.24179 58.8515C8.42835 56.805 13.7892 56.3161 19.273 56.2785C19.5683 56.2785 19.6729 55.7342 19.3427 55.6966C13.8589 54.8139 8.14948 56.2211 3.11887 58.6061C3.0143 58.6635 3.10236 58.907 3.24179 58.8515Z" fill="white"/>
<path d="M78.3523 62.1371C80.3539 61.8363 82.1996 60.8051 83.5921 59.2455C84.3058 58.4577 84.9149 57.5552 85.3332 56.5596C85.6818 55.7719 86.3257 54.3627 85.8029 53.5551C85.5588 53.1791 85.1424 53.1237 84.8287 53.4245C84.2361 53.9688 84.3241 55.2078 84.0801 55.9975C83.8013 56.8981 83.4013 57.7432 82.8968 58.5131C81.7648 60.1836 80.1466 61.4048 78.301 61.9491C78.1781 61.9689 78.2313 62.1569 78.3523 62.1371Z" fill="white"/>
<path d="M3.31523 63.9006C5.23978 63.1604 7.24872 62.7269 9.27601 62.5646C9.69431 62.529 9.69431 61.8066 9.27601 61.86C7.14965 62.0401 5.12419 62.6002 3.14828 63.5028C2.94647 63.5938 3.09691 63.9916 3.31523 63.9006Z" fill="white"/>
<mask id="mask13_32_3" style="mask-type:luminance" maskUnits="userSpaceOnUse" x="0" y="57" width="85" height="8">
<path d="M0 57.9392H84.3003V64.9338H0V57.9392Z" fill="white"/>
</mask>
<g mask="url(#mask13_32_3)">
<path d="M82.8399 58.4102C81.5172 60.5775 79.1908 61.7156 76.9305 62.3846C74.2519 63.1782 71.4724 63.396 68.7095 63.3762C62.9835 63.3227 57.2246 62.4024 51.5316 61.7512C39.8963 60.433 28.1931 59.0416 16.4752 59.2237C13.8791 59.2772 11.2501 59.3484 8.67239 59.6928C2.81252 60.5953 0.669649 62.529 0.53572 62.6537C0.40179 62.7804 0.267861 62.9071 0.150443 63.0338C2.16067e-06 63.1782 0.150443 63.4672 0.352255 63.396C2.71161 62.5093 5.03978 61.6799 7.51656 61.2465C10.2135 60.7754 12.9416 60.6864 15.6716 60.631C21.6654 60.5043 27.6757 60.813 33.6511 61.3177C39.5789 61.8244 45.4883 62.5469 51.3812 63.2693C57.175 63.9739 63.0349 64.9655 68.8764 64.9477C73.9676 64.9477 80.9484 64.2431 83.9958 59.1327C84.4636 58.3568 83.3096 57.6522 82.8399 58.4102Z" fill="white"/>
</g>
</svg>
